<svg version="1.1" id="Layer_1" xmlns="http://www.w3.org/2000/svg" xmlns:xlink="http://www.w3.org/1999/xlink" x="0px" y="0px"
	 width="100%" viewBox="0 0 588 588" enable-background="new 0 0 588 588" xml:space="preserve">
<path fill="#FEFEFE" opacity="1.000000" stroke="none" 
	d="
M369.000000,589.000000 
	C246.000000,589.000000 123.500000,589.000000 1.000000,589.000000 
	C1.000000,393.000000 1.000000,197.000000 1.000000,1.000000 
	C197.000000,1.000000 393.000000,1.000000 589.000000,1.000000 
	C589.000000,197.000000 589.000000,393.000000 589.000000,589.000000 
	C515.833313,589.000000 442.666656,589.000000 369.000000,589.000000 
M358.826538,297.927673 
	C353.862518,279.950287 348.959717,261.955536 343.872681,244.013031 
	C343.049835,241.110870 343.429779,239.580078 346.262238,238.087387 
	C353.898529,234.063110 358.444153,227.220535 359.048492,218.927261 
	C359.830353,208.198166 359.849854,197.297089 358.871643,186.591217 
	C358.012390,177.187424 352.152557,169.964615 342.611420,168.669250 
	C329.881805,166.940948 316.919556,166.926147 303.416046,166.137985 
	C303.416046,169.483643 303.416046,171.441055 303.416046,173.398468 
	C303.416077,207.874237 303.416077,242.350006 303.416077,276.825775 
	C303.416077,282.988098 303.581848,289.156647 303.351807,295.310364 
	C303.220734,298.816681 304.424347,300.108307 307.929535,299.874847 
	C311.577484,299.631897 315.265076,299.643158 318.914948,299.870728 
	C322.250427,300.078705 323.193207,298.762482 323.162720,295.534485 
	C323.024414,280.879425 323.102325,266.222321 323.102448,251.565964 
	C323.102448,250.199905 323.102448,248.833847 323.102448,247.467789 
	C324.676666,248.877151 325.184845,250.359756 325.569397,251.873779 
	C329.258881,266.398987 332.895355,280.937836 336.650940,295.445862 
	C337.034729,296.928497 338.100342,299.438080 338.843994,299.436035 
	C345.535492,299.417725 352.225769,298.944244 359.889832,298.796448 
	C365.140106,299.135590 370.395813,299.408203 375.638458,299.839966 
	C378.558594,300.080414 379.776581,298.940857 380.158722,296.001617 
	C380.931580,290.057495 381.877808,284.117615 383.199005,278.276978 
	C383.499542,276.948517 385.537964,275.210358 386.913696,275.077057 
	C391.206177,274.661133 395.570984,275.067993 399.894806,274.871582 
	C402.669220,274.745514 403.708252,275.861359 404.077057,278.499634 
	C404.907104,284.437134 405.866089,290.364410 407.060852,296.237152 
	C407.325775,297.539185 408.727905,299.555389 409.700928,299.611816 
	C415.295990,299.936157 420.919464,299.769745 427.298859,299.769745 
	C419.057617,255.043533 410.960907,211.101807 402.822662,166.934448 
	C398.191132,166.934448 394.179626,167.239868 390.236359,166.851608 
	C385.988556,166.433380 384.599609,168.048660 383.835480,172.164841 
	C376.355286,212.459686 368.653229,252.713455 360.946777,292.965973 
	C360.563660,294.967163 359.558716,296.849335 358.826538,297.927673 
M494.804443,226.499969 
	C494.804321,249.328812 494.785034,272.157684 494.838684,294.986420 
	C494.843231,296.921387 493.844330,299.733826 497.434082,299.770172 
	C502.885101,299.825378 508.337097,299.784607 514.321960,299.784607 
	C514.321960,282.681122 514.321960,266.187195 514.321960,249.693298 
	C515.867798,250.982208 516.501953,252.435959 517.032471,253.926559 
	C521.945251,267.728516 526.800964,281.551025 531.793457,295.323975 
	C532.370239,296.915253 533.605042,299.430267 534.659912,299.495483 
	C541.007263,299.888000 547.391113,299.690430 554.234802,299.690430 
	C553.465820,297.310211 553.044678,295.897308 552.555359,294.508453 
	C545.862183,275.510590 539.070007,256.546631 532.571228,237.482605 
	C531.745117,235.059311 531.723633,231.872681 532.546509,229.453781 
	C539.086914,210.228561 545.925720,191.104874 552.658386,171.944931 
	C553.172058,170.483246 553.574463,168.982498 554.199585,166.941803 
	C548.238281,166.941803 543.071228,167.217484 537.950256,166.850479 
	C534.172729,166.579758 532.730713,168.223434 531.607422,171.502792 
	C526.860535,185.360382 521.892700,199.142365 516.982239,212.943680 
	C516.437927,214.473602 515.744080,215.950363 515.119568,217.451782 
	C514.721924,217.321243 514.324280,217.190704 513.926636,217.060181 
	C513.926636,200.478485 513.926636,183.896790 513.926636,167.286865 
	C507.436066,167.286865 501.367828,167.286865 494.804382,167.286865 
	C494.804382,186.919128 494.804382,206.209534 494.804443,226.499969 
M448.746368,256.499023 
	C448.746399,246.506195 448.727020,236.513336 448.751648,226.520569 
	C448.778320,215.696411 448.652039,204.866577 448.975494,194.050659 
	C449.143829,188.421722 452.547821,185.114395 457.119263,185.045746 
	C461.542114,184.979324 464.648682,187.875854 465.494629,193.307098 
	C465.975067,196.391846 465.950531,199.555222 466.171326,202.959473 
	C472.610474,202.959473 478.815277,202.959473 485.731995,202.959473 
	C485.367279,196.940857 485.515076,191.249329 484.570160,185.745407 
	C483.243683,178.019211 479.192902,171.854172 471.870911,168.241440 
	C451.128571,158.007019 429.421478,171.072296 429.073730,194.100403 
	C428.922882,204.091003 429.041718,214.085724 429.043457,224.078583 
	C429.046356,240.566757 428.847504,257.058319 429.119019,273.542114 
	C429.372955,288.957703 439.035187,299.728027 453.302551,301.207092 
	C469.372986,302.873077 481.255768,295.500305 484.365295,281.105957 
	C485.674469,275.045685 485.353394,268.633209 485.814789,261.764252 
	C481.090149,261.764252 477.301025,261.753174 473.511932,261.766479 
	C464.706116,261.797455 465.957703,261.140808 465.854553,269.073608 
	C465.837311,270.401581 465.785889,271.744263 465.575134,273.051941 
	C464.649384,278.796295 461.598785,281.800812 456.961243,281.632111 
	C452.373993,281.465271 449.301086,278.198059 448.944916,272.479950 
	C448.634827,267.501251 448.794281,262.493256 448.746368,256.499023 
M266.500000,166.849579 
	C257.698914,166.849579 248.897827,166.849579 239.721588,166.849579 
	C239.721588,173.357132 239.721588,179.388367 239.721588,185.982391 
	C245.851776,185.982391 251.588196,185.982391 257.778595,185.982391 
	C257.778595,188.168182 257.778625,189.796021 257.778625,191.423859 
	C257.778564,206.574982 257.778442,221.726105 257.778412,236.877228 
	C257.778320,256.190735 257.882141,275.505280 257.692719,294.816956 
	C257.653687,298.795135 258.834778,300.248596 262.795166,299.864716 
	C265.764160,299.576935 268.820709,299.509033 271.771942,299.876251 
	C276.571259,300.473419 277.542328,298.409271 277.520630,293.974152 
	C277.354675,260.009827 277.429352,226.044296 277.429260,192.079147 
	C277.429260,190.156097 277.429260,188.233047 277.429260,185.900620 
	C282.589600,185.900620 287.069977,185.684204 291.518372,185.968338 
	C295.147949,186.200165 296.200775,184.754105 295.978638,181.359482 
	C295.750793,177.877975 295.778748,174.361633 295.973114,170.876068 
	C296.141907,167.849014 295.039459,166.743912 291.973938,166.800186 
	C283.818420,166.949890 275.658295,166.850113 266.500000,166.849579 
M262.797882,391.839783 
	C264.473175,397.591003 266.464661,398.222900 276.874390,396.271973 
	C276.874390,366.627808 276.874390,336.973236 276.874390,307.310913 
	C272.510132,307.310913 268.605713,307.310913 264.188293,307.310913 
	C264.188293,320.179047 264.188293,332.705841 264.188293,345.232666 
	C262.685364,343.934937 262.084534,342.472260 261.648163,340.962128 
	C258.737549,330.889496 255.918442,320.789825 252.909409,310.746948 
	C252.496414,309.368561 251.306793,307.309937 250.286423,307.190369 
	C246.601105,306.758514 242.834488,307.020508 239.215698,307.020508 
	C239.215698,337.405762 239.215698,366.936493 239.215698,396.567566 
	C243.528900,396.567566 247.440750,396.567566 252.089508,396.567566 
	C252.089508,383.749847 252.089508,371.200623 252.089508,358.651398 
	C252.473648,358.622375 252.857788,358.593323 253.241928,358.564301 
	C256.347992,369.397369 259.454041,380.230469 262.797882,391.839783 
M62.005749,319.514221 
	C62.005749,345.101990 62.005749,370.689758 62.005749,396.534485 
	C66.552940,396.534485 70.598007,396.534485 75.104301,396.534485 
	C75.104301,383.392059 75.104301,370.561859 75.104301,357.731689 
	C76.316994,358.598053 76.761330,359.582367 77.056068,360.609558 
	C80.175339,371.480225 83.197624,382.379791 86.462494,393.206299 
	C86.885704,394.609680 88.404762,396.512238 89.628578,396.685760 
	C93.010925,397.165314 96.505730,396.851715 100.109375,396.851715 
	C100.109375,366.663055 100.109375,337.000916 100.109375,307.277405 
	C95.766411,307.277405 91.855461,307.277405 87.358307,307.277405 
	C87.358307,320.234711 87.358307,332.890778 87.358307,345.546844 
	C85.869202,344.165741 85.340317,342.671112 84.902115,341.150360 
	C81.955177,330.923218 79.109238,320.665497 75.997154,310.489075 
	C75.575958,309.111786 73.965790,307.305542 72.706688,307.130188 
	C69.337242,306.660919 65.859360,306.970276 62.005749,306.970276 
	C62.005749,311.265045 62.005749,314.893585 62.005749,319.514221 
M469.287201,371.500092 
	C469.287201,350.089813 469.287201,328.679535 469.287201,307.302185 
	C464.530365,307.302185 460.617493,307.302185 456.118286,307.302185 
	C456.118286,320.428131 456.118286,333.225433 456.118286,346.022766 
	C454.801300,344.730682 454.345062,343.353912 453.946289,341.960693 
	C450.967529,331.552765 448.054352,321.125397 444.964417,310.750671 
	C444.553345,309.370483 443.374390,307.301392 442.360352,307.182892 
	C438.668335,306.751343 434.895355,307.012482 431.314789,307.012482 
	C431.314789,337.430817 431.314789,366.986938 431.314789,396.530121 
	C435.674561,396.530121 439.591766,396.530121 444.062988,396.530121 
	C444.062988,383.437683 444.062988,370.657257 444.062988,357.876862 
	C445.367371,359.172913 445.848419,360.538452 446.246368,361.927765 
	C449.227325,372.333771 452.116455,382.767212 455.249420,393.127075 
	C455.679749,394.549988 457.168518,396.499634 458.387604,396.675201 
	C461.775513,397.163147 465.279633,396.844543 469.287231,396.844543 
	C469.287231,388.400940 469.287231,380.450531 469.287201,371.500092 
M230.855713,395.545685 
	C227.649750,383.987488 224.495407,372.414551 221.200699,360.881714 
	C220.400726,358.081421 220.682053,356.545288 223.199615,354.258881 
	C226.570007,351.198029 230.100983,346.853119 230.780975,342.613373 
	C231.973419,335.178619 231.495789,327.367950 230.866974,319.785339 
	C230.412064,314.299896 226.939972,309.505127 221.460434,308.645630 
	C212.248932,307.200745 202.832535,307.062134 193.456924,306.370636 
	C193.456924,337.374847 193.456924,366.929199 193.456924,396.526733 
	C197.941574,396.526733 202.010223,396.526733 206.752747,396.526733 
	C206.752747,385.271820 206.752747,374.341339 206.752747,363.410858 
	C208.182281,364.697540 208.623062,366.071106 208.982727,367.465576 
	C211.188126,376.015533 213.284515,384.595551 215.657394,393.098511 
	C216.053680,394.518555 217.553696,396.596436 218.665802,396.676636 
	C222.595581,396.959991 226.578400,396.507599 230.855713,395.545685 
M418.593872,390.989319 
	C419.884949,386.935852 421.598267,382.957611 422.338318,378.805939 
	C422.970947,375.256989 422.495361,371.509033 422.495209,367.849091 
	C422.494598,353.707947 422.547516,339.566406 422.459747,325.425781 
	C422.412628,317.834869 420.329315,311.009308 412.724762,307.763123 
	C401.224243,302.853851 384.255859,306.578369 384.021637,325.780151 
	C383.808563,343.246063 383.894440,360.717163 384.012756,378.184875 
	C384.068848,386.464294 387.116760,393.277496 395.336090,396.434509 
	C403.854523,399.706482 411.642639,398.378143 418.593872,390.989319 
M316.450134,342.854340 
	C314.546722,332.545685 312.270569,322.286591 310.890930,311.908295 
	C310.157532,306.391510 306.920837,307.019531 303.217316,306.883392 
	C299.515900,306.747314 297.297852,307.151520 296.464233,311.739594 
	C291.586456,338.587067 286.304016,365.360962 281.184662,392.164764 
	C280.919922,393.550751 280.898102,394.983185 280.744141,396.592896 
	C285.342377,396.592896 289.425568,396.592896 293.850403,396.592896 
	C294.821564,391.037262 295.758545,385.677246 296.691711,380.338928 
	C301.393768,380.338928 305.652832,380.338928 310.173859,380.338928 
	C310.923676,384.828522 311.480377,389.117767 312.436005,393.316193 
	C312.732635,394.619171 314.008209,396.567413 315.013977,396.684204 
	C318.570557,397.097229 322.204407,396.845093 326.451538,396.845093 
	C323.081818,378.629303 319.850403,361.161224 316.450134,342.854340 
M167.968811,214.500000 
	C167.968948,200.505264 167.874557,186.509491 168.027634,172.516434 
	C168.072723,168.393921 166.498459,166.744125 162.426910,166.940933 
	C158.603973,167.125717 154.753632,167.165009 150.936157,166.930099 
	C146.551941,166.660339 145.074112,168.502594 145.148010,172.802689 
	C145.345505,184.294968 145.215286,195.792908 145.215286,207.288589 
	C145.215286,209.585754 145.215286,211.882919 145.215286,214.180099 
	C140.932037,203.369019 138.052872,192.455444 134.693344,181.691788 
	C129.130066,163.867401 134.220505,167.346649 115.459595,167.000641 
	C108.495956,166.872192 108.207924,167.269394 108.206871,174.342896 
	C108.201653,209.329788 108.204376,244.316666 108.204636,279.303558 
	C108.204681,284.801483 108.263153,290.300232 108.187210,295.797089 
	C108.137909,299.365173 109.725090,301.004364 113.320961,300.897644 
	C116.816544,300.793854 120.317673,300.882080 123.816353,300.876617 
	C130.917892,300.865540 130.953842,300.832397 130.956573,293.494934 
	C130.961502,280.247711 130.957962,267.000519 130.957962,253.753311 
	C132.259506,254.697769 132.806686,255.816132 133.146759,256.994263 
	C135.917725,266.594208 138.654816,276.203918 141.392853,285.813293 
	C145.710449,300.966309 145.707382,300.967194 161.345856,300.877075 
	C167.749374,300.840179 167.963684,300.634399 167.965561,293.970581 
	C167.972961,267.813721 167.968704,241.656860 167.968811,214.500000 
M477.395386,370.734344 
	C475.790283,379.195587 474.185211,387.656830 472.505127,396.513397 
	C477.320465,396.513397 481.522186,396.513397 485.787415,396.513397 
	C486.173248,394.568634 486.529297,392.950043 486.812531,391.318817 
	C488.901367,379.289337 488.896759,379.287994 501.295135,380.202850 
	C501.454132,380.214600 501.606476,380.316376 502.149109,380.524994 
	C503.141876,385.763458 504.177765,391.229431 505.172577,396.478577 
	C509.821899,396.478577 513.882324,396.478577 518.493652,396.478577 
	C512.903076,366.459015 507.399780,336.908478 501.821533,306.955414 
	C499.328857,306.955414 497.166443,307.175873 495.066193,306.908295 
	C491.034973,306.394775 489.295654,307.700836 488.535919,312.009338 
	C485.125488,331.349396 481.287476,350.614014 477.395386,370.734344 
M168.554092,344.930481 
	C166.427353,344.930481 164.300629,344.930481 161.871460,344.930481 
	C161.871460,336.397186 161.871460,328.355042 161.871460,319.670105 
	C170.245605,319.670105 178.313004,319.670105 186.428558,319.670105 
	C186.428558,315.137634 186.428558,311.254578 186.428558,307.392395 
	C173.476074,307.392395 160.929306,307.392395 148.455322,307.392395 
	C148.455322,337.397278 148.455322,366.954773 148.455322,396.431030 
	C161.419266,396.431030 173.971664,396.431030 186.395966,396.431030 
	C186.395966,392.090881 186.395966,388.195068 186.395966,383.910706 
	C178.015945,383.910706 170.066223,383.910706 161.990265,383.910706 
	C161.990265,374.992493 161.990265,366.482178 161.990265,357.410919 
	C168.504440,357.410919 174.580948,357.410919 180.931320,357.410919 
	C180.931320,353.856079 180.950455,350.869965 180.918518,347.884399 
	C180.910019,347.089996 180.744904,346.297211 180.584351,344.930450 
	C176.767197,344.930450 173.150513,344.930450 168.554092,344.930481 
M227.277924,298.374054 
	C231.879425,298.946777 233.536575,296.485596 233.532608,292.307892 
	C233.530075,289.643097 233.539261,286.978271 233.532578,284.313507 
	C233.514923,277.280090 233.188904,276.943848 226.242294,276.937775 
	C216.636063,276.929382 207.029831,276.935669 197.296082,276.935669 
	C197.296082,265.269714 197.296082,254.247238 197.296082,242.881271 
	C205.026535,242.881271 212.339386,242.758987 219.645264,242.931488 
	C223.449966,243.021317 225.338394,241.681915 224.989273,237.729523 
	C224.901703,236.738022 224.990082,235.731918 224.976349,234.732819 
	C224.763107,219.212097 227.190063,221.248245 211.587845,221.104263 
	C206.828522,221.060333 202.068451,221.097427 197.293457,221.097427 
	C197.293457,209.969421 197.293457,199.599564 197.293457,188.916626 
	C207.855225,188.916626 217.999344,188.828995 228.140564,188.962051 
	C231.918610,189.011597 233.735260,187.671295 233.563828,183.733841 
	C233.404602,180.076736 233.388519,176.399963 233.571503,172.744980 
	C233.775955,168.661667 232.027023,167.060867 227.972168,167.086426 
	C211.817474,167.188339 195.661179,167.202240 179.506836,167.075272 
	C175.505890,167.043808 173.857742,168.353271 173.868790,172.562714 
	C173.974167,212.700958 173.974030,252.839676 173.868195,292.977905 
	C173.857376,297.080566 175.187622,298.501801 179.351608,298.450623 
	C195.004929,298.258087 210.662033,298.374329 227.277924,298.374054 
M534.977600,369.494080 
	C534.977600,348.761383 534.977600,328.028687 534.977600,307.352173 
	C530.109863,307.352173 526.053284,307.352173 521.869507,307.352173 
	C521.869507,337.303986 521.869507,366.866119 521.869507,396.510559 
	C534.747803,396.510559 547.305176,396.510559 559.905029,396.510559 
	C559.905029,392.245270 559.905029,388.325897 559.905029,383.884003 
	C551.547180,383.884003 543.482361,383.884003 534.977600,383.884003 
	C534.977600,379.073395 534.977600,374.781769 534.977600,369.494080 
M117.647354,323.517120 
	C117.647354,347.795532 117.647354,372.073914 117.647354,396.440063 
	C122.380440,396.440063 126.578186,396.440063 131.200287,396.440063 
	C131.200287,370.774170 131.200287,345.522491 131.200287,319.782745 
	C134.590744,319.782745 137.580948,320.030975 140.492874,319.661835 
	C141.674683,319.512024 143.498489,318.120392 143.625015,317.116699 
	C144.029282,313.909882 143.775009,310.620056 143.775009,307.414612 
	C130.455139,307.414612 117.920654,307.414612 105.385170,307.414612 
	C105.385170,311.639343 105.385170,315.399780 105.385170,319.792969 
	C108.444214,319.792969 111.266602,319.508301 113.985367,319.915527 
	C115.304077,320.113068 116.428619,321.606964 117.647354,323.517120 
M343.198151,396.841064 
	C343.862457,395.236298 345.095978,393.634796 345.105194,392.026276 
	C345.232147,369.895752 345.190521,347.764221 345.190277,325.632965 
	C345.190247,323.858307 345.190247,322.083649 345.190247,319.798859 
	C347.481598,319.798859 349.106598,319.809143 350.731506,319.797150 
	C358.786987,319.737549 357.914917,320.671021 357.971100,312.627258 
	C357.975739,311.961700 357.907257,311.289001 357.980682,310.631683 
	C358.297943,307.792938 357.029144,306.859497 354.237091,306.904297 
	C346.085602,307.035095 337.930603,306.949615 329.776978,306.949036 
	C326.378357,306.948792 322.979736,306.948975 319.250305,306.948975 
	C319.250305,310.160431 319.462646,312.495148 319.202972,314.776123 
	C318.759125,318.675171 320.114471,320.336273 324.170593,319.851013 
	C326.549377,319.566437 328.990051,319.799133 332.107239,319.799133 
	C332.107239,345.922150 332.107239,371.246582 332.107239,396.862152 
	C335.970337,396.862152 339.115540,396.862152 343.198151,396.841064 
M362.216522,333.499969 
	C362.216522,354.443237 362.216522,375.386475 362.216522,396.463989 
	C367.050720,396.463989 371.237854,396.463989 375.394531,396.463989 
	C375.394531,366.470581 375.394531,336.897552 375.394531,306.929901 
	C371.853119,306.929901 368.702942,307.039062 365.564148,306.896698 
	C362.869965,306.774506 362.143219,308.005402 362.179230,310.500885 
	C362.285034,317.832550 362.216736,325.166748 362.216522,333.499969 
M51.775597,393.176697 
	C51.775597,364.606384 51.775597,336.036072 51.775597,307.368347 
	C46.949886,307.368347 42.763695,307.368347 38.544189,307.368347 
	C38.544189,337.338531 38.544189,366.872894 38.544189,396.866699 
	C42.335857,396.866699 45.811256,397.056702 49.239937,396.740265 
	C50.157940,396.655548 50.933327,395.025452 51.775597,393.176697 
M51.613434,295.977570 
	C60.995632,300.594727 70.819038,301.149109 80.825470,298.795044 
	C93.682434,295.770355 102.590485,285.973267 102.793205,273.061340 
	C103.216423,246.104721 103.188194,219.133072 102.804604,192.175278 
	C102.626190,179.636765 95.149200,170.004440 83.289734,167.467484 
	C75.991570,165.906281 67.983147,165.539886 60.642441,166.751099 
	C45.927296,169.179031 37.148792,180.326859 37.041004,195.266251 
	C36.860867,220.232330 36.908070,245.201065 37.029785,270.167847 
	C37.082870,281.057526 41.370407,289.852325 51.613434,295.977570 
z"/>
<path fill="#0F3E6F" opacity="1.000000" stroke="none" 
	d="
M358.916382,298.604401 
	C352.225769,298.944244 345.535492,299.417725 338.843994,299.436035 
	C338.100342,299.438080 337.034729,296.928497 336.650940,295.445862 
	C332.895355,280.937836 329.258881,266.398987 325.569397,251.873779 
	C325.184845,250.359756 324.676666,248.877151 323.102448,247.467789 
	C323.102448,248.833847 323.102448,250.199905 323.102448,251.565964 
	C323.102325,266.222321 323.024414,280.879425 323.162720,295.534485 
	C323.193207,298.762482 322.250427,300.078705 318.914948,299.870728 
	C315.265076,299.643158 311.577484,299.631897 307.929535,299.874847 
	C304.424347,300.108307 303.220734,298.816681 303.351807,295.310364 
	C303.581848,289.156647 303.416077,282.988098 303.416077,276.825775 
	C303.416077,242.350006 303.416077,207.874237 303.416046,173.398468 
	C303.416046,171.441055 303.416046,169.483643 303.416046,166.137985 
	C316.919556,166.926147 329.881805,166.940948 342.611420,168.669250 
	C352.152557,169.964615 358.012390,177.187424 358.871643,186.591217 
	C359.849854,197.297089 359.830353,208.198166 359.048492,218.927261 
	C358.444153,227.220535 353.898529,234.063110 346.262238,238.087387 
	C343.429779,239.580078 343.049835,241.110870 343.872681,244.013031 
	C348.959717,261.955536 353.862518,279.950287 358.857605,298.324066 
	C358.888702,298.720459 358.916382,298.604401 358.916382,298.604401 
M323.072021,209.488739 
	C323.072021,213.892136 323.072021,218.295547 323.072021,222.734146 
	C325.123840,222.826141 326.278229,222.916641 327.433136,222.923584 
	C336.940033,222.980713 340.065613,220.012314 340.297516,210.585007 
	C340.391510,206.763901 340.378510,202.936996 340.295380,199.115311 
	C340.049255,187.802094 334.646057,183.817291 323.072052,186.735962 
	C323.072052,193.919693 323.072052,201.206421 323.072021,209.488739 
z"/>
<path fill="#0C3B6C" opacity="1.000000" stroke="none" 
	d="
M494.804413,225.999954 
	C494.804382,206.209534 494.804382,186.919128 494.804382,167.286865 
	C501.367828,167.286865 507.436066,167.286865 513.926636,167.286865 
	C513.926636,183.896790 513.926636,200.478485 513.926636,217.060181 
	C514.324280,217.190704 514.721924,217.321243 515.119568,217.451782 
	C515.744080,215.950363 516.437927,214.473602 516.982239,212.943680 
	C521.892700,199.142365 526.860535,185.360382 531.607422,171.502792 
	C532.730713,168.223434 534.172729,166.579758 537.950256,166.850479 
	C543.071228,167.217484 548.238281,166.941803 554.199585,166.941803 
	C553.574463,168.982498 553.172058,170.483246 552.658386,171.944931 
	C545.925720,191.104874 539.086914,210.228561 532.546509,229.453781 
	C531.723633,231.872681 531.745117,235.059311 532.571228,237.482605 
	C539.070007,256.546631 545.862183,275.510590 552.555359,294.508453 
	C553.044678,295.897308 553.465820,297.310211 554.234802,299.690430 
	C547.391113,299.690430 541.007263,299.888000 534.659912,299.495483 
	C533.605042,299.430267 532.370239,296.915253 531.793457,295.323975 
	C526.800964,281.551025 521.945251,267.728516 517.032471,253.926559 
	C516.501953,252.435959 515.867798,250.982208 514.321960,249.693298 
	C514.321960,266.187195 514.321960,282.681122 514.321960,299.784607 
	C508.337097,299.784607 502.885101,299.825378 497.434082,299.770172 
	C493.844330,299.733826 494.843231,296.921387 494.838684,294.986420 
	C494.785034,272.157684 494.804321,249.328812 494.804413,225.999954 
z"/>
<path fill="#0E3D6E" opacity="1.000000" stroke="none" 
	d="
M359.403107,298.700439 
	C358.916382,298.604401 358.888702,298.720459 358.865997,298.753693 
	C359.558716,296.849335 360.563660,294.967163 360.946777,292.965973 
	C368.653229,252.713455 376.355286,212.459686 383.835480,172.164841 
	C384.599609,168.048660 385.988556,166.433380 390.236359,166.851608 
	C394.179626,167.239868 398.191132,166.934448 402.822662,166.934448 
	C410.960907,211.101807 419.057617,255.043533 427.298859,299.769745 
	C420.919464,299.769745 415.295990,299.936157 409.700928,299.611816 
	C408.727905,299.555389 407.325775,297.539185 407.060852,296.237152 
	C405.866089,290.364410 404.907104,284.437134 404.077057,278.499634 
	C403.708252,275.861359 402.669220,274.745514 399.894806,274.871582 
	C395.570984,275.067993 391.206177,274.661133 386.913696,275.077057 
	C385.537964,275.210358 383.499542,276.948517 383.199005,278.276978 
	C381.877808,284.117615 380.931580,290.057495 380.158722,296.001617 
	C379.776581,298.940857 378.558594,300.080414 375.638458,299.839966 
	C370.395813,299.408203 365.140106,299.135590 359.403107,298.700439 
M389.120422,242.464508 
	C388.430695,246.797485 387.740967,251.130463 387.022980,255.641006 
	C391.757782,255.641006 395.783051,255.641006 400.312866,255.641006 
	C398.195160,243.105377 396.157043,231.041031 394.118958,218.976700 
	C393.769562,219.005615 393.420166,219.034531 393.070770,219.063461 
	C391.794495,226.577606 390.518188,234.091766 389.120422,242.464508 
z"/>
<path fill="#0E3D6E" opacity="1.000000" stroke="none" 
	d="
M448.746338,256.998627 
	C448.794281,262.493256 448.634827,267.501251 448.944916,272.479950 
	C449.301086,278.198059 452.373993,281.465271 456.961243,281.632111 
	C461.598785,281.800812 464.649384,278.796295 465.575134,273.051941 
	C465.785889,271.744263 465.837311,270.401581 465.854553,269.073608 
	C465.957703,261.140808 464.706116,261.797455 473.511932,261.766479 
	C477.301025,261.753174 481.090149,261.764252 485.814789,261.764252 
	C485.353394,268.633209 485.674469,275.045685 484.365295,281.105957 
	C481.255768,295.500305 469.372986,302.873077 453.302551,301.207092 
	C439.035187,299.728027 429.372955,288.957703 429.119019,273.542114 
	C428.847504,257.058319 429.046356,240.566757 429.043457,224.078583 
	C429.041718,214.085724 428.922882,204.091003 429.073730,194.100403 
	C429.421478,171.072296 451.128571,158.007019 471.870911,168.241440 
	C479.192902,171.854172 483.243683,178.019211 484.570160,185.745407 
	C485.515076,191.249329 485.367279,196.940857 485.731995,202.959473 
	C478.815277,202.959473 472.610474,202.959473 466.171326,202.959473 
	C465.950531,199.555222 465.975067,196.391846 465.494629,193.307098 
	C464.648682,187.875854 461.542114,184.979324 457.119263,185.045746 
	C452.547821,185.114395 449.143829,188.421722 448.975494,194.050659 
	C448.652039,204.866577 448.778320,215.696411 448.751648,226.520569 
	C448.727020,236.513336 448.746399,246.506195 448.746338,256.998627 
z"/>
<path fill="#0D3C6D" opacity="1.000000" stroke="none" 
	d="
M267.000000,166.849564 
	C275.658295,166.850113 283.818420,166.949890 291.973938,166.800186 
	C295.039459,166.743912 296.141907,167.849014 295.973114,170.876068 
	C295.778748,174.361633 295.750793,177.877975 295.978638,181.359482 
	C296.200775,184.754105 295.147949,186.200165 291.518372,185.968338 
	C287.069977,185.684204 282.589600,185.900620 277.429260,185.900620 
	C277.429260,188.233047 277.429260,190.156097 277.429260,192.079147 
	C277.429352,226.044296 277.354675,260.009827 277.520630,293.974152 
	C277.542328,298.409271 276.571259,300.473419 271.771942,299.876251 
	C268.820709,299.509033 265.764160,299.576935 262.795166,299.864716 
	C258.834778,300.248596 257.653687,298.795135 257.692719,294.816956 
	C257.882141,275.505280 257.778320,256.190735 257.778412,236.877228 
	C257.778442,221.726105 257.778564,206.574982 257.778625,191.423859 
	C257.778625,189.796021 257.778595,188.168182 257.778595,185.982391 
	C251.588196,185.982391 245.851776,185.982391 239.721588,185.982391 
	C239.721588,179.388367 239.721588,173.357132 239.721588,166.849579 
	C248.897827,166.849579 257.698914,166.849579 267.000000,166.849564 
z"/>
<path fill="#0F3E6F" opacity="1.000000" stroke="none" 
	d="
M262.678986,391.451660 
	C259.454041,380.230469 256.347992,369.397369 253.241928,358.564301 
	C252.857788,358.593323 252.473648,358.622375 252.089508,358.651398 
	C252.089508,371.200623 252.089508,383.749847 252.089508,396.567566 
	C247.440750,396.567566 243.528900,396.567566 239.215698,396.567566 
	C239.215698,366.936493 239.215698,337.405762 239.215698,307.020508 
	C242.834488,307.020508 246.601105,306.758514 250.286423,307.190369 
	C251.306793,307.309937 252.496414,309.368561 252.909409,310.746948 
	C255.918442,320.789825 258.737549,330.889496 261.648163,340.962128 
	C262.084534,342.472260 262.685364,343.934937 264.188293,345.232666 
	C264.188293,332.705841 264.188293,320.179047 264.188293,307.310913 
	C268.605713,307.310913 272.510132,307.310913 276.874390,307.310913 
	C276.874390,336.973236 276.874390,366.627808 276.874390,396.271973 
	C266.464661,398.222900 264.473175,397.591003 262.678986,391.451660 
z"/>
<path fill="#0E3D6E" opacity="1.000000" stroke="none" 
	d="
M62.005749,319.018158 
	C62.005749,314.893585 62.005749,311.265045 62.005749,306.970276 
	C65.859360,306.970276 69.337242,306.660919 72.706688,307.130188 
	C73.965790,307.305542 75.575958,309.111786 75.997154,310.489075 
	C79.109238,320.665497 81.955177,330.923218 84.902115,341.150360 
	C85.340317,342.671112 85.869202,344.165741 87.358307,345.546844 
	C87.358307,332.890778 87.358307,320.234711 87.358307,307.277405 
	C91.855461,307.277405 95.766411,307.277405 100.109375,307.277405 
	C100.109375,337.000916 100.109375,366.663055 100.109375,396.851715 
	C96.505730,396.851715 93.010925,397.165314 89.628578,396.685760 
	C88.404762,396.512238 86.885704,394.609680 86.462494,393.206299 
	C83.197624,382.379791 80.175339,371.480225 77.056068,360.609558 
	C76.761330,359.582367 76.316994,358.598053 75.104301,357.731689 
	C75.104301,370.561859 75.104301,383.392059 75.104301,396.534485 
	C70.598007,396.534485 66.552940,396.534485 62.005749,396.534485 
	C62.005749,370.689758 62.005749,345.101990 62.005749,319.018158 
z"/>
<path fill="#0E3D6E" opacity="1.000000" stroke="none" 
	d="
M469.287231,372.000122 
	C469.287231,380.450531 469.287231,388.400940 469.287231,396.844543 
	C465.279633,396.844543 461.775513,397.163147 458.387604,396.675201 
	C457.168518,396.499634 455.679749,394.549988 455.249420,393.127075 
	C452.116455,382.767212 449.227325,372.333771 446.246368,361.927765 
	C445.848419,360.538452 445.367371,359.172913 444.062988,357.876862 
	C444.062988,370.657257 444.062988,383.437683 444.062988,396.530121 
	C439.591766,396.530121 435.674561,396.530121 431.314789,396.530121 
	C431.314789,366.986938 431.314789,337.430817 431.314789,307.012482 
	C434.895355,307.012482 438.668335,306.751343 442.360352,307.182892 
	C443.374390,307.301392 444.553345,309.370483 444.964417,310.750671 
	C448.054352,321.125397 450.967529,331.552765 453.946289,341.960693 
	C454.345062,343.353912 454.801300,344.730682 456.118286,346.022766 
	C456.118286,333.225433 456.118286,320.428131 456.118286,307.302185 
	C460.617493,307.302185 464.530365,307.302185 469.287201,307.302185 
	C469.287201,328.679535 469.287201,350.089813 469.287231,372.000122 
z"/>
<path fill="#113F70" opacity="1.000000" stroke="none" 
	d="
M230.698410,395.939911 
	C226.578400,396.507599 222.595581,396.959991 218.665802,396.676636 
	C217.553696,396.596436 216.053680,394.518555 215.657394,393.098511 
	C213.284515,384.595551 211.188126,376.015533 208.982727,367.465576 
	C208.623062,366.071106 208.182281,364.697540 206.752747,363.410858 
	C206.752747,374.341339 206.752747,385.271820 206.752747,396.526733 
	C202.010223,396.526733 197.941574,396.526733 193.456924,396.526733 
	C193.456924,366.929199 193.456924,337.374847 193.456924,306.370636 
	C202.832535,307.062134 212.248932,307.200745 221.460434,308.645630 
	C226.939972,309.505127 230.412064,314.299896 230.866974,319.785339 
	C231.495789,327.367950 231.973419,335.178619 230.780975,342.613373 
	C230.100983,346.853119 226.570007,351.198029 223.199615,354.258881 
	C220.682053,356.545288 220.400726,358.081421 221.200699,360.881714 
	C224.495407,372.414551 227.649750,383.987488 230.698410,395.939911 
M218.060196,339.274963 
	C218.152328,335.642914 218.436218,332.003448 218.296738,328.380310 
	C218.005722,320.821930 214.466614,318.468628 206.798996,320.519745 
	C206.798996,328.517273 206.798996,336.517883 206.798996,344.634460 
	C211.592255,345.018188 215.948090,345.451508 218.060196,339.274963 
z"/>
<path fill="#0F3D6E" opacity="1.000000" stroke="none" 
	d="
M418.360352,391.272705 
	C411.642639,398.378143 403.854523,399.706482 395.336090,396.434509 
	C387.116760,393.277496 384.068848,386.464294 384.012756,378.184875 
	C383.894440,360.717163 383.808563,343.246063 384.021637,325.780151 
	C384.255859,306.578369 401.224243,302.853851 412.724762,307.763123 
	C420.329315,311.009308 422.412628,317.834869 422.459747,325.425781 
	C422.547516,339.566406 422.494598,353.707947 422.495209,367.849091 
	C422.495361,371.509033 422.970947,375.256989 422.338318,378.805939 
	C421.598267,382.957611 419.884949,386.935852 418.360352,391.272705 
M408.498779,381.503296 
	C408.695862,380.359985 409.061432,379.217194 409.064697,378.073334 
	C409.113708,360.912109 409.129242,343.750763 409.099365,326.589539 
	C409.097076,325.280426 409.131866,323.577484 408.383881,322.747925 
	C406.960266,321.169189 404.985016,319.089142 403.235046,319.085571 
	C401.501282,319.082062 399.252441,321.059784 398.178802,322.765900 
	C397.222687,324.285248 397.382111,326.620422 397.366119,328.598053 
	C397.293488,337.594940 397.323792,346.592743 397.334625,355.590210 
	C397.343628,363.087555 397.092102,370.603271 397.572968,378.071106 
	C397.717529,380.316071 399.476898,383.497864 401.330811,384.284698 
	C403.017120,385.000336 405.836060,383.047241 408.498779,381.503296 
z"/>
<path fill="#113F70" opacity="1.000000" stroke="none" 
	d="
M316.534546,343.273743 
	C319.850403,361.161224 323.081818,378.629303 326.451538,396.845093 
	C322.204407,396.845093 318.570557,397.097229 315.013977,396.684204 
	C314.008209,396.567413 312.732635,394.619171 312.436005,393.316193 
	C311.480377,389.117767 310.923676,384.828522 310.173859,380.338928 
	C305.652832,380.338928 301.393768,380.338928 296.691711,380.338928 
	C295.758545,385.677246 294.821564,391.037262 293.850403,396.592896 
	C289.425568,396.592896 285.342377,396.592896 280.744141,396.592896 
	C280.898102,394.983185 280.919922,393.550751 281.184662,392.164764 
	C286.304016,365.360962 291.586456,338.587067 296.464233,311.739594 
	C297.297852,307.151520 299.515900,306.747314 303.217316,306.883392 
	C306.920837,307.019531 310.157532,306.391510 310.890930,311.908295 
	C312.270569,322.286591 314.546722,332.545685 316.534546,343.273743 
M302.432739,345.484161 
	C301.260437,352.573547 300.088165,359.662933 298.895996,366.872498 
	C302.337921,366.872498 305.049438,366.872498 308.113831,366.872498 
	C306.664307,358.712067 305.294067,350.997803 303.686768,341.949127 
	C302.941254,343.882355 302.764191,344.341431 302.432739,345.484161 
z"/>
<path fill="#5BAA99" opacity="1.000000" stroke="none" 
	d="
M167.968796,215.000000 
	C167.968704,241.656860 167.972961,267.813721 167.965561,293.970581 
	C167.963684,300.634399 167.749374,300.840179 161.345856,300.877075 
	C145.707382,300.967194 145.710449,300.966309 141.392853,285.813293 
	C138.654816,276.203918 135.917725,266.594208 133.146759,256.994263 
	C132.806686,255.816132 132.259506,254.697769 130.957962,253.753311 
	C130.957962,267.000519 130.961502,280.247711 130.956573,293.494934 
	C130.953842,300.832397 130.917892,300.865540 123.816353,300.876617 
	C120.317673,300.882080 116.816544,300.793854 113.320961,300.897644 
	C109.725090,301.004364 108.137909,299.365173 108.187210,295.797089 
	C108.263153,290.300232 108.204681,284.801483 108.204636,279.303558 
	C108.204376,244.316666 108.201653,209.329788 108.206871,174.342896 
	C108.207924,167.269394 108.495956,166.872192 115.459595,167.000641 
	C134.220505,167.346649 129.130066,163.867401 134.693344,181.691788 
	C138.052872,192.455444 140.932037,203.369019 145.215286,214.180099 
	C145.215286,211.882919 145.215286,209.585754 145.215286,207.288589 
	C145.215286,195.792908 145.345505,184.294968 145.148010,172.802689 
	C145.074112,168.502594 146.551941,166.660339 150.936157,166.930099 
	C154.753632,167.165009 158.603973,167.125717 162.426910,166.940933 
	C166.498459,166.744125 168.072723,168.393921 168.027634,172.516434 
	C167.874557,186.509491 167.968948,200.505264 167.968796,215.000000 
M142.319962,221.244507 
	C137.877121,205.716568 133.481323,190.174744 128.916412,174.682785 
	C128.474625,173.183456 127.086472,170.950592 125.964485,170.841675 
	C121.426933,170.401154 116.821594,170.658875 112.158073,170.658875 
	C112.158073,213.181366 112.158073,254.916779 112.158073,296.722687 
	C117.329872,296.722687 122.183052,296.722687 127.334366,296.722687 
	C127.334366,278.432129 127.333771,260.614655 127.335571,242.797180 
	C127.335709,241.464417 127.140404,240.082932 127.431145,238.814697 
	C127.654228,237.841537 128.500244,237.011169 129.069229,236.117310 
	C129.864365,236.787170 130.970169,237.305939 131.385712,238.160400 
	C132.103714,239.636795 132.403625,241.318588 132.860794,242.919403 
	C137.615295,259.568176 142.314774,276.233124 147.199768,292.843475 
	C147.674759,294.458557 149.163620,296.834137 150.398376,296.976318 
	C154.789383,297.481903 159.274078,297.173737 163.944550,297.173737 
	C164.105576,295.295166 164.311630,294.008728 164.312195,292.722260 
	C164.329437,253.567230 164.326630,214.412216 164.325378,175.257187 
	C164.325348,174.590912 164.545975,173.776321 164.245117,173.289719 
	C163.646729,172.321945 162.797760,170.838287 161.979767,170.789703 
	C157.747238,170.538269 153.491776,170.672836 148.851776,170.672836 
	C148.851776,179.580093 148.851807,187.717224 148.851776,195.854355 
	C148.851761,205.851379 148.949509,215.850174 148.769699,225.843964 
	C148.733414,227.860168 147.645370,229.857437 147.042252,231.863434 
	C146.003189,230.182388 144.801102,228.576950 143.975357,226.796951 
	C143.283875,225.306366 143.032059,223.611832 142.319962,221.244507 
z"/>
<path fill="#0F3E6F" opacity="1.000000" stroke="none" 
	d="
M477.499573,370.320099 
	C481.287476,350.614014 485.125488,331.349396 488.535919,312.009338 
	C489.295654,307.700836 491.034973,306.394775 495.066193,306.908295 
	C497.166443,307.175873 499.328857,306.955414 501.821533,306.955414 
	C507.399780,336.908478 512.903076,366.459015 518.493652,396.478577 
	C513.882324,396.478577 509.821899,396.478577 505.172577,396.478577 
	C504.177765,391.229431 503.141876,385.763458 502.149109,380.524994 
	C501.606476,380.316376 501.454132,380.214600 501.295135,380.202850 
	C488.896759,379.287994 488.901367,379.289337 486.812531,391.318817 
	C486.529297,392.950043 486.173248,394.568634 485.787415,396.513397 
	C481.522186,396.513397 477.320465,396.513397 472.505127,396.513397 
	C474.185211,387.656830 475.790283,379.195587 477.499573,370.320099 
M491.824829,362.157227 
	C491.616730,363.705597 491.408600,365.253937 491.189606,366.883423 
	C494.403442,366.883423 497.123901,366.883423 500.163971,366.883423 
	C498.765778,359.037903 497.440948,351.603943 496.116119,344.169952 
	C494.978271,344.738953 494.695160,345.161499 494.615662,345.619415 
	C493.709015,350.842987 492.833435,356.071899 491.824829,362.157227 
z"/>
<path fill="#124070" opacity="1.000000" stroke="none" 
	d="
M169.043961,344.930481 
	C173.150513,344.930450 176.767197,344.930450 180.584351,344.930450 
	C180.744904,346.297211 180.910019,347.089996 180.918518,347.884399 
	C180.950455,350.869965 180.931320,353.856079 180.931320,357.410919 
	C174.580948,357.410919 168.504440,357.410919 161.990265,357.410919 
	C161.990265,366.482178 161.990265,374.992493 161.990265,383.910706 
	C170.066223,383.910706 178.015945,383.910706 186.395966,383.910706 
	C186.395966,388.195068 186.395966,392.090881 186.395966,396.431030 
	C173.971664,396.431030 161.419266,396.431030 148.455322,396.431030 
	C148.455322,366.954773 148.455322,337.397278 148.455322,307.392395 
	C160.929306,307.392395 173.476074,307.392395 186.428558,307.392395 
	C186.428558,311.254578 186.428558,315.137634 186.428558,319.670105 
	C178.313004,319.670105 170.245605,319.670105 161.871460,319.670105 
	C161.871460,328.355042 161.871460,336.397186 161.871460,344.930481 
	C164.300629,344.930481 166.427353,344.930481 169.043961,344.930481 
z"/>
<path fill="#55A796" opacity="1.000000" stroke="none" 
	d="
M226.797821,298.374451 
	C210.662033,298.374329 195.004929,298.258087 179.351608,298.450623 
	C175.187622,298.501801 173.857376,297.080566 173.868195,292.977905 
	C173.974030,252.839676 173.974167,212.700958 173.868790,172.562714 
	C173.857742,168.353271 175.505890,167.043808 179.506836,167.075272 
	C195.661179,167.202240 211.817474,167.188339 227.972168,167.086426 
	C232.027023,167.060867 233.775955,168.661667 233.571503,172.744980 
	C233.388519,176.399963 233.404602,180.076736 233.563828,183.733841 
	C233.735260,187.671295 231.918610,189.011597 228.140564,188.962051 
	C217.999344,188.828995 207.855225,188.916626 197.293457,188.916626 
	C197.293457,199.599564 197.293457,209.969421 197.293457,221.097427 
	C202.068451,221.097427 206.828522,221.060333 211.587845,221.104263 
	C227.190063,221.248245 224.763107,219.212097 224.976349,234.732819 
	C224.990082,235.731918 224.901703,236.738022 224.989273,237.729523 
	C225.338394,241.681915 223.449966,243.021317 219.645264,242.931488 
	C212.339386,242.758987 205.026535,242.881271 197.296082,242.881271 
	C197.296082,254.247238 197.296082,265.269714 197.296082,276.935669 
	C207.029831,276.935669 216.636063,276.929382 226.242294,276.937775 
	C233.188904,276.943848 233.514923,277.280090 233.532578,284.313507 
	C233.539261,286.978271 233.530075,289.643097 233.532608,292.307892 
	C233.536575,296.485596 231.879425,298.946777 226.797821,298.374451 
M193.302292,204.500397 
	C193.302231,202.001297 193.302170,199.502197 193.302155,197.003098 
	C193.302139,185.391068 193.302139,185.391190 204.671036,185.391022 
	C211.835281,185.390915 219.002411,185.493958 226.161072,185.294052 
	C227.440094,185.258347 229.696274,184.061874 229.772919,183.240189 
	C230.149948,179.197678 229.944199,175.100815 229.944199,170.994415 
	C211.994461,170.994415 194.900299,170.994415 177.498962,170.994415 
	C177.498962,212.348846 177.498962,253.402100 177.498962,294.767029 
	C194.986038,294.767029 212.193344,294.767029 229.992371,294.767029 
	C229.992371,291.001831 229.837402,287.539093 230.037643,284.096985 
	C230.223419,280.903564 228.747849,280.128143 225.861633,280.162506 
	C216.532806,280.273468 207.198807,280.066895 197.873138,280.271545 
	C194.371994,280.348419 193.195419,279.185883 193.246399,275.712738 
	C193.402893,265.051971 193.432037,254.384995 193.230255,243.725754 
	C193.161758,240.107910 194.510422,239.146362 197.899124,239.250610 
	C204.557175,239.455414 211.231903,239.451614 217.885391,239.181168 
	C219.170654,239.128922 221.343521,237.575851 221.468292,236.521210 
	C221.909714,232.790695 221.640228,228.976059 221.640228,224.683365 
	C213.233383,224.683365 205.429962,224.563660 197.633301,224.741089 
	C194.423431,224.814133 193.110550,223.827316 193.248932,220.492310 
	C193.455963,215.502594 193.302750,210.497925 193.302292,204.500397 
z"/>
<path fill="#0D3C6E" opacity="1.000000" stroke="none" 
	d="
M534.977600,369.992126 
	C534.977600,374.781769 534.977600,379.073395 534.977600,383.884003 
	C543.482361,383.884003 551.547180,383.884003 559.905029,383.884003 
	C559.905029,388.325897 559.905029,392.245270 559.905029,396.510559 
	C547.305176,396.510559 534.747803,396.510559 521.869507,396.510559 
	C521.869507,366.866119 521.869507,337.303986 521.869507,307.352173 
	C526.053284,307.352173 530.109863,307.352173 534.977600,307.352173 
	C534.977600,328.028687 534.977600,348.761383 534.977600,369.992126 
z"/>
<path fill="#0F3E6E" opacity="1.000000" stroke="none" 
	d="
M117.644211,323.015564 
	C116.428619,321.606964 115.304077,320.113068 113.985367,319.915527 
	C111.266602,319.508301 108.444214,319.792969 105.385170,319.792969 
	C105.385170,315.399780 105.385170,311.639343 105.385170,307.414612 
	C117.920654,307.414612 130.455139,307.414612 143.775009,307.414612 
	C143.775009,310.620056 144.029282,313.909882 143.625015,317.116699 
	C143.498489,318.120392 141.674683,319.512024 140.492874,319.661835 
	C137.580948,320.030975 134.590744,319.782745 131.200287,319.782745 
	C131.200287,345.522491 131.200287,370.774170 131.200287,396.440063 
	C126.578186,396.440063 122.380440,396.440063 117.647354,396.440063 
	C117.647354,372.073914 117.647354,347.795532 117.644211,323.015564 
z"/>
<path fill="#113F70" opacity="1.000000" stroke="none" 
	d="
M342.729431,396.851624 
	C339.115540,396.862152 335.970337,396.862152 332.107239,396.862152 
	C332.107239,371.246582 332.107239,345.922150 332.107239,319.799133 
	C328.990051,319.799133 326.549377,319.566437 324.170593,319.851013 
	C320.114471,320.336273 318.759125,318.675171 319.202972,314.776123 
	C319.462646,312.495148 319.250305,310.160431 319.250305,306.948975 
	C322.979736,306.948975 326.378357,306.948792 329.776978,306.949036 
	C337.930603,306.949615 346.085602,307.035095 354.237091,306.904297 
	C357.029144,306.859497 358.297943,307.792938 357.980682,310.631683 
	C357.907257,311.289001 357.975739,311.961700 357.971100,312.627258 
	C357.914917,320.671021 358.786987,319.737549 350.731506,319.797150 
	C349.106598,319.809143 347.481598,319.798859 345.190247,319.798859 
	C345.190247,322.083649 345.190247,323.858307 345.190277,325.632965 
	C345.190521,347.764221 345.232147,369.895752 345.105194,392.026276 
	C345.095978,393.634796 343.862457,395.236298 342.729431,396.851624 
z"/>
<path fill="#184474" opacity="1.000000" stroke="none" 
	d="
M362.216553,332.999939 
	C362.216736,325.166748 362.285034,317.832550 362.179230,310.500885 
	C362.143219,308.005402 362.869965,306.774506 365.564148,306.896698 
	C368.702942,307.039062 371.853119,306.929901 375.394531,306.929901 
	C375.394531,336.897552 375.394531,366.470581 375.394531,396.463989 
	C371.237854,396.463989 367.050720,396.463989 362.216522,396.463989 
	C362.216522,375.386475 362.216522,354.443237 362.216553,332.999939 
z"/>
<path fill="#154372" opacity="1.000000" stroke="none" 
	d="
M51.774891,393.640747 
	C50.933327,395.025452 50.157940,396.655548 49.239937,396.740265 
	C45.811256,397.056702 42.335857,396.866699 38.544189,396.866699 
	C38.544189,366.872894 38.544189,337.338531 38.544189,307.368347 
	C42.763695,307.368347 46.949886,307.368347 51.775597,307.368347 
	C51.775597,336.036072 51.775597,364.606384 51.774891,393.640747 
z"/>
<path fill="#4CA291" opacity="1.000000" stroke="none" 
	d="
M51.289001,295.804321 
	C41.370407,289.852325 37.082870,281.057526 37.029785,270.167847 
	C36.908070,245.201065 36.860867,220.232330 37.041004,195.266251 
	C37.148792,180.326859 45.927296,169.179031 60.642441,166.751099 
	C67.983147,165.539886 75.991570,165.906281 83.289734,167.467484 
	C95.149200,170.004440 102.626190,179.636765 102.804604,192.175278 
	C103.188194,219.133072 103.216423,246.104721 102.793205,273.061340 
	C102.590485,285.973267 93.682434,295.770355 80.825470,298.795044 
	C70.819038,301.149109 60.995632,300.594727 51.289001,295.804321 
M50.936935,174.327606 
	C43.609428,179.685562 40.599373,187.100540 40.602665,195.964752 
	C40.608105,210.624924 40.596142,225.285095 40.598190,239.945267 
	C40.599632,250.274002 40.576748,260.602905 40.630814,270.931396 
	C40.674503,279.278259 43.527882,286.512695 50.710529,291.046631 
	C62.177837,298.285156 74.450089,298.430817 86.488091,292.743011 
	C97.274857,287.646362 99.777061,277.771149 99.748970,266.794464 
	C99.690979,244.137970 99.755630,221.481155 99.702751,198.824646 
	C99.695778,195.836075 99.460373,192.825516 99.047241,189.864685 
	C97.846008,181.255722 93.338470,174.832214 85.196625,171.756317 
	C73.778191,167.442581 62.400261,167.548065 50.936935,174.327606 
z"/>
<path fill="#F6F7F9" opacity="1.000000" stroke="none" 
	d="
M323.072021,208.990952 
	C323.072052,201.206421 323.072052,193.919693 323.072052,186.735962 
	C334.646057,183.817291 340.049255,187.802094 340.295380,199.115311 
	C340.378510,202.936996 340.391510,206.763901 340.297516,210.585007 
	C340.065613,220.012314 336.940033,222.980713 327.433136,222.923584 
	C326.278229,222.916641 325.123840,222.826141 323.072021,222.734146 
	C323.072021,218.295547 323.072021,213.892136 323.072021,208.990952 
z"/>
<path fill="#EAEDF2" opacity="1.000000" stroke="none" 
	d="
M389.181152,242.035217 
	C390.518188,234.091766 391.794495,226.577606 393.070770,219.063461 
	C393.420166,219.034531 393.769562,219.005615 394.118958,218.976700 
	C396.157043,231.041031 398.195160,243.105377 400.312866,255.641006 
	C395.783051,255.641006 391.757782,255.641006 387.022980,255.641006 
	C387.740967,251.130463 388.430695,246.797485 389.181152,242.035217 
z"/>
<path fill="#EDF0F4" opacity="1.000000" stroke="none" 
	d="
M217.968842,339.667725 
	C215.948090,345.451508 211.592255,345.018188 206.798996,344.634460 
	C206.798996,336.517883 206.798996,328.517273 206.798996,320.519745 
	C214.466614,318.468628 218.005722,320.821930 218.296738,328.380310 
	C218.436218,332.003448 218.152328,335.642914 217.968842,339.667725 
z"/>
<path fill="#F1F4F7" opacity="1.000000" stroke="none" 
	d="
M408.327240,381.886963 
	C405.836060,383.047241 403.017120,385.000336 401.330811,384.284698 
	C399.476898,383.497864 397.717529,380.316071 397.572968,378.071106 
	C397.092102,370.603271 397.343628,363.087555 397.334625,355.590210 
	C397.323792,346.592743 397.293488,337.594940 397.366119,328.598053 
	C397.382111,326.620422 397.222687,324.285248 398.178802,322.765900 
	C399.252441,321.059784 401.501282,319.082062 403.235046,319.085571 
	C404.985016,319.089142 406.960266,321.169189 408.383881,322.747925 
	C409.131866,323.577484 409.097076,325.280426 409.099365,326.589539 
	C409.129242,343.750763 409.113708,360.912109 409.064697,378.073334 
	C409.061432,379.217194 408.695862,380.359985 408.327240,381.886963 
z"/>
<path fill="#E2E7ED" opacity="1.000000" stroke="none" 
	d="
M302.509949,345.142334 
	C302.764191,344.341431 302.941254,343.882355 303.686768,341.949127 
	C305.294067,350.997803 306.664307,358.712067 308.113831,366.872498 
	C305.049438,366.872498 302.337921,366.872498 298.895996,366.872498 
	C300.088165,359.662933 301.260437,352.573547 302.509949,345.142334 
z"/>
<path fill="#FAFCFC" opacity="1.000000" stroke="none" 
	d="
M142.452759,221.626053 
	C143.032059,223.611832 143.283875,225.306366 143.975357,226.796951 
	C144.801102,228.576950 146.003189,230.182388 147.042236,231.863434 
	C147.645370,229.857437 148.733414,227.860168 148.769699,225.843964 
	C148.949509,215.850174 148.851761,205.851379 148.851776,195.854355 
	C148.851807,187.717224 148.851776,179.580093 148.851776,170.672836 
	C153.491776,170.672836 157.747238,170.538269 161.979767,170.789703 
	C162.797760,170.838287 163.646729,172.321945 164.245117,173.289719 
	C164.545975,173.776321 164.325348,174.590912 164.325378,175.257187 
	C164.326630,214.412216 164.329437,253.567230 164.312195,292.722260 
	C164.311630,294.008728 164.105576,295.295166 163.944550,297.173737 
	C159.274078,297.173737 154.789383,297.481903 150.398376,296.976318 
	C149.163620,296.834137 147.674759,294.458557 147.199768,292.843475 
	C142.314774,276.233124 137.615295,259.568176 132.860794,242.919403 
	C132.403625,241.318588 132.103714,239.636795 131.385712,238.160400 
	C130.970169,237.305939 129.864365,236.787170 129.069229,236.117310 
	C128.500244,237.011169 127.654228,237.841537 127.431145,238.814697 
	C127.140404,240.082932 127.335709,241.464417 127.335571,242.797180 
	C127.333771,260.614655 127.334366,278.432129 127.334366,296.722687 
	C122.183052,296.722687 117.329872,296.722687 112.158073,296.722687 
	C112.158073,254.916779 112.158073,213.181366 112.158073,170.658875 
	C116.821594,170.658875 121.426933,170.401154 125.964485,170.841675 
	C127.086472,170.950592 128.474625,173.183456 128.916412,174.682785 
	C133.481323,190.174744 137.877121,205.716568 142.452759,221.626053 
z"/>
<path fill="#EAEDF2" opacity="1.000000" stroke="none" 
	d="
M491.887177,361.728333 
	C492.833435,356.071899 493.709015,350.842987 494.615662,345.619415 
	C494.695160,345.161499 494.978271,344.738953 496.116119,344.169952 
	C497.440948,351.603943 498.765778,359.037903 500.163971,366.883423 
	C497.123901,366.883423 494.403442,366.883423 491.189606,366.883423 
	C491.408600,365.253937 491.616730,363.705597 491.887177,361.728333 
z"/>
<path fill="#F7FAF9" opacity="1.000000" stroke="none" 
	d="
M193.302521,205.000000 
	C193.302750,210.497925 193.455963,215.502594 193.248932,220.492310 
	C193.110550,223.827316 194.423431,224.814133 197.633301,224.741089 
	C205.429962,224.563660 213.233383,224.683365 221.640228,224.683365 
	C221.640228,228.976059 221.909714,232.790695 221.468292,236.521210 
	C221.343521,237.575851 219.170654,239.128922 217.885391,239.181168 
	C211.231903,239.451614 204.557175,239.455414 197.899124,239.250610 
	C194.510422,239.146362 193.161758,240.107910 193.230255,243.725754 
	C193.432037,254.384995 193.402893,265.051971 193.246399,275.712738 
	C193.195419,279.185883 194.371994,280.348419 197.873138,280.271545 
	C207.198807,280.066895 216.532806,280.273468 225.861633,280.162506 
	C228.747849,280.128143 230.223419,280.903564 230.037643,284.096985 
	C229.837402,287.539093 229.992371,291.001831 229.992371,294.767029 
	C212.193344,294.767029 194.986038,294.767029 177.498962,294.767029 
	C177.498962,253.402100 177.498962,212.348846 177.498962,170.994415 
	C194.900299,170.994415 211.994461,170.994415 229.944199,170.994415 
	C229.944199,175.100815 230.149948,179.197678 229.772919,183.240189 
	C229.696274,184.061874 227.440094,185.258347 226.161072,185.294052 
	C219.002411,185.493958 211.835281,185.390915 204.671036,185.391022 
	C193.302139,185.391190 193.302139,185.391068 193.302155,197.003098 
	C193.302170,199.502197 193.302231,202.001297 193.302521,205.000000 
z"/>
<path fill="#FAFCFB" opacity="1.000000" stroke="none" 
	d="
M51.241058,174.117813 
	C62.400261,167.548065 73.778191,167.442581 85.196625,171.756317 
	C93.338470,174.832214 97.846008,181.255722 99.047241,189.864685 
	C99.460373,192.825516 99.695778,195.836075 99.702751,198.824646 
	C99.755630,221.481155 99.690979,244.137970 99.748970,266.794464 
	C99.777061,277.771149 97.274857,287.646362 86.488091,292.743011 
	C74.450089,298.430817 62.177837,298.285156 50.710529,291.046631 
	C43.527882,286.512695 40.674503,279.278259 40.630814,270.931396 
	C40.576748,260.602905 40.599632,250.274002 40.598190,239.945267 
	C40.596142,225.285095 40.608105,210.624924 40.602665,195.964752 
	C40.599373,187.100540 43.609428,179.685562 51.241058,174.117813 
M81.159714,200.734726 
	C80.845978,192.218857 77.260201,188.031616 70.351418,188.113510 
	C63.454151,188.195267 59.908752,192.533371 59.861965,201.031250 
	C59.827148,207.355499 59.852852,213.680099 59.853512,220.004532 
	C59.855145,235.649185 59.860222,251.293854 59.858799,266.938507 
	C59.858337,272.011108 61.429752,276.185120 66.645996,277.955200 
	C74.673439,280.679291 81.085396,276.153290 81.121956,267.586914 
	C81.215721,245.618195 81.158127,223.648849 81.159714,200.734726 
z"/>
<path fill="#479F8D" opacity="1.000000" stroke="none" 
	d="
M81.160378,201.207245 
	C81.158127,223.648849 81.215721,245.618195 81.121956,267.586914 
	C81.085396,276.153290 74.673439,280.679291 66.645996,277.955200 
	C61.429752,276.185120 59.858337,272.011108 59.858799,266.938507 
	C59.860222,251.293854 59.855145,235.649185 59.853512,220.004532 
	C59.852852,213.680099 59.827148,207.355499 59.861965,201.031250 
	C59.908752,192.533371 63.454151,188.195267 70.351418,188.113510 
	C77.260201,188.031616 80.845978,192.218857 81.160378,201.207245 
M69.732559,191.269333 
	C64.989807,191.865204 63.221939,195.110519 63.204884,199.312881 
	C63.112354,222.114792 63.075600,244.917877 63.229698,267.719147 
	C63.266541,273.170654 66.010796,275.486725 70.973907,275.339905 
	C75.642693,275.201752 77.788368,273.010468 77.812721,267.443909 
	C77.911789,244.808289 77.896889,222.171799 77.818611,199.536011 
	C77.802322,194.825516 75.772530,191.502777 69.732559,191.269333 
z"/>
<path fill="#F8FBFA" opacity="1.000000" stroke="none" 
	d="
M70.116196,191.252625 
	C75.772530,191.502777 77.802322,194.825516 77.818611,199.536011 
	C77.896889,222.171799 77.911789,244.808289 77.812721,267.443909 
	C77.788368,273.010468 75.642693,275.201752 70.973907,275.339905 
	C66.010796,275.486725 63.266541,273.170654 63.229698,267.719147 
	C63.075600,244.917877 63.112354,222.114792 63.204884,199.312881 
	C63.221939,195.110519 64.989807,191.865204 70.116196,191.252625 
z"/>
</svg>