<svg version="1.1" id="Layer_1" xmlns="http://www.w3.org/2000/svg" xmlns:xlink="http://www.w3.org/1999/xlink" x="0px" y="0px"
	 width="100%" viewBox="0 0 834 936" enable-background="new 0 0 834 936" xml:space="preserve">
<path fill="#000000" opacity="1.000000" stroke="none" 
	d="
M418.000000,937.000000 
	C280.166656,937.000000 142.833313,936.982239 5.500077,937.094177 
	C1.750566,937.097229 0.905615,936.249146 0.906842,932.500000 
	C1.007942,623.500000 1.007942,314.500000 0.906842,5.500031 
	C0.905615,1.750883 1.750853,0.905348 5.500035,0.906741 
	C280.500000,1.008920 555.500000,1.008920 830.499939,0.906742 
	C834.249146,0.905349 835.094421,1.750883 835.093201,5.500031 
	C834.992065,314.500000 834.992065,623.500000 835.093201,932.500000 
	C835.094421,936.249146 834.249451,937.097229 830.499939,937.094177 
	C693.166687,936.982239 555.833313,937.000000 418.000000,937.000000 
z"/>
<path fill="#2A6595" opacity="1.000000" stroke="none" 
	d="
M343.317688,604.584106 
	C337.602570,601.278992 332.018921,600.776611 326.088287,602.393982 
	C320.260895,603.983215 314.319214,605.153259 308.184753,606.563110 
	C309.150879,608.997375 311.689728,609.825867 313.440887,610.541626 
	C320.213593,613.309875 320.999725,618.297974 319.546295,624.772522 
	C314.282135,622.864807 310.078186,619.113220 305.265839,616.480164 
	C302.760956,615.109619 304.138428,612.626892 305.110565,610.731140 
	C306.652313,607.724487 306.263062,607.054138 302.740295,607.869263 
	C287.556000,611.382996 272.302307,614.595215 257.093811,618.006104 
	C237.883881,622.314514 218.692978,626.707886 199.496841,631.077637 
	C199.067627,631.175354 198.674011,631.429504 198.327255,631.582642 
	C198.130615,632.745361 198.756973,633.355957 199.487854,633.723999 
	C210.900650,639.470459 223.279709,642.042725 235.774612,641.725281 
	C249.267593,641.382446 261.731049,636.122253 273.270203,629.116089 
	C275.516602,627.752136 277.349426,627.476929 278.938324,629.498901 
	C281.841370,633.193298 285.891602,634.407654 290.190643,634.928040 
	C292.654083,635.226257 293.684479,635.863708 292.322937,638.291687 
	C289.475372,643.369812 291.695709,645.896790 296.413300,648.282959 
	C302.554260,651.388977 308.243011,655.392456 314.106628,659.041443 
	C315.679474,660.020264 317.016083,668.290894 315.661804,669.313782 
	C314.151978,670.453979 312.872620,668.956665 311.740723,668.263733 
	C304.590790,663.886780 297.464325,659.466125 290.444031,654.885254 
	C287.463623,652.940552 285.484863,652.176086 282.061646,655.086060 
	C274.451721,661.555176 264.758942,663.468811 255.111282,664.990051 
	C246.209137,666.393616 237.232513,666.075989 228.279724,665.946899 
	C224.167221,665.887634 220.000824,665.577148 215.972443,664.795410 
	C211.959564,664.016724 208.799225,662.253052 206.791794,657.849548 
	C200.156448,643.294067 192.974838,628.983704 185.795029,614.683655 
	C184.434067,611.973022 184.852325,611.043823 187.518036,609.771606 
	C220.997162,593.792847 254.389191,577.631409 287.876312,561.669556 
	C292.263672,559.578308 296.798767,557.847717 301.536896,554.774414 
	C294.653687,552.417603 288.529572,550.220520 282.331940,548.255127 
	C280.277496,547.603638 278.166443,547.953247 276.075317,548.936951 
	C255.204041,558.755676 234.304520,568.514709 213.390427,578.242065 
	C180.983643,593.314880 148.570038,608.373108 116.136177,623.387512 
	C105.384293,628.364807 94.473473,633.008179 83.824371,638.192566 
	C80.664085,639.731079 79.514351,638.961121 78.601807,636.144409 
	C78.552605,635.992493 78.404846,635.875488 78.331795,635.727905 
	C74.798386,628.593750 74.948631,628.335938 82.352226,624.891846 
	C101.469170,615.998596 120.543213,607.013184 139.659637,598.118774 
	C168.482376,584.708374 197.319122,571.328003 226.164413,557.966125 
	C243.046997,550.145691 259.982849,542.439453 276.824951,534.533264 
	C279.006958,533.508911 280.801788,533.703125 282.867126,534.396362 
	C293.773987,538.057556 304.751190,541.518921 315.580658,545.394348 
	C318.516266,546.444885 320.842377,546.258606 323.451416,544.913635 
	C326.223969,543.484375 329.096588,542.238831 331.970947,541.020203 
	C335.218292,539.643433 338.084534,538.108948 339.025635,534.190552 
	C339.726257,531.273438 341.032623,530.293213 344.279114,532.474976 
	C352.734375,538.157227 361.538635,543.324829 370.261841,548.601562 
	C374.093781,550.919556 378.471375,551.928589 382.676453,553.347290 
	C389.916199,555.789856 397.121918,558.333313 404.608093,560.228882 
	C389.788696,550.500854 374.964233,540.780579 360.153229,531.039673 
	C356.166290,528.417480 352.255859,525.677429 348.235443,523.108704 
	C346.894470,522.251892 346.153442,521.817505 346.549133,519.734009 
	C347.940063,512.410034 347.718292,512.432373 353.887909,516.449951 
	C371.664001,528.025513 389.468414,539.557739 407.288391,551.065674 
	C409.770996,552.668945 411.716003,554.354370 411.023254,557.742615 
	C410.168549,561.922974 411.982635,564.234741 416.193085,564.998413 
	C418.601898,565.435242 420.926270,566.337769 423.613586,567.019226 
	C432.314148,572.753601 440.241547,572.101746 448.868042,566.748413 
	C459.486877,560.158630 470.763123,554.626770 481.776245,548.676514 
	C482.837830,548.102905 484.487213,546.583435 485.185455,547.989075 
	C487.321594,552.289368 489.686401,549.584106 491.920776,548.523987 
	C507.262573,541.245239 522.588257,533.931763 537.875916,526.540344 
	C539.625916,525.694214 540.992798,525.396362 542.844971,526.377075 
	C556.687683,533.706665 570.578003,540.946838 584.484253,548.155518 
	C588.781494,550.383118 589.648560,549.948669 589.922058,544.910889 
	C590.192688,539.925964 590.486145,534.850891 589.873352,529.926880 
	C588.139465,515.993225 584.882874,502.434906 577.992249,490.001678 
	C577.275269,488.708008 576.595154,487.368652 575.697388,486.205231 
	C573.071411,482.802216 571.478516,480.474365 574.719849,475.438354 
	C578.526611,469.523773 575.860291,462.030518 573.127197,455.518219 
	C572.238586,453.400970 571.203552,451.345215 569.999512,448.753265 
	C576.145630,449.593292 581.122986,452.392059 586.027832,455.080627 
	C594.906799,459.947632 602.853943,465.853638 608.453857,474.706573 
	C616.197083,486.947784 615.765625,505.157410 606.893982,516.599792 
	C605.690369,518.152283 604.578308,519.775818 603.320435,521.508972 
	C614.180237,521.025269 620.964783,511.257782 624.629700,490.638763 
	C629.068420,496.606598 631.519165,502.949371 633.904053,509.245422 
	C638.697327,521.899170 641.016663,535.091431 639.904297,548.575256 
	C638.193054,569.319336 629.557251,586.463379 610.867920,596.870239 
	C599.453857,603.226013 586.848816,604.496460 573.982849,601.478882 
	C573.348206,601.329956 572.716187,601.152161 572.072449,601.068176 
	C571.761902,601.027588 571.426880,601.174133 570.766052,601.300232 
	C571.420593,604.116150 574.074402,604.822266 575.938660,605.880859 
	C589.705566,613.697632 603.293762,612.355957 616.761292,604.811890 
	C623.760803,600.891052 629.813538,595.863342 635.373230,590.155396 
	C636.271667,589.232971 637.025330,587.982910 638.894592,588.088501 
	C635.569641,597.047302 632.594849,606.268005 627.119385,614.427979 
	C611.850769,637.182556 587.989502,646.127136 560.539124,638.676819 
	C547.626831,635.172424 535.983826,629.179810 527.260071,618.444519 
	C529.589111,615.809448 532.909546,615.403748 535.712341,614.248962 
	C552.641663,607.274170 566.599487,596.602844 576.895325,581.459351 
	C580.027161,576.852966 582.226807,571.599792 584.714050,566.573914 
	C585.862854,564.252502 585.408264,562.600525 582.711121,561.225586 
	C569.785828,554.636414 556.968994,547.832947 544.157837,541.022522 
	C541.336609,539.522827 538.875671,540.040100 536.177429,541.345947 
	C522.082214,548.167908 507.902771,554.816650 493.837708,561.699524 
	C491.037323,563.069946 489.576996,562.630676 489.046631,559.662354 
	C488.473083,556.452087 487.110840,556.272461 484.436768,557.771179 
	C473.265015,564.032898 461.997833,570.124329 450.001892,576.696655 
	C455.423248,577.279053 457.063263,580.321960 457.261536,584.597107 
	C467.498627,580.483643 476.406677,574.355225 486.198669,570.002563 
	C487.931885,569.232178 490.548370,566.014893 491.676910,569.974548 
	C492.483429,572.804443 495.476898,576.525024 490.002258,579.142883 
	C480.496857,583.688110 471.357239,588.998108 462.062225,593.983643 
	C459.692017,595.255005 459.146332,601.777649 461.306824,603.362427 
	C462.735107,604.410034 463.795502,603.093201 464.817139,602.557190 
	C474.009186,597.735229 483.143005,592.802307 492.305359,587.923401 
	C493.591858,587.238464 494.939911,586.669128 496.286316,586.033508 
	C498.891968,595.325928 498.880096,595.303711 490.995117,599.508911 
	C482.564178,604.005249 474.318512,608.892273 465.672150,612.922729 
	C461.558350,614.840332 463.634583,617.326782 464.081207,619.433777 
	C466.278137,629.797668 463.184479,629.826477 473.660034,624.628174 
	C482.510956,620.236145 491.092590,615.302246 499.808533,610.636475 
	C500.937714,610.031921 502.157288,609.596130 503.434662,609.038757 
	C503.858765,610.571411 504.153656,611.832275 504.557037,613.057495 
	C505.697662,616.521790 504.891663,618.553162 501.307434,620.458496 
	C476.290527,633.757080 451.436035,647.361145 426.522552,660.854492 
	C426.261627,660.995789 425.906952,660.964111 425.580139,661.015686 
	C425.411041,660.758057 425.172791,660.530151 425.094482,660.256348 
	C422.264526,650.364197 429.911346,647.809326 436.254425,644.342773 
	C441.808136,641.307617 447.954681,639.296265 453.417206,634.677979 
	C443.709320,632.009888 434.761383,626.310913 426.084595,635.109985 
	C425.518402,634.387024 425.186920,634.161011 425.169128,633.912598 
	C424.609222,626.080627 424.617126,626.067810 417.058197,624.110657 
	C413.559845,623.204895 410.046021,622.358826 406.331726,621.434021 
	C406.100189,623.229675 405.875610,624.971558 405.491943,627.947205 
	C388.231354,613.101013 366.879089,610.822998 346.145813,604.978210 
	C344.842133,605.321228 344.232635,605.435120 343.317688,604.584106 
z"/>
<path fill="#2A6595" opacity="1.000000" stroke="none" 
	d="
M468.125854,487.264771 
	C470.746429,496.685425 470.679443,496.557983 462.436859,500.889923 
	C450.338257,507.248383 438.359314,513.834229 426.295013,520.258606 
	C424.649353,521.134888 424.006958,522.191528 423.899048,524.097107 
	C423.761414,526.527893 423.031006,528.925171 422.555084,531.342224 
	C422.442291,531.335815 422.295685,531.316650 422.149689,531.320862 
	C418.804199,531.416382 415.176941,527.913269 412.817474,529.631836 
	C410.449249,531.356873 412.592285,535.869019 411.714539,539.056519 
	C409.087524,539.471252 407.650055,537.447998 405.997772,536.316895 
	C400.298462,532.415039 394.685455,528.357727 389.297028,524.038452 
	C381.570160,517.844666 372.070831,516.051697 363.055756,513.184448 
	C346.635529,507.962006 330.040558,503.291046 313.579865,498.191864 
	C310.377380,497.199768 307.655121,497.323914 304.647491,498.698944 
	C283.241455,508.485565 261.801849,518.199097 240.344833,527.873657 
	C231.948257,531.659485 223.435822,535.190186 215.066803,539.034424 
	C212.044479,540.422729 211.306000,539.955139 210.845459,536.542969 
	C209.683838,527.936523 208.087860,519.376526 206.304718,510.873718 
	C205.796249,508.449127 207.098495,507.938141 208.495834,507.198944 
	C225.101593,498.414459 241.724640,489.662628 258.344208,480.904205 
	C276.718903,471.220795 295.142273,461.627716 313.423859,451.771667 
	C316.527771,450.098267 319.179230,450.054260 322.310822,451.108276 
	C337.102295,456.086639 351.947937,460.904663 366.725647,465.923004 
	C370.279938,467.130005 372.069855,466.348541 371.986755,462.483612 
	C371.924072,459.567383 373.360504,460.029266 375.039795,461.028473 
	C377.863708,462.708710 380.857147,464.185516 383.425934,466.198761 
	C393.651642,474.212738 405.781525,477.819458 417.916351,481.430450 
	C421.636932,482.537598 425.284149,483.508820 424.021759,489.508118 
	C434.249969,484.170349 443.712769,479.243958 453.160919,474.289703 
	C454.761475,473.450409 456.208160,472.216125 457.889832,471.660065 
	C459.764740,471.040161 461.702911,467.882050 463.711456,470.688843 
	C466.187134,474.148468 465.172211,478.145020 461.759338,480.063843 
	C450.994385,486.116150 440.351990,492.422607 429.321899,497.952026 
	C423.790405,500.725006 423.142120,504.452271 424.558502,510.060425 
	C439.038635,502.397430 453.393616,494.800629 468.125854,487.264771 
z"/>
<path fill="#2A6595" opacity="1.000000" stroke="none" 
	d="
M571.594116,726.903687 
	C559.073853,731.748596 547.873840,727.501587 537.202026,722.360596 
	C532.065857,719.886475 528.793152,720.405273 524.035461,723.156433 
	C506.436096,733.333618 484.659515,733.131104 466.958832,718.301697 
	C464.732971,716.436890 463.941803,716.733154 461.923737,718.446106 
	C452.615631,726.347046 441.291016,729.692261 429.578827,731.957520 
	C427.198364,732.417908 425.924164,731.554443 425.961700,728.767517 
	C426.087463,719.438599 426.051300,710.106506 425.976044,700.776489 
	C425.958771,698.634094 426.884399,697.584229 428.730530,696.609924 
	C443.154999,688.997681 457.527954,681.287231 471.890778,673.558777 
	C483.929901,667.080688 495.939270,660.547302 507.951569,654.019531 
	C515.390564,649.976929 524.143555,648.357483 530.154602,641.607239 
	C531.421936,640.184143 533.110291,642.152771 534.447449,642.963196 
	C543.724548,648.585510 553.039185,654.025024 563.601440,657.105713 
	C577.877075,661.269531 591.341370,658.809692 604.400513,652.765930 
	C608.568054,650.837158 612.840149,649.017090 616.594299,646.204712 
	C618.738037,644.598633 620.988770,644.222412 623.806274,645.773438 
	C627.214111,647.649414 631.093323,648.755798 634.869751,649.844238 
	C637.284180,650.540222 637.331787,651.454834 636.164429,653.331543 
	C631.909485,660.172119 627.647583,667.011780 623.589600,673.969177 
	C622.405457,675.999329 620.932373,676.676086 619.200745,675.521301 
	C616.374329,673.636169 614.013489,674.773865 611.391541,675.838928 
	C587.045837,685.729126 562.633057,685.937744 538.248962,676.020508 
	C535.583252,674.936279 533.254700,674.720947 530.705505,676.098877 
	C514.911255,684.636475 499.095276,693.133789 483.285339,701.642395 
	C489.449097,707.619873 497.168884,708.523193 505.698242,704.047546 
	C512.424011,700.518311 518.868042,696.325989 524.179321,691.005554 
	C527.949951,687.228394 530.725403,688.314575 534.000488,690.592407 
	C540.058655,694.805969 546.911804,697.099365 553.916016,698.962952 
	C565.000549,701.912292 576.087891,700.943298 587.103455,698.436584 
	C593.618835,696.953857 600.095764,695.301880 607.281128,693.558350 
	C597.041748,706.979309 584.908997,717.285278 571.594116,726.903687 
z"/>
<path fill="#2A6595" opacity="1.000000" stroke="none" 
	d="
M284.312744,440.304230 
	C269.414886,447.448181 254.796860,454.310120 240.292145,461.403748 
	C237.466232,462.785797 236.788803,462.462982 235.582611,459.449005 
	C232.833145,452.578827 229.306015,446.020416 226.109161,439.328491 
	C223.190659,433.219238 223.225220,433.260864 228.827682,430.031311 
	C252.480957,416.396515 276.100464,402.703125 299.766937,389.091309 
	C311.031647,382.612396 322.431824,376.367004 333.639618,369.792419 
	C336.402069,368.171936 338.511322,369.632721 340.655670,370.405396 
	C360.429291,377.530365 380.137970,384.835205 399.880676,392.046326 
	C405.587036,394.130585 411.341003,396.084625 417.075745,398.090912 
	C419.628815,398.984131 421.397766,400.300354 421.014984,403.477142 
	C419.283386,417.847382 417.595612,432.223511 416.022064,446.611725 
	C415.697357,449.580719 414.021210,449.259827 412.205811,448.584076 
	C388.508240,439.762665 364.826233,430.899445 341.144379,422.035828 
	C338.067810,420.884338 334.956482,419.798889 331.969330,418.444519 
	C329.859955,417.488129 328.470642,418.826935 326.913147,419.579163 
	C312.806000,426.392548 298.722565,433.255066 284.312744,440.304230 
z"/>
<path fill="#2A6595" opacity="1.000000" stroke="none" 
	d="
M412.024780,320.007324 
	C413.859772,321.056854 415.598999,321.493927 414.465485,324.180206 
	C409.485352,335.982300 404.734680,347.881805 399.970428,359.773895 
	C398.904266,362.435150 397.413879,362.092682 395.260193,361.116180 
	C382.528931,355.343567 369.546997,350.081329 357.068756,343.812592 
	C351.565735,341.047974 347.086731,341.071320 341.791931,343.575134 
	C322.892517,352.512177 303.889435,361.230133 284.916473,370.011292 
	C282.980530,370.907257 280.981293,371.666107 279.014557,372.496033 
	C271.524139,375.656891 271.525696,375.657715 268.812927,367.585602 
	C266.196045,359.798828 263.856995,351.901947 260.838593,344.273987 
	C259.356873,340.529388 260.791443,338.795441 263.559143,337.172089 
	C275.043915,330.435669 286.554199,323.742676 298.031189,316.993073 
	C314.752838,307.159180 331.462250,297.304352 348.151703,287.416016 
	C350.001160,286.320251 351.605713,286.069061 353.597870,287.202271 
	C368.184265,295.499695 382.818604,303.712769 397.442047,311.944946 
	C402.175934,314.609863 406.922363,317.252441 412.024780,320.007324 
z"/>
<path fill="#2A6595" opacity="1.000000" stroke="none" 
	d="
M353.933594,66.934464 
	C355.515076,62.602299 357.033539,58.660061 358.551971,54.717827 
	C358.892456,54.729733 359.232971,54.741638 359.573456,54.753544 
	C361.709290,64.497047 363.859253,74.237488 365.977905,83.984734 
	C369.809113,101.610817 373.655396,119.233742 377.432587,136.871429 
	C381.346985,155.149689 385.108459,173.461166 389.129639,191.715652 
	C389.878632,195.115875 389.473114,195.588821 386.298065,194.129730 
	C377.334869,190.010788 367.957397,186.669083 359.372589,181.890350 
	C352.485016,178.056381 347.438141,180.504761 341.681610,183.742661 
	C330.203094,190.199020 318.523376,196.297852 306.911865,202.516571 
	C306.381165,202.800781 305.704926,202.813293 303.858307,203.235306 
	C320.727875,157.391388 337.299225,112.357895 353.933594,66.934464 
z"/>
<path fill="#2A6595" opacity="1.000000" stroke="none" 
	d="
M378.982300,221.996155 
	C385.321930,224.443527 391.282654,226.791489 397.249451,229.123779 
	C399.097382,229.846115 399.967072,230.920761 400.067963,233.149048 
	C400.617889,245.296646 398.451416,257.349213 398.961426,269.487305 
	C399.089294,272.530853 397.492798,271.902222 395.413086,271.245422 
	C383.357727,267.438293 371.232300,263.853485 359.168427,260.072601 
	C355.742126,258.998718 352.501038,258.728149 349.060425,260.042511 
	C332.335144,266.432037 315.530762,272.617310 298.859619,279.143646 
	C295.358948,280.514099 293.616974,280.711151 291.775726,276.732697 
	C288.532928,269.725830 284.592926,263.023285 280.658630,256.362396 
	C278.650665,252.962921 278.767029,251.069321 282.584656,249.016846 
	C302.451263,238.335907 322.446289,227.844254 341.808594,216.300385 
	C349.096649,211.955231 354.904297,211.495804 362.120850,215.396011 
	C367.279144,218.183792 373.087433,219.768921 378.982300,221.996155 
z"/>
<path fill="#2A6595" opacity="1.000000" stroke="none" 
	d="
M142.849854,696.299988 
	C154.686646,691.062622 166.333252,686.115906 177.890320,680.968201 
	C180.528244,679.793213 182.030136,679.871521 183.417938,682.684692 
	C185.133224,686.161804 190.036758,688.851379 189.317734,692.381775 
	C188.673462,695.545227 184.236130,697.816895 181.808090,700.759155 
	C175.077850,708.914673 167.175156,715.974854 160.494141,724.422302 
	C169.878906,720.647705 179.257797,716.858398 188.651993,713.107361 
	C191.549576,711.950378 194.771042,711.336853 197.338104,709.687012 
	C200.619278,707.578247 202.108459,708.862183 203.848755,711.516907 
	C209.887924,720.729187 209.923080,720.654724 199.303452,724.346436 
	C182.697815,730.118896 166.085068,735.873779 149.542496,741.822815 
	C145.639984,743.226196 142.992661,742.890747 141.206696,738.817749 
	C140.493393,737.190979 139.066986,735.891907 138.136734,734.340881 
	C137.278610,732.910095 136.797775,731.600830 138.409088,729.988281 
	C142.268570,726.126160 145.822754,721.960693 149.548874,717.963074 
	C155.090439,712.017761 160.674011,706.111572 166.457687,699.939941 
	C166.530640,699.299316 166.428940,698.896484 166.150146,698.700073 
	C153.524963,704.175293 141.105988,709.394714 128.735352,714.726257 
	C126.559135,715.664185 125.419868,716.091614 123.617180,713.517334 
	C117.155754,704.290161 117.188431,704.623169 124.436852,695.965881 
	C135.853500,682.330139 146.984238,668.452698 158.091232,654.561768 
	C160.499435,651.549988 161.903168,651.827332 163.995636,654.812561 
	C170.863739,664.611023 170.802887,664.430725 162.453812,673.129150 
	C155.695587,680.170105 149.311157,687.569946 142.542618,695.059692 
	C142.469360,695.700684 142.571060,696.103516 142.849854,696.299988 
z"/>
<path fill="#2A6595" opacity="1.000000" stroke="none" 
	d="
M269.798462,676.951172 
	C272.688934,675.627075 275.156921,674.280273 277.709015,673.118225 
	C279.568726,672.271484 281.093811,671.589539 281.109894,668.982971 
	C281.127960,666.052368 282.711670,665.328003 285.432648,666.911255 
	C294.098938,671.953735 302.795929,676.948792 311.593903,681.755615 
	C313.578186,682.839661 314.233978,684.155884 313.952454,686.118408 
	C312.472137,696.437988 312.660858,706.860229 312.079468,717.232239 
	C311.855164,721.234192 311.042450,722.321655 306.730835,721.205139 
	C297.066071,718.702332 289.139496,713.229004 281.231140,707.632751 
	C279.723755,706.566162 279.022827,706.087646 277.080292,707.230713 
	C260.499969,716.986877 246.561966,712.375732 235.304535,698.597900 
	C231.409821,693.831238 227.771896,688.854736 223.196915,682.908508 
	C239.719162,683.471313 255.030548,683.377869 269.798462,676.951172 
z"/>
<path fill="#2A6595" opacity="1.000000" stroke="none" 
	d="
M465.178040,774.087280 
	C459.585571,776.027588 454.061066,776.166443 448.743011,776.699097 
	C442.029755,777.371582 435.288818,778.541809 428.446014,778.068787 
	C425.918304,777.894104 424.906830,777.227905 424.964539,774.597107 
	C425.103241,768.273499 425.033447,761.944763 425.001495,755.618347 
	C424.990662,753.473816 425.760010,752.415894 428.068207,751.959473 
	C439.404388,749.717773 450.130127,745.582458 460.535706,740.671265 
	C462.977905,739.518616 465.123932,739.226074 467.449646,740.209717 
	C476.573944,744.068848 486.134064,746.331055 495.870056,747.824585 
	C501.701050,748.719055 507.322937,746.850342 512.890076,745.482788 
	C516.691162,744.549133 520.424072,743.109009 523.973206,741.439880 
	C528.052002,739.521545 532.070862,738.810791 536.019226,741.146362 
	C538.951111,742.880676 542.746582,740.653687 545.717407,743.905029 
	C521.067078,759.820618 494.222870,769.236023 465.178040,774.087280 
z"/>
<path fill="#2A6595" opacity="1.000000" stroke="none" 
	d="
M490.800232,248.369537 
	C486.360046,256.525360 477.815552,261.355377 467.260834,259.286896 
	C459.207977,257.708740 450.991241,256.874573 442.812500,256.059174 
	C435.496735,255.329819 435.118927,255.432709 436.048035,248.416550 
	C438.549652,229.525650 441.344574,210.673676 443.963928,191.798065 
	C444.190155,190.167908 444.228546,188.740768 446.475830,189.209061 
	C458.205200,191.653214 470.269379,192.071213 481.912781,195.012207 
	C487.952942,196.537888 492.810516,200.193390 493.719269,206.314682 
	C494.718048,213.042480 495.217041,220.461365 487.671722,224.692337 
	C486.053864,225.599548 485.681824,226.371597 487.169769,227.556717 
	C494.364441,233.287308 492.200317,240.716782 490.800232,248.369537 
z"/>
<path fill="#2A6595" opacity="1.000000" stroke="none" 
	d="
M492.296448,798.216003 
	C502.713593,791.281738 513.363953,787.444275 525.571594,792.001099 
	C530.056030,793.675110 533.677979,796.544922 536.514343,800.229858 
	C538.403015,802.683472 539.201965,805.419189 534.540283,806.260498 
	C532.306702,806.663574 530.174622,807.677429 528.027344,808.495667 
	C526.144897,809.212952 525.019653,809.007812 523.459106,807.225708 
	C519.477112,802.678406 514.234558,801.905029 508.554291,803.791504 
	C502.467987,805.812866 498.014923,809.706299 497.127869,816.132019 
	C495.914459,824.921692 498.217285,833.142761 503.237152,840.493408 
	C506.847412,845.779907 515.201233,848.598938 521.398621,846.789368 
	C527.520203,845.002014 532.526428,839.141724 533.026001,833.494446 
	C533.325073,830.114685 532.670044,828.364014 528.900146,830.082581 
	C528.007629,830.489502 527.047363,830.751221 526.111328,831.058716 
	C518.406677,833.589355 518.500183,833.557434 515.973999,825.742493 
	C515.180664,823.288269 515.333984,821.911804 518.032166,821.031067 
	C524.894592,818.790894 531.750061,816.503113 538.488464,813.921631 
	C541.311646,812.840149 542.200134,813.898743 542.989319,816.280090 
	C545.984436,825.317871 549.040527,834.336060 552.169434,843.328308 
	C552.907166,845.448547 554.242493,847.518555 550.645264,848.147583 
	C547.809448,848.643494 544.777710,852.418945 542.240295,847.666077 
	C541.712036,846.676697 541.180054,845.689331 540.452942,844.334290 
	C536.345825,853.492615 529.413696,858.330261 519.978577,860.056885 
	C506.552734,862.513794 496.132416,857.591431 489.178619,846.463196 
	C481.076691,833.497498 478.665314,819.627319 486.288208,805.258484 
	C487.739624,802.522644 490.022522,800.644348 492.296448,798.216003 
z"/>
<path fill="#2A6595" opacity="1.000000" stroke="none" 
	d="
M671.251831,699.078918 
	C681.699158,705.608948 691.775330,712.131287 702.002625,718.407288 
	C704.444702,719.905945 705.226685,720.564697 703.382019,723.506470 
	C697.622620,732.691040 697.896790,732.723022 688.836121,726.977722 
	C674.115295,717.643494 659.334900,708.401794 644.493408,699.260925 
	C642.154419,697.820312 641.689941,696.927612 643.064758,694.249268 
	C646.549500,687.460571 649.895996,683.337708 659.359070,684.520264 
	C670.243713,685.880615 681.507446,686.135193 692.632874,686.002625 
	C694.236572,685.983521 695.840698,686.000000 698.367188,686.000000 
	C694.542664,682.151123 690.428589,680.415100 686.818298,678.015259 
	C680.109985,673.555969 673.308350,669.212463 666.329102,665.196960 
	C663.426270,663.526794 663.269836,662.149475 664.773865,659.431091 
	C669.429260,651.017151 669.433838,650.808472 677.929260,656.012634 
	C692.930664,665.202026 707.741760,674.702820 722.773071,683.842102 
	C726.099182,685.864563 725.964111,687.433777 724.168152,690.471191 
	C720.985229,695.854126 718.402283,699.187622 710.382874,698.490356 
	C697.736755,697.390808 684.883484,696.782776 672.093933,697.061401 
	C671.353821,697.077576 669.631592,695.974670 669.802185,698.120239 
	C669.827209,698.435242 670.540955,698.695496 671.251831,699.078918 
z"/>
<path fill="#2A6595" opacity="1.000000" stroke="none" 
	d="
M447.758209,865.231079 
	C440.034424,853.836792 432.555298,842.715332 425.076172,831.593933 
	C425.544525,837.159241 424.430206,842.531616 425.168579,847.776611 
	C426.229218,855.310181 426.216461,862.908386 427.041992,870.441711 
	C427.472656,874.371704 425.788666,875.133545 422.214844,875.081299 
	C413.074738,874.947754 413.479523,875.087402 412.909332,865.657715 
	C411.914307,849.202209 410.472290,832.770508 408.991089,816.349182 
	C408.382721,809.604492 408.845734,810.024780 415.433289,808.743164 
	C423.507416,807.172363 426.597900,811.372009 430.153931,817.098022 
	C436.724457,827.678101 443.925446,837.866577 451.235870,848.773315 
	C452.485321,846.097961 452.173431,843.758484 451.895294,841.646851 
	C450.794647,833.291199 450.258850,824.905090 450.001038,816.492432 
	C449.985718,815.993347 449.949615,815.488647 450.001434,814.994751 
	C450.286438,812.278870 447.256683,809.130859 449.894897,807.014282 
	C452.884827,804.615479 456.950928,806.376648 460.527374,806.043640 
	C462.143280,805.893250 463.132935,806.649231 462.948334,808.359131 
	C462.638489,811.229614 463.796295,813.904114 463.961914,816.689270 
	C464.697998,829.066528 465.071442,841.472290 466.134979,853.819641 
	C466.561371,858.770264 467.050079,863.690063 466.975647,868.655640 
	C466.959045,869.763000 467.335052,871.466370 465.971954,871.683228 
	C462.081696,872.302368 458.127594,872.848877 454.203888,872.814636 
	C451.548157,872.791504 451.159088,869.607788 449.591553,867.990540 
	C448.920776,867.298462 448.524078,866.340881 447.758209,865.231079 
z"/>
<path fill="#2A6595" opacity="1.000000" stroke="none" 
	d="
M206.158783,287.627319 
	C219.617111,294.784943 229.470901,304.493652 231.744324,319.817932 
	C233.085922,328.861115 228.981461,336.342224 223.346634,343.219635 
	C210.906967,358.402374 190.395050,356.364410 177.925034,345.668335 
	C171.217728,339.915192 165.635895,333.655182 163.098877,325.264099 
	C158.431503,309.826935 167.367493,295.815216 179.697861,288.674255 
	C188.250565,283.721039 196.950989,284.192261 206.158783,287.627319 
z"/>
<path fill="#2A6595" opacity="1.000000" stroke="none" 
	d="
M610.246216,727.254272 
	C621.599609,713.332947 641.477966,714.380432 653.826965,725.065125 
	C663.988464,733.857178 670.802734,743.604248 670.081482,757.669006 
	C669.697815,765.151794 665.644470,770.616211 661.361816,776.017639 
	C654.716187,784.399170 639.971619,788.730591 629.812134,784.966736 
	C615.730225,779.749756 605.638916,770.355164 601.812927,755.394653 
	C599.053833,744.606018 601.673401,735.160522 610.246216,727.254272 
z"/>
<path fill="#2A6595" opacity="1.000000" stroke="none" 
	d="
M662.060120,363.991272 
	C657.660095,365.999420 656.982544,368.098572 659.882080,372.149658 
	C665.039124,379.354828 669.322937,387.178864 674.187134,394.603088 
	C675.840698,397.126984 675.643677,398.481476 673.016113,400.037018 
	C665.044006,404.756439 665.001709,404.892822 660.042847,397.057404 
	C653.096436,386.081451 646.378235,374.960358 639.363037,364.029297 
	C638.152649,362.143372 638.084656,361.605804 640.060486,360.383484 
	C657.120300,349.829437 674.106750,339.156403 691.078003,328.460022 
	C693.446472,326.967224 695.226868,326.931366 696.800049,329.503204 
	C704.092957,341.425659 711.350159,353.371582 718.816528,365.184906 
	C720.400757,367.691315 720.075317,368.757324 717.596924,370.206787 
	C709.808289,374.761841 709.784241,374.911377 704.774597,367.202942 
	C700.922546,361.275757 697.356934,355.163147 693.558472,349.200134 
	C692.265503,347.170319 691.287354,345.606323 688.048035,347.787994 
	C681.191467,352.405853 680.902161,352.067291 684.953796,358.811676 
	C688.254517,364.305878 691.592285,369.781769 695.077148,375.159882 
	C697.023987,378.164520 696.956238,380.039520 693.534973,382.110382 
	C687.004028,386.063629 687.109619,386.313354 682.980652,379.897491 
	C679.243591,374.090637 675.357239,368.360107 671.995300,362.339844 
	C670.315979,359.332520 668.874084,359.304688 666.504944,361.127350 
	C665.200867,362.130585 663.776001,362.976715 662.060120,363.991272 
z"/>
<path fill="#2A6595" opacity="1.000000" stroke="none" 
	d="
M501.060608,252.115326 
	C506.372284,238.254333 511.742249,224.825317 516.829163,211.289932 
	C519.859253,203.227402 519.676270,203.106781 527.403687,205.995316 
	C539.095886,210.365875 550.764343,214.799866 562.436340,219.224380 
	C564.862854,220.144180 565.883789,221.058060 564.522217,224.234909 
	C560.909607,232.664566 561.217834,232.728455 552.772766,229.407471 
	C546.200684,226.823029 539.471863,224.617188 532.991333,221.828171 
	C529.747009,220.431931 528.372681,221.564758 527.340149,224.314896 
	C526.878479,225.544540 526.634827,226.903091 525.957764,227.995956 
	C524.068359,231.045883 525.496765,232.587006 528.265015,233.634903 
	C535.638794,236.426193 542.936707,239.453705 550.429871,241.877167 
	C553.759949,242.954208 553.957397,244.365784 552.929932,247.166901 
	C549.796448,255.710007 549.799438,255.686035 540.965393,252.021179 
	C535.051636,249.567825 529.047241,247.326859 523.038574,245.112549 
	C521.170898,244.424271 519.861877,244.167511 518.760071,247.060471 
	C514.510620,258.218079 514.267761,258.191620 525.100220,262.523438 
	C531.656860,265.145355 538.264893,267.648743 544.917236,270.015991 
	C547.504944,270.936829 547.907959,272.142609 547.035278,274.691681 
	C544.009155,283.530457 544.120056,283.521423 535.488281,280.251526 
	C523.663452,275.772064 511.810089,271.367706 499.972687,266.921265 
	C497.494049,265.990204 495.528809,265.142883 497.549561,261.709625 
	C499.187042,258.927460 499.885071,255.592377 501.060608,252.115326 
z"/>
<path fill="#2A6595" opacity="1.000000" stroke="none" 
	d="
M250.169434,834.044922 
	C243.832458,831.269409 238.627106,827.623840 234.195816,822.760620 
	C229.123810,817.194153 227.446991,807.937744 230.422256,801.058472 
	C231.604645,798.324707 233.071594,797.562439 235.660065,799.264099 
	C237.584137,800.528992 239.510071,801.859741 241.602356,802.781921 
	C243.967255,803.824341 244.536697,805.526794 243.663086,807.585938 
	C241.998856,811.508484 243.583374,814.395142 246.368378,816.817566 
	C250.814331,820.684814 255.412552,824.779602 261.951843,823.002075 
	C267.219513,821.570251 268.399353,817.211365 264.698669,813.280945 
	C259.793121,808.070984 254.587570,803.144775 249.558487,798.049622 
	C242.219437,790.614197 241.633469,784.217834 246.786972,774.497803 
	C249.911652,768.604309 258.996216,763.560181 267.996704,765.841675 
	C279.354126,768.720642 288.364166,774.291992 292.335907,785.881531 
	C293.870392,790.359131 293.311218,795.009460 291.739532,799.478638 
	C290.920532,801.807312 289.624359,802.621643 287.261627,801.099121 
	C284.916656,799.587952 282.427124,798.292908 279.955017,796.990295 
	C278.355408,796.147400 278.337982,795.250549 278.673798,793.429810 
	C280.096619,785.715637 272.000641,777.390808 264.075623,778.004761 
	C261.165710,778.230225 259.675842,780.451904 258.446686,782.432922 
	C257.044739,784.692322 258.586853,786.965088 260.217163,788.646301 
	C265.316193,793.904846 270.546936,799.035522 275.720490,804.221924 
	C281.680603,810.197083 283.037048,816.386902 280.236023,823.389771 
	C277.028381,831.409180 271.460724,835.966125 262.621643,835.988647 
	C258.512024,835.999084 254.307358,836.510010 250.169434,834.044922 
z"/>
<path fill="#2A6595" opacity="1.000000" stroke="none" 
	d="
M314.076599,790.054749 
	C318.253571,791.448792 323.728027,790.794067 325.493164,794.287415 
	C327.105835,797.479004 324.060944,801.733582 323.036285,805.511902 
	C322.779388,806.459229 322.590912,807.426697 322.299652,808.362793 
	C319.372467,817.770813 319.371460,817.756226 328.769958,819.994324 
	C331.639587,820.677734 334.687134,821.035828 337.299530,822.283447 
	C341.784241,824.425171 343.922546,823.679016 344.869019,818.511536 
	C345.809143,813.378784 347.683136,808.422974 348.989471,803.348816 
	C349.561646,801.126343 350.741272,800.428772 352.854797,800.999023 
	C355.856873,801.809021 358.896393,802.504089 361.848175,803.467896 
	C363.606140,804.041870 364.101379,805.074402 363.456665,807.265930 
	C357.812897,826.451172 352.410645,845.707214 346.893219,864.929810 
	C346.231171,867.236450 345.314514,868.271729 342.262604,867.279175 
	C331.538483,863.791931 331.511200,864.008972 334.875641,853.154541 
	C336.329681,848.463623 337.564240,843.705139 338.936218,838.988281 
	C339.617676,836.645569 338.856445,835.561218 336.404510,834.965271 
	C330.841003,833.612915 325.254395,832.218994 319.877228,830.285522 
	C316.434174,829.047546 315.752625,830.692871 315.042480,833.262085 
	C313.077667,840.370605 311.001160,847.448303 309.055511,854.561890 
	C308.743866,855.701294 308.804047,857.247192 307.211456,856.880615 
	C303.230194,855.964355 299.208862,855.032959 295.417328,853.558167 
	C293.397156,852.772461 294.832489,850.424133 295.181976,849.135071 
	C298.055176,838.538025 301.190308,828.011841 304.259796,817.468201 
	C306.504791,809.756714 308.693024,802.027039 311.092987,794.363831 
	C311.574097,792.827454 311.291321,790.564270 314.076599,790.054749 
z"/>
<path fill="#2A6595" opacity="1.000000" stroke="none" 
	d="
M730.445496,531.691284 
	C739.640137,531.973083 748.316650,533.127380 757.025330,533.932007 
	C759.531433,534.163452 760.166992,535.165283 759.996033,537.341187 
	C759.233704,547.045715 758.884399,556.805969 757.564148,566.433411 
	C756.915283,571.165405 757.682800,575.993103 756.108032,580.679199 
	C755.471741,582.572754 754.716980,583.234741 753.078857,582.928223 
	C750.648376,582.473572 748.266846,581.882263 745.753845,581.894165 
	C743.765625,581.903503 743.961731,580.188477 744.039978,578.932129 
	C744.450562,572.343689 744.943054,565.760193 745.442383,559.177673 
	C745.491211,558.533630 745.859802,557.918457 745.947205,557.271973 
	C747.150452,548.373474 744.500610,545.512390 735.601868,546.346436 
	C733.249756,546.566833 733.117065,549.118530 733.183594,550.518372 
	C733.445679,556.033813 731.755798,561.389282 732.068726,566.842163 
	C732.254150,570.073059 730.742981,572.985840 730.922424,576.166016 
	C731.012634,577.764160 729.781555,578.077820 728.539185,577.947693 
	C725.925598,577.674133 723.326538,577.264832 720.718323,576.936646 
	C718.754395,576.689575 718.966370,575.154602 719.038330,573.899414 
	C719.387939,567.798340 719.547241,561.663147 720.386108,555.625122 
	C720.706299,553.320740 720.786011,551.037842 721.013184,548.748047 
	C721.283203,546.027100 720.328369,544.527100 717.423157,545.025085 
	C714.845581,545.466919 712.577637,544.141113 710.100464,543.956421 
	C706.753540,543.706909 705.213135,545.043213 704.996094,548.362976 
	C704.382568,557.750122 703.481262,567.122864 703.090576,576.517883 
	C702.944153,580.039062 701.345642,580.337341 698.696167,579.820190 
	C697.733948,579.632385 696.817322,579.152344 695.853088,579.044006 
	C690.005005,578.386292 689.271545,577.052368 690.048706,571.035461 
	C691.249756,561.736145 692.368469,552.400391 692.851685,543.045471 
	C693.074219,538.737244 694.329346,534.563477 694.062073,530.231384 
	C694.004517,529.299683 694.038330,528.160522 695.590942,528.302612 
	C703.298218,529.007874 711.068970,529.309326 718.690674,530.538208 
	C722.489319,531.150635 726.348083,530.143616 730.445496,531.691284 
z"/>
<path fill="#2A6595" opacity="1.000000" stroke="none" 
	d="
M729.591309,498.683655 
	C738.128601,497.338745 746.257629,496.180084 754.385681,495.015045 
	C757.615112,494.552185 759.590027,495.436768 759.015320,499.201324 
	C758.916260,499.850494 758.958069,500.538635 759.040710,501.195465 
	C760.043762,509.164246 760.101868,509.501709 752.307434,510.723145 
	C739.485962,512.732300 726.630676,514.934570 713.707520,515.744141 
	C704.938049,516.293518 696.875244,513.317932 692.572998,504.202209 
	C688.821655,496.253754 688.053284,487.887573 689.386902,479.532684 
	C691.247559,467.876251 700.389038,463.806885 710.577759,462.148804 
	C723.711365,460.011536 736.987976,458.760498 750.137268,456.706940 
	C752.700195,456.306702 752.486755,457.066498 753.177002,458.795410 
	C754.439270,461.957001 753.759827,465.304138 754.819885,468.500000 
	C755.782654,471.402771 752.504578,471.500000 750.966125,471.781097 
	C745.474670,472.784424 739.876648,473.184784 734.351746,474.028687 
	C726.088928,475.290802 717.667847,475.753448 709.609253,478.063904 
	C702.476685,480.108826 700.074524,485.376007 702.128479,493.133240 
	C703.553955,498.516846 709.912537,501.752350 715.966919,500.568970 
	C720.316833,499.718719 724.773560,499.414917 729.591309,498.683655 
z"/>
<path fill="#2A6595" opacity="1.000000" stroke="none" 
	d="
M216.780792,737.748779 
	C226.547150,732.737000 226.460068,732.835327 235.149048,740.530945 
	C237.522888,742.633423 237.971802,744.607422 236.876953,747.338989 
	C228.939301,767.142761 220.932983,786.920105 213.205795,806.805847 
	C212.111145,809.622925 211.432098,808.902710 210.009232,807.505859 
	C209.534134,807.039429 209.144241,806.419312 208.582153,806.118347 
	C200.868805,801.988770 198.923920,796.387390 204.086563,788.906189 
	C205.657425,786.629883 204.745377,784.925232 202.866333,783.354980 
	C198.440384,779.656433 194.005264,775.965271 189.691086,772.138916 
	C188.414291,771.006470 187.426773,771.088501 186.199203,771.937195 
	C185.935150,772.119629 185.577820,772.161011 185.291779,772.318665 
	C182.030304,774.116211 178.659470,777.515381 175.548386,777.291016 
	C172.288330,777.055847 170.320755,772.194763 166.913788,770.249573 
	C164.827393,769.058289 164.308609,767.459167 167.134155,765.907349 
	C173.903564,762.189392 180.508255,758.172913 187.232803,754.371460 
	C196.965347,748.869446 206.745010,743.450745 216.780792,737.748779 
z"/>
<path fill="#2A6595" opacity="1.000000" stroke="none" 
	d="
M128.896667,522.013062 
	C151.440399,527.011475 156.991257,553.586121 144.404373,569.932800 
	C138.817276,577.188782 130.297318,579.693604 121.785706,580.731812 
	C113.123306,581.788391 104.436394,581.319153 96.162643,577.153076 
	C85.080811,571.572998 79.767082,557.067627 81.574463,545.669373 
	C83.262314,535.024902 88.081749,527.291565 98.646225,523.665039 
	C102.278168,522.418274 104.087425,523.138977 104.004379,527.200134 
	C103.953323,529.697144 103.825661,532.211121 104.045914,534.689575 
	C104.241798,536.893799 103.336555,538.177002 101.430351,538.854309 
	C95.128807,541.093384 93.807350,546.272522 94.098679,551.987061 
	C94.398933,557.876648 99.052170,563.355530 104.897064,564.816528 
	C113.425812,566.948425 121.865173,566.758179 129.891586,562.580505 
	C135.432709,559.696411 138.297256,555.002075 137.891190,548.908691 
	C137.496719,542.989807 134.141556,538.717346 128.297897,537.038086 
	C125.094574,536.117432 124.505432,533.698364 124.085136,531.136047 
	C123.792290,529.350708 124.227150,527.448853 123.956573,525.656433 
	C123.353813,521.663757 125.046524,520.823059 128.896667,522.013062 
z"/>
<path fill="#2A6595" opacity="1.000000" stroke="none" 
	d="
M258.680420,238.325348 
	C261.169159,241.489807 261.003357,243.330750 257.423798,245.407867 
	C250.328857,249.524857 243.613449,254.295425 236.735413,258.787079 
	C234.830887,260.030853 233.812531,260.845245 235.645050,263.545074 
	C241.510773,272.187103 241.304703,272.328461 250.185593,266.416901 
	C254.290451,263.684479 258.357483,260.893158 262.511200,258.237274 
	C264.287354,257.101562 265.571106,256.760620 267.223846,259.270966 
	C272.382324,267.106232 272.590607,266.971039 264.832825,272.049377 
	C260.571045,274.839172 256.414612,277.813354 252.004059,280.344330 
	C249.018845,282.057404 248.346664,283.350067 250.612289,286.425629 
	C254.500122,291.703339 257.756958,297.441742 261.406555,302.901276 
	C262.774445,304.947540 262.579926,306.292053 260.583557,307.773651 
	C251.261597,314.692047 251.211761,314.745392 245.123688,305.366333 
	C235.555435,290.625824 226.128967,275.792175 216.425674,261.141541 
	C214.821808,258.719910 214.848999,257.686554 217.268555,256.143738 
	C228.764923,248.813248 240.126312,241.270966 251.628708,233.950104 
	C256.241180,231.014435 256.265045,236.518066 258.680420,238.325348 
z"/>
<path fill="#2A6595" opacity="1.000000" stroke="none" 
	d="
M683.274292,419.236328 
	C691.031982,412.815399 698.548645,406.666534 706.021973,400.465363 
	C712.361511,395.205017 718.631226,389.860504 724.973206,384.603119 
	C727.234375,382.728668 728.955933,382.918976 729.601624,386.154907 
	C729.762146,386.959259 729.970398,387.766296 730.266357,388.529572 
	C733.837830,397.740997 733.817688,397.704224 725.745789,403.643219 
	C715.720276,411.019653 705.742249,418.460663 694.872070,426.519989 
	C702.043823,427.846436 708.106506,425.701202 714.216553,425.704773 
	C720.104553,425.708191 725.991455,424.594543 731.883179,424.016113 
	C733.037659,423.902802 734.213928,424.033356 735.376953,423.980988 
	C738.128113,423.857178 741.708252,421.383514 743.398743,423.601532 
	C745.901978,426.885895 746.906128,431.309235 748.571716,435.237823 
	C749.022583,436.301422 748.543152,436.731018 747.581482,436.953949 
	C746.150269,437.285767 744.729614,437.924561 743.296936,437.946655 
	C732.523376,438.112762 721.759583,438.373962 710.988708,438.782928 
	C701.722961,439.134674 692.471802,439.921448 683.192566,440.072479 
	C679.835510,440.127167 678.623230,438.592773 676.895630,435.908569 
	C671.351746,427.294434 677.735352,423.724213 683.274292,419.236328 
z"/>
<path fill="#2A6595" opacity="1.000000" stroke="none" 
	d="
M639.298157,588.197998 
	C637.633728,582.891296 642.455322,580.489441 644.688416,577.083801 
	C646.470825,574.365295 648.861755,577.054077 650.766357,577.972778 
	C673.464355,588.922119 696.107727,599.984619 718.812744,610.919373 
	C729.185913,615.915161 739.658752,620.704102 750.097656,625.562805 
	C752.062805,626.477478 753.420593,627.264526 752.166870,629.985657 
	C750.668762,633.237305 750.785583,638.393494 748.450989,639.784607 
	C745.930359,641.286560 742.194519,637.503967 739.029053,635.975098 
	C714.704590,624.226807 690.431824,612.371521 666.123962,600.588684 
	C657.390442,596.355225 648.604797,592.229248 639.510864,588.066040 
	C639.178772,588.077759 639.254395,588.162048 639.298157,588.197998 
z"/>
<path fill="#2A6595" opacity="1.000000" stroke="none" 
	d="
M359.530792,701.992737 
	C361.310974,702.035583 362.831299,701.619995 363.133423,700.359375 
	C363.474396,698.936707 361.586365,698.862122 360.713593,698.283386 
	C355.241547,694.655029 349.642548,691.218933 344.128021,687.653625 
	C341.499084,685.953918 339.775909,679.972839 341.121429,677.243347 
	C342.344757,674.761658 343.867615,676.965576 344.695923,677.464111 
	C354.259918,683.221741 363.717560,689.156311 373.192383,695.061646 
	C379.882751,699.231506 386.551575,703.435913 393.238434,707.611450 
	C399.124084,711.286621 400.328369,713.830017 398.637085,720.479065 
	C398.173309,722.302246 398.034698,724.053284 398.008484,725.863037 
	C397.919830,731.986328 397.548737,732.227051 391.805939,729.360046 
	C385.323822,726.124207 378.648041,723.237793 372.587494,719.220154 
	C369.213837,716.983704 366.134796,716.962219 362.577881,719.055481 
	C357.338837,722.138855 351.873260,724.855774 345.966736,726.529175 
	C341.045715,727.923401 340.024414,727.231384 340.008820,722.253113 
	C339.980713,713.274414 340.000854,704.295593 340.000854,694.283691 
	C346.311554,698.148743 352.092468,701.862549 359.530792,701.992737 
z"/>
<path fill="#2A6595" opacity="1.000000" stroke="none" 
	d="
M350.670685,769.324890 
	C337.996063,765.569214 337.994904,765.569214 338.001465,753.114258 
	C338.002350,751.448730 337.974091,749.781006 338.052521,748.118591 
	C338.097290,747.169861 338.073425,746.139221 339.658173,746.368103 
	C349.018097,747.719788 357.532562,744.925476 365.621826,740.644775 
	C368.303741,739.225525 370.204498,739.343140 372.720856,741.076782 
	C378.913086,745.343140 386.183228,747.175476 393.374146,748.809753 
	C396.461700,749.511414 396.957275,750.883362 397.042877,753.529358 
	C397.257965,760.177124 396.543793,766.753967 396.048462,773.358948 
	C395.803192,776.629456 393.662109,775.892334 391.808197,775.989502 
	C377.757080,776.725830 364.333801,773.481384 350.670685,769.324890 
z"/>
<path fill="#2A6595" opacity="1.000000" stroke="none" 
	d="
M124.299789,361.308075 
	C125.021118,359.611176 125.490303,358.211395 126.089310,356.869568 
	C126.344482,356.297913 126.871078,355.847443 127.714134,354.790558 
	C132.924789,361.671814 137.969559,368.307587 142.984467,374.965820 
	C146.441147,379.555237 149.893646,384.148651 153.280396,388.789612 
	C157.001511,393.888794 162.843155,395.650513 168.204727,397.841095 
	C179.110504,402.296783 179.730408,404.056793 173.064026,414.034424 
	C171.435516,416.471771 169.768097,415.180634 168.451279,414.649261 
	C164.945938,413.234833 161.505096,411.558411 158.265137,409.609589 
	C151.482529,405.529816 144.052948,405.389221 136.647003,406.146393 
	C128.275101,407.002289 119.907448,407.683411 111.503853,407.997528 
	C110.672997,408.028595 109.840393,408.027191 109.008759,408.020538 
	C107.108757,408.005310 104.750938,410.299530 103.508339,408.306946 
	C102.289551,406.352478 104.398407,404.051971 105.014023,401.889587 
	C107.077896,394.640076 111.463432,391.859161 119.192238,392.832031 
	C125.683685,393.649170 132.359711,393.000000 139.973526,393.000000 
	C135.126587,387.226929 131.123047,382.079803 126.719093,377.301697 
	C120.105286,370.126129 119.985954,370.236115 124.299789,361.308075 
z"/>
<path fill="#2A6595" opacity="1.000000" stroke="none" 
	d="
M598.211426,823.257935 
	C591.198242,826.910645 591.085754,826.981628 586.885254,820.326416 
	C579.522339,808.660706 572.251831,796.935242 565.088196,785.146301 
	C563.588440,782.678223 562.275696,781.797485 559.752075,783.723328 
	C557.931580,785.112610 555.934570,786.280457 553.966858,787.465088 
	C543.978210,793.478760 547.667297,792.805298 541.356384,784.682617 
	C539.798950,782.678162 539.922363,780.808411 542.289795,779.336182 
	C555.818176,770.923401 569.326538,762.478516 582.850525,754.058655 
	C584.649780,752.938416 585.730469,753.072388 587.168396,755.182129 
	C592.555847,763.086426 592.703918,762.994324 585.039490,767.984192 
	C582.152161,769.864075 577.845825,771.104309 576.710510,773.728333 
	C575.419373,776.712219 579.504089,779.563416 581.239502,782.432312 
	C587.445129,792.691162 593.932251,802.780762 600.372681,812.896301 
	C604.394348,819.212830 604.442505,819.182190 598.211426,823.257935 
z"/>
<path fill="#2A6595" opacity="1.000000" stroke="none" 
	d="
M107.008148,437.872833 
	C106.496849,440.112854 105.472885,441.439026 108.864090,442.229034 
	C124.183311,445.797821 139.342514,450.049713 154.642258,453.708954 
	C157.867157,454.480255 158.281403,455.266602 157.162567,458.208771 
	C155.892914,461.547546 156.316666,466.764801 154.108170,468.156433 
	C152.001740,469.483765 147.455795,466.937317 143.981598,466.096771 
	C131.230453,463.011780 118.426163,460.123932 105.764297,456.708069 
	C102.542030,455.838776 102.299034,456.694092 101.756317,459.331451 
	C100.835510,463.806183 99.267265,468.143860 98.188446,472.591827 
	C97.736198,474.456421 97.361900,474.796356 95.285561,474.269592 
	C84.742737,471.594757 84.834412,473.189728 87.714355,462.438385 
	C91.023071,450.086334 94.097237,437.663452 96.891838,425.185883 
	C97.912094,420.630585 99.485847,418.662018 104.147865,420.884796 
	C105.307480,421.437683 106.670662,421.857880 107.933846,421.841553 
	C111.125748,421.800232 110.754684,423.323181 110.080658,425.567108 
	C108.903717,429.485382 108.031532,433.495148 107.008148,437.872833 
z"/>
<path fill="#2A6595" opacity="1.000000" stroke="none" 
	d="
M640.311401,344.874268 
	C640.453552,346.944336 633.601135,354.893707 632.092468,354.751984 
	C631.381897,354.685211 630.554504,354.100372 630.083496,353.508759 
	C622.082214,343.459198 612.300842,335.134033 603.373596,325.985962 
	C600.048035,322.578094 599.535461,320.191040 603.538330,316.847046 
	C618.325317,304.494049 630.790405,289.675995 645.337891,277.043213 
	C647.092224,275.519745 647.955750,275.283295 649.626648,277.041779 
	C659.577576,287.514191 659.329468,284.020966 650.064758,293.349335 
	C641.059021,302.417023 631.745728,311.182220 622.462280,319.969147 
	C620.250183,322.062897 619.893738,323.292633 622.198120,325.897766 
	C627.922668,332.369537 634.043640,338.434418 640.311401,344.874268 
z"/>
<path fill="#2A6595" opacity="1.000000" stroke="none" 
	d="
M576.999146,254.003418 
	C580.651550,248.305145 584.558594,243.151886 587.620667,237.537735 
	C589.619385,233.873337 591.674255,234.259338 594.202576,236.097275 
	C604.258789,243.407562 603.900024,239.686447 597.395081,250.110397 
	C590.692200,260.851379 583.635742,271.375000 576.583252,281.892670 
	C574.227661,285.405609 574.158325,287.613739 578.296265,289.971771 
	C584.572266,293.548279 590.289124,298.105103 596.560364,301.691315 
	C600.229492,303.789459 599.894165,305.689819 598.120850,308.729950 
	C594.126648,315.577515 593.904053,315.866272 587.649170,311.831360 
	C577.280640,305.142853 567.138611,298.101807 556.733337,291.472687 
	C554.467529,290.029144 554.167786,289.068146 555.548767,286.973541 
	C562.701172,276.124329 569.786438,265.230835 576.999146,254.003418 
z"/>
<path fill="#2A6595" opacity="1.000000" stroke="none" 
	d="
M383.049957,806.003662 
	C385.932800,806.348328 388.364105,806.834656 390.817078,807.000427 
	C393.483612,807.180786 393.075470,809.104065 392.956543,810.626953 
	C392.314636,818.846008 391.642365,827.065186 390.794037,835.264954 
	C389.982086,843.112854 388.901215,850.932556 388.019073,858.773743 
	C387.576874,862.704285 387.283417,866.652649 386.987183,870.597778 
	C386.890076,871.890930 386.621307,872.769653 385.081787,872.972595 
	C381.042755,873.505188 377.260742,871.766296 373.268280,871.765991 
	C371.708527,871.765869 371.943848,870.027832 372.066803,868.958496 
	C373.644653,855.239380 375.400696,841.539673 376.851654,827.807495 
	C377.525848,821.426880 377.876923,815.021729 378.852631,808.659912 
	C379.265381,805.968689 380.696106,805.946045 383.049957,806.003662 
z"/>
<path fill="#2A6595" opacity="1.000000" stroke="none" 
	d="
M131.731964,507.021301 
	C116.269348,506.236237 101.344681,504.683044 86.414467,503.135468 
	C83.417244,502.824738 83.008186,501.663208 82.951576,499.117859 
	C82.725235,488.941010 84.714897,487.511108 95.011795,489.020966 
	C104.618355,490.429657 114.338387,491.078949 124.015541,491.987122 
	C131.900223,492.727051 139.792175,493.397186 147.688354,494.000946 
	C149.419128,494.133331 150.044373,494.905975 149.976562,496.502655 
	C149.941254,497.334076 150.178391,498.298096 149.838852,498.974548 
	C148.406433,501.828033 150.044693,505.283203 148.665359,507.728302 
	C146.797272,511.039825 143.704819,507.335724 141.011124,507.870941 
	C138.146332,508.440125 135.048203,508.240448 131.731964,507.021301 
z"/>
<path fill="#2A6595" opacity="1.000000" stroke="none" 
	d="
M453.019958,669.995789 
	C444.113617,674.717285 435.569183,679.344604 427.008606,683.941772 
	C426.598328,684.162231 426.045532,684.117249 425.556458,684.196289 
	C424.438416,674.942078 425.326172,673.623047 432.124481,669.974365 
	C450.270691,660.235413 468.433258,650.526733 486.560211,640.752075 
	C492.792511,637.391296 499.038055,634.033997 505.081726,630.353516 
	C508.077606,628.529053 508.884491,629.820618 509.721741,632.368042 
	C510.920044,636.013672 511.296387,638.736572 506.801697,640.918701 
	C498.372406,645.011108 490.345032,649.925903 482.105774,654.416687 
	C472.555145,659.622375 462.956482,664.739868 453.019958,669.995789 
z"/>
<path fill="#2A6595" opacity="1.000000" stroke="none" 
	d="
M346.068573,604.876587 
	C345.391937,607.891541 348.450714,607.933289 349.804718,608.794861 
	C367.391174,619.985229 385.129883,630.936218 402.825165,641.955688 
	C404.565613,643.039490 406.194092,651.801880 404.695312,652.811462 
	C403.030853,653.932739 401.542572,652.369690 400.281403,651.574280 
	C392.226471,646.494202 384.306793,641.200073 376.264313,636.099854 
	C367.119965,630.300903 358.085602,624.286499 348.635437,619.026855 
	C342.383331,615.547180 340.842651,610.865295 342.685181,604.234741 
	C343.045685,604.013428 342.973175,603.976624 342.937012,603.958008 
	C343.626770,604.748474 344.654785,604.378174 345.815491,604.812866 
	C346.102997,605.013306 346.078796,604.922485 346.068573,604.876587 
z"/>
<path fill="#2A6595" opacity="1.000000" stroke="none" 
	d="
M364.235229,652.761841 
	C356.990204,648.186890 350.014954,643.863281 343.051361,639.521057 
	C341.415680,638.501160 339.915924,630.182129 341.296600,629.170593 
	C342.800385,628.068848 344.188477,629.477844 345.299072,630.160400 
	C353.132904,634.975708 360.836212,640.002625 368.637573,644.871643 
	C379.494141,651.647461 390.399719,658.344666 401.284729,665.074829 
	C402.759949,665.987061 403.930389,674.372498 402.592102,675.450989 
	C400.993835,676.738892 399.964630,675.156860 398.749725,674.394714 
	C387.349884,667.243469 375.926117,660.130432 364.235229,652.761841 
z"/>
<path fill="#2A6595" opacity="1.000000" stroke="none" 
	d="
M341.000519,659.040466 
	C341.246613,657.210754 340.272400,655.330566 341.721680,654.488892 
	C342.862396,653.826416 344.129181,655.092529 345.226440,655.767639 
	C363.290741,666.882080 381.349915,678.004883 399.411255,689.124084 
	C401.511169,690.416931 403.294250,698.564575 401.720795,700.225098 
	C400.411896,701.606384 399.187866,700.119019 398.268738,699.554871 
	C387.479034,692.931885 376.761505,686.191162 366.030701,679.472290 
	C358.784180,674.934998 351.628479,670.244263 344.262451,665.910767 
	C341.544922,664.312012 340.554291,662.392212 341.000519,659.040466 
z"/>
<path fill="#2A6595" opacity="1.000000" stroke="none" 
	d="
M424.045715,567.112793 
	C424.398987,563.718140 424.819580,560.291077 424.993774,556.851501 
	C425.071991,555.306885 426.143311,554.967896 427.112061,554.442566 
	C443.007599,545.822205 458.901215,537.198120 474.836670,528.652100 
	C476.350647,527.840149 478.793671,525.566650 479.597076,528.694824 
	C480.276917,531.342041 484.671021,534.520081 479.276367,537.388550 
	C464.037201,545.491516 448.921936,553.827393 433.755432,562.067078 
	C430.731659,563.709839 427.697113,565.332764 424.303040,566.986328 
	C423.938568,567.007812 424.012604,567.075195 424.045715,567.112793 
z"/>
<path fill="#2A6595" opacity="1.000000" stroke="none" 
	d="
M462.333679,512.293213 
	C465.026093,510.946045 467.361908,509.707916 469.784607,508.673309 
	C471.376343,507.993652 473.511597,505.569183 474.636780,508.651520 
	C475.635406,511.387207 478.194427,514.742554 473.594360,517.194763 
	C461.980499,523.385864 450.507721,529.842712 438.864685,535.977295 
	C434.537201,538.257385 430.641083,541.419617 425.803314,542.759094 
	C423.491394,533.571594 424.002258,532.631104 431.942871,528.502136 
	C442.018005,523.263245 451.994812,517.835144 462.333679,512.293213 
z"/>
<path fill="#2A6595" opacity="1.000000" stroke="none" 
	d="
M416.986847,472.442505 
	C416.828552,475.590973 415.714081,474.759552 414.187286,473.756042 
	C402.930878,466.357697 391.576050,459.108124 380.365479,451.641632 
	C376.698059,449.199036 379.005280,445.712494 380.259857,443.323517 
	C381.711731,440.558838 383.444580,443.474609 384.826080,444.342072 
	C393.590332,449.845306 402.142670,455.706085 411.085022,460.897461 
	C415.701385,463.577454 417.930939,466.772308 416.986847,472.442505 
z"/>
<path fill="#2A6595" opacity="1.000000" stroke="none" 
	d="
M435.690094,472.696045 
	C431.562347,474.310089 428.667145,477.690491 424.440521,478.235962 
	C424.294067,477.887329 424.188690,477.743378 424.176361,477.591858 
	C423.380859,467.803864 423.407471,467.854706 432.066742,463.438751 
	C439.402130,459.697906 446.627899,455.739594 454.007263,452.089996 
	C455.160706,451.519531 457.104706,448.777618 458.200623,451.845551 
	C459.161804,454.536377 462.507446,457.835449 458.069397,460.380646 
	C450.792236,464.554138 443.367828,468.470886 435.690094,472.696045 
z"/>
<path fill="#2A6595" opacity="1.000000" stroke="none" 
	d="
M309.998749,748.680786 
	C310.342957,752.591980 309.333008,753.813110 305.853180,751.980469 
	C295.939819,746.760010 286.519562,740.737915 277.202484,734.549072 
	C276.450745,734.049744 274.551727,732.887878 275.828430,732.039124 
	C277.861816,730.687256 279.794586,727.798706 282.785919,729.346130 
	C286.424591,731.228577 289.683929,733.870850 293.375610,735.617493 
	C297.777863,737.700378 302.414612,739.523499 307.505920,738.263550 
	C309.296387,737.820435 309.974731,738.526184 309.973206,740.233582 
	C309.970856,742.899170 309.989655,745.564758 309.998749,748.680786 
z"/>
<path fill="#2A6595" opacity="1.000000" stroke="none" 
	d="
M452.296478,442.307159 
	C442.657166,446.860931 434.221771,452.955719 424.388916,457.044220 
	C423.527435,450.924622 422.984436,445.981903 430.068726,443.150818 
	C436.886902,440.426025 443.162720,436.328583 449.630188,432.749969 
	C451.994904,431.441467 453.113708,432.072083 453.018433,434.669800 
	C452.927551,437.147369 457.396454,439.899963 452.296478,442.307159 
z"/>
<path fill="#2A6595" opacity="1.000000" stroke="none" 
	d="
M435.320068,420.300415 
	C438.449738,418.726471 441.230133,417.286774 444.082672,416.008118 
	C445.279541,415.471588 447.206024,413.482208 447.789490,415.647491 
	C448.517700,418.349854 452.202240,421.710693 448.216248,424.214508 
	C441.827911,428.227417 435.014252,431.558929 428.430328,435.267151 
	C426.110962,436.573486 425.493927,436.537201 424.854095,433.447510 
	C423.052795,424.749359 429.426788,423.071014 435.320068,420.300415 
z"/>
<path fill="#2A6595" opacity="1.000000" stroke="none" 
	d="
M309.642090,643.301819 
	C306.109283,641.164124 302.980560,639.032898 299.631775,637.335876 
	C294.479675,634.725220 297.759399,631.393250 298.936035,628.615845 
	C300.513855,624.891296 302.415833,628.186035 303.882782,629.031616 
	C307.424469,631.072998 310.559509,634.008850 314.293091,635.484619 
	C320.055695,637.762390 317.570099,642.229797 317.816467,645.940735 
	C317.907806,647.316040 316.737946,647.798096 315.362396,646.874573 
	C313.598083,645.690125 311.756073,644.621399 309.642090,643.301819 
z"/>
<path fill="#2A6595" opacity="1.000000" stroke="none" 
	d="
M434.657166,399.711975 
	C435.423340,399.315063 435.856262,398.979889 436.319916,398.930023 
	C438.360840,398.710602 440.100494,394.693604 442.289215,397.925140 
	C445.310394,402.385803 444.439911,404.953979 440.292664,407.370789 
	C435.625916,410.090271 430.955872,412.765320 425.934235,414.821075 
	C423.220795,406.103912 423.875549,404.957733 434.657166,399.711975 
z"/>
<path fill="#2A6595" opacity="1.000000" stroke="none" 
	d="
M425.067688,375.819092 
	C422.293488,374.139343 419.936798,372.372986 417.459015,370.796997 
	C415.598724,369.613770 415.468781,368.171356 415.999054,366.220276 
	C417.525024,360.605682 418.145874,360.148163 422.835938,363.599945 
	C425.095734,365.263092 426.596527,364.579407 428.642395,363.801331 
	C429.945068,363.305908 431.919586,360.356842 432.757690,363.477509 
	C433.477600,366.157990 437.517059,369.573395 432.440704,372.213715 
	C430.110870,373.425476 427.769409,374.614746 425.067688,375.819092 
z"/>
<path fill="#2A6595" opacity="1.000000" stroke="none" 
	d="
M438.014771,381.286194 
	C439.809662,385.587891 439.456238,388.490173 434.788849,390.142273 
	C431.609131,391.267761 428.677582,393.094391 425.253479,394.797272 
	C425.139557,392.938385 425.025818,391.807861 425.008423,390.675903 
	C424.918274,384.801361 430.389618,378.868256 436.186249,378.588440 
	C437.760864,378.512421 437.924713,379.709747 438.014771,381.286194 
z"/>
<path fill="#2A6595" opacity="1.000000" stroke="none" 
	d="
M413.153229,377.708405 
	C413.985504,378.311768 414.513092,378.707031 415.088745,379.011597 
	C423.608887,383.520203 423.610413,383.517334 422.665436,393.873016 
	C417.554962,391.796173 413.576599,388.163177 409.123260,385.385162 
	C406.763794,383.913330 409.157043,381.826294 409.546967,380.119965 
	C409.873077,378.692749 409.913971,375.983307 413.153229,377.708405 
z"/>
<path fill="#2A6595" opacity="1.000000" stroke="none" 
	d="
M427.748413,343.495667 
	C428.507568,346.044800 429.120758,348.232605 429.716309,350.425201 
	C430.234406,352.332733 430.075012,353.873230 428.057404,355.009125 
	C425.522675,356.436218 423.672302,355.857239 421.361115,354.232819 
	C418.832886,352.455902 420.586700,351.025970 421.184204,349.635651 
	C422.531799,346.499847 424.175507,343.491333 425.743591,340.340973 
	C427.713440,340.260498 426.529541,342.510315 427.748413,343.495667 
z"/>
<path fill="#000000" opacity="1.000000" stroke="none" 
	d="
M345.912598,604.707031 
	C344.994537,606.151794 344.250305,604.705627 343.107605,604.279846 
	C343.841339,604.093201 344.781769,604.246948 345.912598,604.707031 
z"/>
<path fill="#000000" opacity="1.000000" stroke="none" 
	d="
M464.319824,688.299683 
	C479.959015,679.773438 495.293945,671.470337 510.590118,663.096558 
	C513.571472,661.464417 515.312683,661.054565 517.125732,665.065491 
	C519.496521,670.310303 518.373169,672.512390 513.295288,675.095886 
	C497.316315,683.225708 481.498444,691.713440 465.968536,700.670044 
	C455.691101,706.597412 444.778259,705.975647 433.330841,705.071411 
	C443.554565,699.546936 453.778290,694.022522 464.319824,688.299683 
z"/>
<path fill="#000000" opacity="1.000000" stroke="none" 
	d="
M166.114502,699.111206 
	C166.206070,698.259155 166.679398,697.969910 167.341614,698.309998 
	C167.409042,698.344666 167.169083,698.977722 166.873718,699.512207 
	C166.550949,699.562317 166.426224,699.433411 166.114502,699.111206 
z"/>
<path fill="#000000" opacity="1.000000" stroke="none" 
	d="
M142.885498,695.888794 
	C142.793930,696.740845 142.320648,697.030090 141.658371,696.690002 
	C141.591003,696.655334 141.830948,696.022278 142.126282,695.487793 
	C142.449051,695.437683 142.573776,695.566589 142.885498,695.888794 
z"/>
<path fill="#000000" opacity="1.000000" stroke="none" 
	d="
M457.023560,229.007904 
	C461.651978,229.679047 465.848267,230.317322 470.032806,231.024948 
	C474.829041,231.836014 478.141663,234.927429 477.961975,238.341293 
	C477.705933,243.206589 473.572998,247.262314 468.562439,246.925171 
	C463.350891,246.574493 458.181274,245.616882 452.987854,244.968445 
	C451.862000,244.827866 451.006866,244.438675 451.075287,243.200623 
	C451.319153,238.787918 451.803345,234.397827 453.162323,230.170731 
	C453.722992,228.426926 455.384766,229.236633 457.023560,229.007904 
z"/>
<path fill="#000000" opacity="1.000000" stroke="none" 
	d="
M455.907654,208.873917 
	C455.336029,204.684738 456.790283,203.182495 460.625183,203.984467 
	C465.715271,205.048935 471.023834,204.919128 475.946320,206.961731 
	C478.944458,208.205826 480.428406,210.284225 479.919861,213.468597 
	C479.391876,216.774963 477.323578,218.775864 473.937347,218.951614 
	C467.985413,219.260483 462.100616,217.996185 456.465729,216.587143 
	C453.394348,215.819107 455.051453,211.891678 455.907654,208.873917 
z"/>
<path fill="#000000" opacity="1.000000" stroke="none" 
	d="
M216.775940,318.591980 
	C219.125793,326.665253 216.759506,332.826996 210.296478,337.267456 
	C203.416397,341.994446 196.672089,340.741699 190.234665,336.070770 
	C184.480179,331.895416 179.413620,327.247009 176.910583,320.228943 
	C174.246567,312.759491 177.361008,307.478088 182.691681,302.827484 
	C187.358444,298.756073 192.446457,298.022644 198.184021,300.597900 
	C206.456863,304.311066 212.721436,310.005127 216.775940,318.591980 
z"/>
<path fill="#000000" opacity="1.000000" stroke="none" 
	d="
M649.779541,742.281128 
	C660.562195,754.278870 656.411499,766.297180 645.636719,771.111450 
	C642.164612,772.662781 638.374023,772.672485 635.001160,771.356873 
	C627.583435,768.463440 621.702087,763.546204 617.817871,756.438599 
	C613.249146,748.078369 614.256165,740.128967 620.583435,734.948120 
	C627.642883,729.167908 636.304810,729.670349 643.854492,736.388794 
	C645.842896,738.158264 647.642639,740.139648 649.779541,742.281128 
z"/>
<path fill="#000000" opacity="1.000000" stroke="none" 
	d="
M211.802521,771.358704 
	C210.216660,773.379333 208.964935,772.050781 207.876999,771.262085 
	C206.677734,770.392822 205.724091,769.188538 204.643814,768.150574 
	C199.650848,763.353394 199.695480,763.443481 206.375854,759.848450 
	C210.377258,757.695068 214.203659,755.216553 218.959671,752.375916 
	C217.501266,759.692749 213.745056,765.005188 211.802521,771.358704 
z"/>
</svg>