<svg version="1.1" id="Layer_1" xmlns="http://www.w3.org/2000/svg" xmlns:xlink="http://www.w3.org/1999/xlink" x="0px" y="0px"
	 width="100%" viewBox="0 0 640 276" enable-background="new 0 0 640 276" xml:space="preserve">
<path fill="#FEFEFC" opacity="1.000000" stroke="none" 
	d="
M1.000000,274.000000 
	C1.000000,184.645767 1.000000,95.291542 1.375667,5.400549 
	C8.618609,7.057172 9.925858,8.585203 10.005154,15.896529 
	C10.147429,29.014448 9.994598,42.135490 10.124406,55.253647 
	C10.235202,66.450584 15.348619,74.523064 25.838791,79.340942 
	C26.320015,79.669647 26.651342,79.774529 27.303150,80.077301 
	C30.755468,81.113663 33.887302,81.952133 37.255692,82.876282 
	C37.658443,82.939308 37.824635,82.916664 38.412865,82.993958 
	C47.953606,84.278084 56.821617,83.822289 65.381821,79.033417 
	C71.776016,75.706245 75.650497,70.789589 77.252098,63.663071 
	C77.931557,59.207878 78.777916,55.100498 78.834930,50.982197 
	C79.016983,37.828789 78.826248,24.670279 78.998077,11.516593 
	C79.022621,9.638057 80.254761,7.775296 80.928009,5.905235 
	C82.601059,7.335002 84.366280,8.674120 85.903610,10.237352 
	C86.555191,10.899916 86.760391,12.020864 87.114136,12.954077 
	C95.484367,35.036026 103.839806,57.123585 112.225838,79.199524 
	C112.875053,80.908585 113.729622,82.539642 114.488754,84.206947 
	C114.934578,84.174362 115.380394,84.141769 115.826210,84.109184 
	C118.707649,76.121941 121.589088,68.134697 124.683990,59.891983 
	C128.439026,50.496609 131.980591,41.356712 135.811462,32.340282 
	C137.451492,35.650280 138.802200,38.836807 140.163376,42.299889 
	C140.405380,42.854809 140.636902,43.133179 140.859344,43.576530 
	C140.850250,43.741516 141.044403,44.008942 141.060822,44.324310 
	C141.327118,44.962368 141.576996,45.285053 141.805038,45.959438 
	C142.566910,48.547413 143.350616,50.783688 144.139374,53.310173 
	C144.381592,53.895916 144.618729,54.191448 144.831390,54.630928 
	C144.806915,54.774872 144.993881,54.999187 144.994659,55.318939 
	C145.292755,56.185375 145.590073,56.732063 145.887268,57.571911 
	C146.198502,58.572304 146.509888,59.279537 146.821442,60.254898 
	C146.911713,60.677387 147.001831,60.831760 147.100235,61.342148 
	C147.783005,63.463524 148.457489,65.228874 149.117767,67.282211 
	C149.384537,68.053619 149.665512,68.537041 149.965363,69.396378 
	C150.784836,72.175407 151.585449,74.578499 152.380676,77.342995 
	C153.137222,79.894165 153.899170,82.083931 154.661102,84.273697 
	C155.135529,84.316040 155.609940,84.358391 156.084351,84.400734 
	C156.757721,82.614304 157.431107,80.827881 158.331528,78.790985 
	C158.989807,77.020119 159.421036,75.499718 159.984894,73.749161 
	C160.119095,73.341942 160.120667,73.164864 160.305298,72.752296 
	C160.692398,71.760193 160.896393,71.003578 161.333527,70.031860 
	C161.709412,69.211685 161.852173,68.606621 162.210709,67.709999 
	C163.630524,63.949558 164.834534,60.480679 166.287476,56.765343 
	C171.651962,42.878571 176.730896,29.224344 181.902542,15.605321 
	C183.769211,10.689596 185.184525,5.341972 191.661423,4.193943 
	C192.276978,4.084833 192.561691,2.109127 193.000000,0.999999 
	C200.020950,1.000000 207.041901,1.000000 214.569763,1.366688 
	C224.191238,7.216196 220.548584,15.747846 219.978806,23.330091 
	C218.869095,38.097301 217.339828,52.833439 215.937256,67.577972 
	C215.355133,73.697784 215.951248,80.406120 208.636505,83.518250 
	C215.042618,83.518250 221.448730,83.518250 228.525421,83.518250 
	C221.502518,78.358803 221.372864,78.347832 222.099579,69.758972 
	C223.137711,57.489407 224.435120,45.241974 225.525146,32.976501 
	C225.957626,28.110128 226.131378,23.220760 226.422928,18.341860 
	C226.915497,18.262436 227.408081,18.183012 227.900650,18.103588 
	C237.527924,40.052464 247.155212,62.001335 257.430664,85.427956 
	C267.304199,61.823658 276.602753,39.593922 285.901306,17.364183 
	C288.738708,34.731251 290.381714,51.872192 291.953400,69.019676 
	C292.467865,74.632507 293.582062,80.559586 286.547791,83.548355 
	C294.273499,83.548355 301.999237,83.548355 310.354553,83.548355 
	C303.713715,78.564461 303.688934,78.567871 302.519958,70.079628 
	C302.088745,66.948509 301.768341,63.800682 301.460114,60.654324 
	C299.886566,44.590492 298.318634,28.526070 296.784515,12.458437 
	C296.429474,8.739611 296.999969,5.488769 301.120453,3.882793 
	C301.700104,3.656865 301.720642,1.996434 302.000000,1.000000 
	C341.020905,1.000000 380.041779,1.000000 419.382141,1.311544 
	C414.858978,4.317516 410.016357,7.011944 405.556244,9.493560 
	C407.858704,11.342321 411.192596,12.697427 411.400269,14.427722 
	C412.092041,20.192030 411.662140,26.090946 411.662140,31.082560 
	C405.139862,30.485746 398.998718,28.902733 393.120178,29.584383 
	C377.741486,31.367645 367.305603,48.254459 370.456451,65.007484 
	C374.194153,84.880714 393.542572,92.507721 409.894165,80.563126 
	C410.766052,79.926224 411.719971,79.401543 412.530914,78.890625 
	C414.597504,81.493088 416.419403,83.787376 418.561096,86.484428 
	C421.733948,83.630943 424.463837,81.175835 427.758209,78.213081 
	C421.189453,75.942772 421.219208,71.117607 421.198578,66.404869 
	C421.103149,44.603374 421.061157,22.801645 421.000000,1.000000 
	C494.212982,1.000000 567.425964,1.000000 641.000000,1.000000 
	C641.000000,16.352341 641.000000,31.707512 640.665894,47.382576 
	C633.724792,29.585924 616.593079,23.431149 602.018616,33.937962 
	C589.283325,43.118896 586.924622,66.134666 597.399353,77.893761 
	C606.576233,88.195908 625.894531,91.105095 637.096680,74.076134 
	C637.517151,73.436844 637.361694,72.418602 637.675476,70.079811 
	C629.487549,76.576103 621.645569,80.405289 612.226257,76.993172 
	C603.848633,73.958405 598.607788,64.156807 600.754456,54.558983 
	C613.705811,54.558983 626.828552,54.558983 640.212769,54.670769 
	C640.649597,54.855038 640.824829,54.927521 641.000000,55.000000 
	C641.000000,129.000000 641.000000,203.000000 640.458740,276.596191 
	C637.818909,275.513397 635.720642,274.240814 633.621704,274.239777 
	C450.728455,274.149384 267.835114,274.163757 84.941811,274.150879 
	C56.961205,274.148926 28.980604,274.052643 1.000000,274.000000 
M102.500000,111.933777 
	C71.007614,111.935059 39.515118,111.905167 8.023076,112.010910 
	C6.019716,112.017639 4.019893,113.077713 2.018425,113.647774 
	C4.040193,114.186333 6.061801,115.195900 8.083753,115.196579 
	C216.366699,115.266968 424.649658,115.265869 632.932617,115.200935 
	C635.186890,115.200233 637.440979,114.305054 639.695129,113.827446 
	C637.420715,113.196991 635.146606,112.015678 632.871887,112.014565 
	C456.414642,111.928276 279.957306,111.934639 102.500000,111.933777 
M547.108582,74.925873 
	C547.101257,66.595123 547.048767,58.264095 547.099121,49.933693 
	C547.151245,41.318813 552.225891,36.251404 560.759277,36.161167 
	C568.902100,36.075058 573.609070,40.962170 573.746948,49.850029 
	C573.850281,56.513084 573.790283,63.179115 573.761475,69.843643 
	C573.739014,75.046928 574.660767,80.650475 568.390442,83.659531 
	C575.170837,83.659531 581.951172,83.659531 588.731567,83.659531 
	C581.530273,80.934860 582.988953,74.886154 582.935120,69.545898 
	C582.856140,61.715752 583.048157,53.880455 582.844238,46.054661 
	C582.636292,38.072998 578.352539,32.169491 571.449768,30.163664 
	C564.353943,28.101746 557.606445,28.951344 551.430969,33.230896 
	C550.196106,34.086605 548.941345,34.913597 547.357727,35.981880 
	C547.118591,33.190670 546.952698,31.254049 546.713135,28.458025 
	C541.147339,31.661247 536.142944,34.541359 531.138611,37.421467 
	C531.054077,37.822495 530.969604,38.223518 530.885132,38.624542 
	C537.190491,38.597309 537.475830,42.562622 537.439575,46.862579 
	C537.376343,54.359791 537.466980,61.858295 537.403625,69.355499 
	C537.359009,74.634109 538.855164,80.515060 532.365601,83.616623 
	C539.158691,83.616623 545.951843,83.616623 552.085571,83.616623 
	C550.413025,80.959290 548.788391,78.378174 547.108582,74.925873 
M344.174530,78.082764 
	C330.291687,78.337616 321.252838,68.539612 323.400299,54.762398 
	C336.646454,54.762398 350.016693,54.762398 363.331085,54.762398 
	C364.061554,39.517403 354.104950,28.985449 339.795807,29.146849 
	C323.954834,29.325525 312.050659,43.538422 313.573975,60.454178 
	C315.138062,77.822845 326.339966,87.577316 342.772339,85.879738 
	C351.224121,85.006607 358.733734,78.737549 360.390564,71.271843 
	C355.316254,73.501862 350.177612,75.760155 344.174530,78.082764 
M467.493225,47.343056 
	C469.314362,41.513260 472.261902,36.490688 478.642731,35.011166 
	C488.033691,32.833714 493.655884,37.877815 497.445343,46.399246 
	C498.718658,42.975918 499.569885,40.120586 499.685425,37.235779 
	C499.736481,35.961407 498.612976,34.160141 497.483002,33.392925 
	C486.853363,26.175676 472.979248,28.092594 464.574310,37.766705 
	C456.307343,47.281940 454.761230,63.829842 461.111725,74.826019 
	C466.474670,84.112206 476.422089,88.224472 486.771118,85.433624 
	C494.231964,83.421638 500.740417,76.362274 500.316254,70.298302 
	C498.238403,71.886703 496.356689,73.385895 494.413239,74.800255 
	C485.969025,80.945625 475.097992,78.788765 469.855530,69.773323 
	C465.906311,62.981880 465.020020,55.702568 467.493225,47.343056 
M465.199127,150.355621 
	C468.380096,160.166336 471.493256,170.000214 474.824707,179.759583 
	C475.259491,181.033234 476.894867,182.842285 477.834167,182.762177 
	C479.042450,182.659134 480.528046,181.097382 481.141510,179.806320 
	C482.126801,177.732834 482.434601,175.347046 483.136108,173.127167 
	C484.846100,167.715973 486.617767,162.324265 488.364563,156.924728 
	C490.078674,158.182388 490.673035,159.288864 491.014099,160.468552 
	C492.861877,166.859772 494.578247,173.290024 496.513123,179.654160 
	C496.889313,180.891556 498.168335,182.889969 498.793945,182.804413 
	C500.173584,182.615753 502.149933,181.596954 502.576050,180.436935 
	C506.589630,169.509857 510.372864,158.496674 514.051025,147.451202 
	C514.312134,146.667068 513.388367,144.743301 512.711121,144.575073 
	C511.807587,144.350586 510.209595,145.042923 509.626740,145.855591 
	C508.796112,147.013809 508.619507,148.639755 508.157715,150.063995 
	C505.715210,157.596359 503.270935,165.128128 500.451263,173.818985 
	C499.461731,171.111786 498.820679,169.619354 498.367188,168.071960 
	C496.402283,161.367157 494.611572,154.607773 492.467285,147.961868 
	C492.005249,146.529785 490.339630,145.486023 489.228424,144.263382 
	C488.248444,145.602386 486.843323,146.804184 486.359467,148.303299 
	C483.760559,156.355743 481.390930,164.482147 478.542908,173.903687 
	C475.563110,164.399780 473.013977,156.206604 470.416077,148.028946 
	C469.782776,146.035416 469.579285,143.554794 466.245270,144.504791 
	C462.640625,145.531891 464.499725,147.688751 465.199127,150.355621 
M64.608360,243.642593 
	C65.421844,244.717682 66.235329,245.792770 67.048813,246.867859 
	C67.957619,245.899719 69.423782,245.057892 69.676842,243.941177 
	C70.667847,239.568008 71.283455,235.109314 72.023621,230.679901 
	C72.599525,227.233475 73.153305,223.783340 73.716919,220.334869 
	C74.224243,220.277802 74.731560,220.220734 75.238884,220.163666 
	C78.546326,228.912903 81.853767,237.662125 85.232712,246.600494 
	C86.529770,246.236771 88.052528,246.233246 88.288887,245.680054 
	C91.908951,237.207565 95.361237,228.663406 99.180687,219.334579 
	C100.015953,220.934906 100.879135,221.936996 101.065094,223.052032 
	C102.174225,229.702896 103.203163,236.369583 104.103462,243.051910 
	C104.633194,246.983749 106.504372,247.764053 110.281166,245.874588 
	C108.298447,234.607895 106.386406,223.325836 104.244446,212.087585 
	C103.969978,210.647537 102.499298,209.435486 101.582771,208.117813 
	C100.359001,209.214371 98.613884,210.076279 97.997322,211.446136 
	C94.394287,219.451172 91.055534,227.575180 87.341667,236.333237 
	C86.508636,234.546555 85.906601,233.421265 85.446243,232.240738 
	C82.665199,225.109131 80.019005,217.921890 77.056801,210.866989 
	C76.559738,209.683167 74.774963,208.457092 73.521156,208.386398 
	C72.733475,208.341995 71.316864,210.308304 71.053070,211.556534 
	C68.852211,221.970474 66.853737,232.427170 64.608360,243.642593 
M430.034363,216.694000 
	C430.034363,226.637756 430.034363,236.581497 430.034363,246.483185 
	C434.075714,247.376007 435.009949,245.621353 434.982819,242.532684 
	C434.913330,234.618179 434.959656,226.702667 434.959656,217.624481 
	C436.549744,219.822968 437.475372,221.102524 438.400757,222.382263 
	C443.865082,229.938980 449.256134,237.551102 454.875092,244.991058 
	C455.689453,246.069321 457.566833,246.662949 459.012146,246.787766 
	C459.579254,246.836731 460.871002,244.987305 460.882202,243.991745 
	C461.014893,232.201004 460.967621,220.408249 460.967621,208.640945 
	C457.219330,207.494339 455.973969,208.688797 456.022095,212.066971 
	C456.136810,220.123840 456.059052,228.183472 456.059052,237.405029 
	C454.220703,235.044281 453.103119,233.673218 452.054291,232.251419 
	C446.717499,225.016403 441.552887,217.645340 435.956238,210.617950 
	C434.681427,209.017212 431.934174,208.589127 429.186493,207.304184 
	C429.576782,211.197296 429.805023,213.474075 430.034363,216.694000 
M285.231781,157.911621 
	C285.041412,159.395691 284.786530,160.874771 284.671448,162.364655 
	C284.037445,170.571213 288.090363,178.214691 294.777466,181.496246 
	C301.795807,184.940353 311.993652,183.752594 317.335693,178.868805 
	C323.656219,173.090485 325.619934,163.419556 322.185455,154.984818 
	C319.210358,147.678268 312.149933,143.111603 304.061768,143.262405 
	C295.123352,143.429062 288.740967,148.184189 285.231781,157.911621 
M184.616852,214.999695 
	C176.972076,206.467133 166.999496,207.651886 157.180740,208.668396 
	C156.378204,208.751465 155.262115,211.107834 155.228058,212.431992 
	C155.039642,219.758224 155.137161,227.091949 155.144958,234.423096 
	C155.158875,247.520279 155.163681,247.578186 168.198639,247.045029 
	C188.632996,246.209244 192.149811,226.779602 184.616852,214.999695 
M521.061584,44.505116 
	C521.061584,39.442898 521.061584,34.380676 521.061584,28.209764 
	C515.238159,31.537466 510.450134,34.273491 504.255981,37.813023 
	C511.728790,38.648720 512.008301,42.756992 511.879944,47.406013 
	C511.687164,54.389854 511.861877,61.383156 511.820953,68.372086 
	C511.787903,74.016006 512.971802,80.125671 506.442413,83.638428 
	C513.229492,83.638428 520.016541,83.638428 526.803589,83.638428 
	C519.686035,80.823029 521.106567,74.818405 521.074768,69.465652 
	C521.027344,61.478310 521.062561,53.490475 521.061584,44.505116 
M561.621155,238.895676 
	C562.755676,240.538101 563.907532,242.168930 565.021179,243.825424 
	C567.176270,247.031006 569.947327,247.782654 573.641235,246.182922 
	C569.825989,240.497131 566.177979,235.060532 562.251099,229.208450 
	C563.640869,228.118149 564.658569,227.496674 565.455322,226.663788 
	C568.774475,223.194290 569.584900,219.097946 567.886841,214.662277 
	C566.203735,210.265335 562.541748,208.434433 558.105225,208.107605 
	C555.457214,207.912537 552.780151,208.136078 550.116394,208.122696 
	C547.212341,208.108109 546.000244,209.376312 546.085022,212.401871 
	C546.257446,218.559814 546.134766,224.726028 546.134277,230.888824 
	C546.133850,236.141617 546.134216,241.394409 546.134216,246.458054 
	C550.643860,247.580963 552.021545,245.999435 551.824951,242.237030 
	C551.630066,238.509125 551.782349,234.763062 551.782349,231.090103 
	C558.603027,229.818893 558.630920,235.553970 561.621155,238.895676 
M449.425079,81.198830 
	C448.354156,78.419418 446.431610,75.662262 446.358307,72.856789 
	C446.023804,60.056686 446.217743,47.243000 446.195953,34.434238 
	C446.193024,32.708668 446.043579,30.983347 445.919617,28.361578 
	C440.371277,31.558783 435.616882,34.298466 429.435699,37.860348 
	C436.802460,38.600231 437.143341,42.551445 437.014771,47.070633 
	C436.830383,53.552959 437.056000,60.045982 436.942169,66.531555 
	C436.833710,72.713287 438.746857,79.592522 430.340546,83.538651 
	C438.403900,83.538651 445.192383,83.538651 453.174805,83.538651 
	C451.449188,82.409988 450.796722,81.983246 449.425079,81.198830 
M124.373634,147.116730 
	C124.373634,158.880615 124.373634,170.644485 124.373634,182.361954 
	C129.692856,182.863205 129.876389,182.770645 129.947952,178.511124 
	C130.022186,174.092010 129.964493,169.670670 129.964493,165.128021 
	C136.957397,165.128021 143.177963,165.128021 150.005692,165.128021 
	C150.005692,171.172241 150.005692,176.902557 150.005692,182.486176 
	C154.319458,183.470947 155.712769,182.154602 155.550964,178.240692 
	C155.208054,169.945526 155.244095,161.634415 155.146347,153.329575 
	C155.111984,150.410202 155.140869,147.490112 155.140869,144.643600 
	C150.923065,143.379868 149.651260,144.986481 149.854355,148.751755 
	C150.057251,152.513412 149.898865,156.294556 149.898865,160.530609 
	C147.247177,160.530609 145.272446,160.606033 143.305389,160.515091 
	C139.050446,160.318405 133.781143,161.426544 130.895813,159.312958 
	C128.888229,157.842346 130.269470,151.888855 129.897171,147.960754 
	C129.775436,146.676285 128.899246,145.463303 128.368103,144.217636 
	C127.037102,144.896820 125.706100,145.576004 124.373634,147.116730 
M228.211792,144.935196 
	C223.246048,144.935196 218.280319,144.935196 213.322083,144.935196 
	C213.322083,158.008987 213.322083,170.244659 213.322083,182.492523 
	C217.403076,183.570160 219.182693,182.317780 218.958298,178.178436 
	C218.762680,174.569794 218.917557,170.942139 218.917557,167.322891 
	C219.354660,166.942734 219.791763,166.562576 220.228867,166.182404 
	C221.979599,167.397247 224.122482,168.298599 225.397522,169.893692 
	C227.873932,172.991745 229.845703,176.490936 232.058929,179.802277 
	C234.183136,182.980423 237.000488,183.715530 240.765503,182.279251 
	C237.573654,177.650497 234.657547,173.254745 231.556686,168.993454 
	C229.947510,166.782104 229.807251,165.348999 231.993973,163.143234 
	C237.924744,157.160797 236.397400,148.978394 228.211792,144.935196 
M336.082855,152.621643 
	C336.082855,162.576523 336.082855,172.531418 336.082855,182.438492 
	C340.307098,183.539902 342.226685,182.485199 341.978485,178.243942 
	C341.766693,174.625137 341.934662,170.984116 341.934662,167.352921 
	C342.352661,166.973450 342.770691,166.593979 343.188690,166.214508 
	C344.967560,167.417206 347.156311,168.291748 348.437866,169.892548 
	C350.921387,172.994705 352.862885,176.526703 355.088074,179.840897 
	C357.217865,183.012894 360.041351,183.666107 363.749054,182.312225 
	C359.846802,176.601242 356.215302,171.286499 352.657318,166.079361 
	C359.200470,158.288300 360.226044,152.925858 356.338470,148.043152 
	C352.937439,143.771515 343.312347,142.648819 336.082520,145.850723 
	C336.082520,147.696136 336.082520,149.678635 336.082855,152.621643 
M259.446075,183.074860 
	C268.812408,182.794479 273.378387,179.833908 274.520081,173.163330 
	C275.439850,167.789398 272.851746,163.929031 268.458923,160.802307 
	C272.010132,156.488312 273.559692,151.738480 269.483185,147.642609 
	C264.292450,142.427200 257.701935,143.597839 250.884216,145.210602 
	C250.884216,155.341537 250.884216,165.293533 250.884201,175.245544 
	C250.884201,182.704910 250.884216,182.704910 259.446075,183.074860 
M268.898254,224.287308 
	C265.654449,231.446014 262.410614,238.604706 259.170013,245.756256 
	C262.602478,247.587936 264.555756,247.100006 265.687683,244.007217 
	C266.256134,242.453995 267.266357,241.044067 267.706635,239.466049 
	C268.716614,235.845963 270.961487,235.080368 274.612213,234.718948 
	C281.864166,234.001022 286.629883,235.633591 288.176422,243.535385 
	C288.922241,247.346054 291.720062,247.714127 295.247711,245.634079 
	C292.929352,240.121292 290.666687,234.809402 288.459442,229.474594 
	C285.921234,223.339828 283.537354,217.137802 280.834351,211.077438 
	C280.281128,209.837128 278.684692,208.492172 277.429932,208.339493 
	C276.622925,208.241302 275.266541,210.089722 274.668335,211.315475 
	C272.703918,215.340820 270.973267,219.480255 268.898254,224.287308 
M188.959763,149.542877 
	C188.680801,148.939194 188.525604,148.222946 188.098862,147.753632 
	C186.972778,146.515182 185.728867,145.383850 184.531876,144.209869 
	C183.528748,145.473770 182.378235,146.650101 181.561401,148.024704 
	C180.632462,149.587997 179.992996,151.324524 179.242661,152.992508 
	C174.967529,162.496017 170.696884,172.001572 165.829529,182.830612 
	C168.613113,182.423462 170.710693,182.733627 171.614929,181.838440 
	C172.940582,180.526047 173.278397,178.272247 174.283264,176.564407 
	C175.406158,174.655960 176.589539,171.594879 178.123413,171.344543 
	C182.323959,170.659058 186.975189,170.365189 190.933899,171.584839 
	C192.863419,172.179337 193.934814,176.394516 194.880981,179.147324 
	C196.263626,183.169968 198.469513,183.808197 202.197876,181.731537 
	C197.811737,171.109756 193.507339,160.685944 188.959763,149.542877 
M364.480438,245.199326 
	C374.304810,249.216187 383.320557,248.037003 385.646240,242.161697 
	C382.097107,242.453812 378.670563,243.038147 375.259399,242.959229 
	C365.498322,242.733475 359.931335,236.061172 360.536285,225.659378 
	C361.067963,216.517975 367.561646,211.033356 377.048065,211.838821 
	C378.845459,211.991440 380.591583,212.807861 382.385773,212.917114 
	C383.633545,212.993103 384.923096,212.383255 386.193970,212.079788 
	C385.406433,211.027908 384.846375,209.524490 383.795593,208.995163 
	C374.895996,204.511887 361.631409,208.704681 356.707001,217.406067 
	C351.404785,226.775024 354.572998,239.039139 364.480438,245.199326 
M128.751419,232.652420 
	C128.220840,228.183304 131.464066,229.278885 133.962509,228.970184 
	C136.808182,228.618561 140.904800,230.668137 141.894592,224.860199 
	C137.493362,224.860199 133.426743,224.860199 129.108948,224.860199 
	C129.108948,220.550339 129.108948,216.847687 129.108948,213.207031 
	C141.438461,211.182343 141.438461,211.182343 142.023560,208.720322 
	C135.830215,208.720322 129.616089,208.720322 123.626472,208.720322 
	C123.291977,209.592575 123.072784,209.899872 123.070518,210.208755 
	C123.016808,217.521194 122.964348,224.833786 122.956406,232.146393 
	C122.939323,247.867676 122.949615,247.867752 138.629349,246.908875 
	C139.126892,246.878448 139.727325,247.012451 140.103394,246.781998 
	C141.553192,245.893555 142.931229,244.888016 144.336029,243.926132 
	C144.108612,243.437943 143.881195,242.949738 143.653793,242.461533 
	C141.726334,242.461533 139.798645,242.480774 137.871445,242.458328 
	C127.260033,242.334778 128.911499,243.658783 128.751419,232.652420 
M398.314331,158.849579 
	C399.580475,155.774628 401.101440,152.771820 402.001373,149.593201 
	C402.428284,148.085159 401.669556,146.241425 401.447937,144.549789 
	C400.082825,145.496231 398.547455,146.277542 397.412781,147.447495 
	C396.663391,148.220169 396.481354,149.548004 396.059814,150.632904 
	C393.062134,158.348816 390.068146,166.066147 386.558685,175.108170 
	C382.896423,165.245056 379.692383,156.744476 376.591827,148.206329 
	C375.230530,144.457748 373.248840,142.966461 369.591217,145.798233 
	C373.800842,156.772400 377.953156,167.790070 382.303680,178.728912 
	C382.949768,180.353500 384.530029,181.606537 385.678131,183.031479 
	C387.125793,181.661484 389.144684,180.554886 389.919495,178.874619 
	C392.841431,172.538010 395.358734,166.014832 398.314331,158.849579 
M513.884949,228.498642 
	C513.885315,233.151123 513.970459,237.805771 513.852783,242.455261 
	C513.786804,245.063431 514.642090,246.675751 517.416138,246.722168 
	C521.899414,246.797180 526.404968,247.054703 530.856384,246.689651 
	C532.393250,246.563614 533.796570,244.810349 535.260864,243.800400 
	C534.987976,243.357254 534.715088,242.914093 534.442200,242.470947 
	C533.135376,242.470947 531.828552,242.474976 530.521729,242.470306 
	C518.976135,242.429062 518.971069,242.428284 519.752197,230.843399 
	C519.782837,230.389618 520.087952,229.954315 520.210999,229.645935 
	C524.095764,227.463760 530.035095,231.451721 532.756775,226.564499 
	C532.598572,225.926956 532.440430,225.289413 532.282288,224.651871 
	C528.212097,224.651871 524.141968,224.651871 520.127686,224.651871 
	C520.127686,220.363953 520.127686,216.659836 520.127686,213.020462 
	C532.116150,211.695923 532.116150,211.695923 532.756287,208.226532 
	C527.736511,208.226532 522.787048,208.145493 517.842102,208.259369 
	C515.215881,208.319870 513.637329,209.367249 513.811829,212.549377 
	C514.084351,217.519241 513.884155,222.515015 513.884949,228.498642 
M448.312408,178.829208 
	C445.593384,178.619324 442.874359,178.409454 440.319336,178.212234 
	C440.319336,173.380463 440.319336,169.333069 440.319336,165.704926 
	C444.532959,163.338562 450.355621,167.781525 453.644470,160.913544 
	C448.669037,160.913544 444.580750,160.913544 440.197571,160.913544 
	C440.197571,156.647690 440.197571,152.929703 440.197571,149.373001 
	C444.476837,146.860077 450.741760,151.333176 454.288696,144.411789 
	C448.284637,144.411789 443.187134,144.343018 438.092682,144.437637 
	C435.050476,144.494141 433.929626,145.996811 434.090332,149.235397 
	C434.403351,155.543030 434.197113,161.876785 434.193359,168.199722 
	C434.184082,183.787704 434.181183,183.787735 449.902740,182.901352 
	C450.732269,182.854584 451.762299,183.099365 452.349701,182.697662 
	C453.602386,181.840988 454.625458,180.648605 456.552124,178.829453 
	C453.081757,178.829453 451.122528,178.829453 448.312408,178.829208 
M243.558395,247.074707 
	C246.499557,246.681824 249.492584,246.356461 249.941986,242.121338 
	C246.552765,242.453934 243.444580,243.041321 240.342285,243.011597 
	C230.123077,242.913696 224.227646,236.252441 224.881042,225.821762 
	C225.480148,216.257355 232.355896,210.730255 242.329697,211.890427 
	C243.962845,212.080414 245.534119,212.856323 247.164948,212.993454 
	C248.283264,213.087463 249.455154,212.544083 250.603104,212.285629 
	C249.891296,211.185928 249.427933,209.497421 248.429825,209.076309 
	C236.537933,204.058945 220.168060,209.824112 218.955521,225.369553 
	C217.803421,240.140152 227.169891,248.683258 243.558395,247.074707 
M404.736298,208.164200 
	C402.350372,208.423721 399.964447,208.683243 397.773285,208.921585 
	C397.773285,220.331131 397.724213,230.961197 397.828400,241.589737 
	C397.843323,243.111374 398.553009,245.929565 399.018829,245.945984 
	C405.054657,246.158920 411.107880,246.046494 417.145264,245.767609 
	C417.712128,245.741425 418.201263,244.031357 419.084747,242.469940 
	C416.907562,242.469940 415.462585,242.471741 414.017609,242.469681 
	C401.705444,242.452194 401.704559,242.451859 403.292755,229.972076 
	C403.309845,229.837921 403.502808,229.726135 403.613647,229.603912 
	C415.465210,227.395676 415.465210,227.395676 416.484253,224.851288 
	C412.969452,224.851288 409.687134,225.076813 406.465088,224.734711 
	C405.261292,224.606903 403.364532,223.272202 403.226044,222.285400 
	C402.799896,219.248627 403.070801,216.114014 403.070801,213.602112 
	C407.804199,210.935593 414.057739,215.443756 417.428619,208.165192 
	C412.898773,208.165192 409.282928,208.165192 404.736298,208.164200 
M490.168823,236.465347 
	C490.168823,228.682556 490.168823,220.899765 490.168823,213.253754 
	C502.015656,211.221313 502.015656,211.221313 503.010406,208.142456 
	C493.535461,208.142456 484.287720,208.049011 475.047455,208.268494 
	C473.972198,208.294006 472.938080,210.051483 471.884888,211.005997 
	C472.049133,211.403931 472.213409,211.801880 472.377655,212.199814 
	C476.383789,212.462479 480.389923,212.725143 484.792328,213.013779 
	C484.792328,218.920044 484.792297,224.389862 484.792297,229.859680 
	C484.792297,235.448776 484.792328,241.037872 484.792328,246.389755 
	C488.774811,247.374863 490.496460,246.514862 490.192841,242.944504 
	C490.038116,241.125122 490.167633,239.281586 490.168823,236.465347 
M326.815033,244.187653 
	C325.264160,243.598709 323.721375,242.525177 322.161102,242.499161 
	C311.747345,242.325592 311.746124,242.398193 311.746094,231.873611 
	C311.746094,224.115128 311.746094,216.356659 311.746094,208.082748 
	C309.523895,208.220932 307.978119,208.317062 306.070099,208.435699 
	C306.070099,220.428986 306.031372,232.010513 306.142792,243.590607 
	C306.151794,244.526550 307.159576,246.238525 307.755890,246.262192 
	C314.021332,246.510712 320.493011,248.989075 326.815033,244.187653 
M419.989929,167.495499 
	C419.986328,161.003418 420.123535,154.505646 419.861694,148.024002 
	C419.808533,146.708038 418.450226,144.605850 417.344788,144.345169 
	C415.008118,143.794144 414.005219,145.287842 414.042389,147.892792 
	C414.192047,158.377884 414.018219,168.868179 414.233582,179.350998 
	C414.258087,180.543472 415.982513,181.701050 416.918701,182.874817 
	C417.936981,181.743134 419.698486,180.693130 419.833527,179.464371 
	C420.231232,175.845306 419.984222,172.155365 419.989929,167.495499 
M200.863464,214.629166 
	C200.863464,225.201889 200.863464,235.774628 200.863464,246.272476 
	C206.193115,246.822220 206.205170,246.822235 206.211044,242.822037 
	C206.213974,240.830948 206.142258,238.839798 206.140549,236.848663 
	C206.132507,227.436554 206.136978,218.024460 206.136978,208.713394 
	C200.425537,207.031418 200.518372,210.238297 200.863464,214.629166 
M441.492432,2.163142 
	C437.092255,2.669502 434.707794,5.137325 435.528015,9.526749 
	C436.207458,13.162935 439.192719,15.094918 442.591919,13.784851 
	C444.599640,13.011053 446.711670,10.470028 447.233856,8.344649 
	C448.071930,4.933529 445.627686,2.887797 441.492432,2.163142 
M511.289734,4.855983 
	C509.573853,7.833130 509.576996,10.984571 512.536499,12.717809 
	C514.314819,13.759275 517.652527,13.989207 519.251404,12.964372 
	C520.845154,11.942870 521.975647,8.841781 521.832397,6.753744 
	C521.546814,2.588818 516.692383,1.543575 511.289734,4.855983 
z"/>
<path fill="#FEFEFD" opacity="1.000000" stroke="none" 
	d="
M28.000000,1.000000 
	C39.354229,1.000000 50.708454,1.000000 62.412781,1.320572 
	C63.318645,2.716765 63.841106,4.702602 64.435448,4.724353 
	C69.294868,4.902188 71.400368,7.971440 72.695312,12.230523 
	C72.777893,12.970444 72.965294,13.457852 73.114601,14.356174 
	C73.264191,15.839033 73.451881,16.910978 73.524048,18.378124 
	C73.622894,20.842552 73.837250,22.911776 74.000107,25.448433 
	C73.990639,36.285820 74.032677,46.655777 73.882568,57.309837 
	C73.649414,58.736351 73.608391,59.878761 73.421661,61.340736 
	C73.246155,62.124397 73.216370,62.588493 72.961319,63.317123 
	C69.465355,67.709740 66.194641,71.837822 62.553055,76.040298 
	C58.134502,77.039337 54.086819,77.963974 49.808876,78.739380 
	C48.705601,78.690895 47.832592,78.791649 46.594608,78.794479 
	C44.471943,78.508171 42.714252,78.319778 40.751350,77.946915 
	C40.021809,77.713776 39.497475,77.665108 38.658237,77.420425 
	C29.503838,74.065147 24.688910,67.268867 24.183084,58.436005 
	C23.253033,42.195168 23.263008,25.894882 23.209101,9.618287 
	C23.203785,8.013041 25.600231,6.477567 26.640995,4.763434 
	C27.319530,3.645893 27.562120,2.263660 28.000000,1.000000 
z"/>
<path fill="#948762" opacity="1.000000" stroke="none" 
	d="
M301.533142,1.000000 
	C301.720642,1.996434 301.700104,3.656865 301.120453,3.882793 
	C296.999969,5.488769 296.429474,8.739611 296.784515,12.458437 
	C298.318634,28.526070 299.886566,44.590492 301.460114,60.654324 
	C301.768341,63.800682 302.088745,66.948509 302.519958,70.079628 
	C303.688934,78.567871 303.713715,78.564461 310.354553,83.548355 
	C301.999237,83.548355 294.273499,83.548355 286.547791,83.548355 
	C293.582062,80.559586 292.467865,74.632507 291.953400,69.019676 
	C290.381714,51.872192 288.738708,34.731251 285.901306,17.364183 
	C276.602753,39.593922 267.304199,61.823658 257.430664,85.427956 
	C247.155212,62.001335 237.527924,40.052464 227.900650,18.103588 
	C227.408081,18.183012 226.915497,18.262436 226.422928,18.341860 
	C226.131378,23.220760 225.957626,28.110128 225.525146,32.976501 
	C224.435120,45.241974 223.137711,57.489407 222.099579,69.758972 
	C221.372864,78.347832 221.502518,78.358803 228.525421,83.518250 
	C221.448730,83.518250 215.042618,83.518250 208.636505,83.518250 
	C215.951248,80.406120 215.355133,73.697784 215.937256,67.577972 
	C217.339828,52.833439 218.869095,38.097301 219.978806,23.330091 
	C220.548584,15.747846 224.191238,7.216196 215.038330,1.366688 
	C220.022095,1.000000 225.044189,1.000000 230.624863,1.337245 
	C232.062225,3.055873 233.144928,4.348756 233.788712,5.832126 
	C241.530319,23.669930 249.199982,41.538940 256.915649,59.388042 
	C257.456787,60.639885 258.212952,61.798771 259.252106,63.702530 
	C261.963593,57.494740 264.331085,52.198288 266.598663,46.859421 
	C273.087524,31.582169 279.535797,16.287699 286.000000,1.000001 
	C291.022095,1.000000 296.044189,1.000000 301.533142,1.000000 
z"/>
<path fill="#9C9373" opacity="1.000000" stroke="none" 
	d="
M1.000000,274.500000 
	C28.980604,274.052643 56.961205,274.148926 84.941811,274.150879 
	C267.835114,274.163757 450.728455,274.149384 633.621704,274.239777 
	C635.720642,274.240814 637.818909,275.513397 639.958740,276.596191 
	C428.500031,277.000000 217.000046,277.006104 5.500175,276.858521 
	C4.210851,276.857605 0.872608,279.328430 1.000000,274.500000 
z"/>
<path fill="#FEFDFB" opacity="1.000000" stroke="none" 
	d="
M285.531342,1.000001 
	C279.535797,16.287699 273.087524,31.582169 266.598663,46.859421 
	C264.331085,52.198288 261.963593,57.494740 259.252106,63.702530 
	C258.212952,61.798771 257.456787,60.639885 256.915649,59.388042 
	C249.199982,41.538940 241.530319,23.669930 233.788712,5.832126 
	C233.144928,4.348756 232.062225,3.055873 231.091721,1.337245 
	C249.020889,1.000000 267.041779,1.000000 285.531342,1.000001 
z"/>
<path fill="#938762" opacity="1.000000" stroke="none" 
	d="
M420.750000,1.000000 
	C421.061157,22.801645 421.103149,44.603374 421.198578,66.404869 
	C421.219208,71.117607 421.189453,75.942772 427.758209,78.213081 
	C424.463837,81.175835 421.733948,83.630943 418.561096,86.484428 
	C416.419403,83.787376 414.597504,81.493088 412.530914,78.890625 
	C411.719971,79.401543 410.766052,79.926224 409.894165,80.563126 
	C393.542572,92.507721 374.194153,84.880714 370.456451,65.007484 
	C367.305603,48.254459 377.741486,31.367645 393.120178,29.584383 
	C398.998718,28.902733 405.139862,30.485746 411.662140,31.082560 
	C411.662140,26.090946 412.092041,20.192030 411.400269,14.427722 
	C411.192596,12.697427 407.858704,11.342321 405.556244,9.493560 
	C410.016357,7.011944 414.858978,4.317516 419.850769,1.311544 
	C420.000000,1.000000 420.500000,1.000000 420.750000,1.000000 
M396.591156,78.979126 
	C401.072296,77.120193 405.629730,75.417206 409.978912,73.288643 
	C411.018372,72.779922 411.915619,70.861786 411.937012,69.576248 
	C412.061218,62.106377 412.370087,54.591312 411.724213,47.169178 
	C410.925171,37.986881 402.888672,32.750134 393.787933,34.738819 
	C385.636139,36.520142 380.899445,42.806732 379.273773,54.002270 
	C377.462830,66.473289 384.301697,76.826744 396.591156,78.979126 
z"/>
<path fill="#92855E" opacity="1.000000" stroke="none" 
	d="
M73.639565,17.982922 
	C73.451881,16.910978 73.264191,15.839033 73.303268,14.223738 
	C73.286728,13.112928 73.043427,12.545469 72.800133,11.978010 
	C71.400368,7.971440 69.294868,4.902188 64.435448,4.724353 
	C63.841106,4.702602 63.318645,2.716765 62.881439,1.320572 
	C76.354225,1.000000 89.708458,1.000000 103.390045,1.357277 
	C96.349861,7.253334 101.221512,13.314804 103.215843,19.012119 
	C107.862038,32.285084 112.838608,45.442581 117.716019,58.634026 
	C118.064880,59.577538 118.695648,60.416817 119.315575,61.518196 
	C120.012497,60.368500 120.434052,59.673061 121.235764,59.016739 
	C122.567451,59.419720 123.518997,59.783588 124.470535,60.147461 
	C121.589088,68.134697 118.707649,76.121941 115.826210,84.109184 
	C115.380394,84.141769 114.934578,84.174362 114.488754,84.206947 
	C113.729622,82.539642 112.875053,80.908585 112.225838,79.199524 
	C103.839806,57.123585 95.484367,35.036026 87.114136,12.954077 
	C86.760391,12.020864 86.555191,10.899916 85.903610,10.237352 
	C84.366280,8.674120 82.601059,7.335002 80.928009,5.905235 
	C80.254761,7.775296 79.022621,9.638057 78.998077,11.516593 
	C78.826248,24.670279 79.016983,37.828789 78.834930,50.982197 
	C78.777916,55.100498 77.931557,59.207878 76.911163,63.660187 
	C75.312729,63.684277 74.249649,63.368435 73.186577,63.052589 
	C73.216370,62.588493 73.246155,62.124397 73.705856,61.232277 
	C74.115417,59.544750 74.095062,58.285244 74.074707,57.025734 
	C74.032677,46.655777 73.990639,36.285820 74.267143,25.192369 
	C74.270309,22.306890 73.954933,20.144907 73.639565,17.982922 
z"/>
<path fill="#92855E" opacity="1.000000" stroke="none" 
	d="
M40.956562,78.131386 
	C42.714252,78.319778 44.471943,78.508171 46.778889,79.062019 
	C48.231808,79.247856 49.135475,79.068237 50.039139,78.888618 
	C54.086819,77.963974 58.134502,77.039337 62.909245,76.106750 
	C64.102776,77.095451 64.569252,78.092102 65.035721,79.088760 
	C56.821617,83.822289 47.953606,84.278084 38.331608,82.843826 
	C37.558590,82.659378 37.288864,82.724998 37.019138,82.790611 
	C33.887302,81.952133 30.755468,81.113663 27.147232,79.864029 
	C26.343519,79.340958 26.016207,79.229034 25.688892,79.117111 
	C15.348619,74.523064 10.235202,66.450584 10.124406,55.253647 
	C9.994598,42.135490 10.147429,29.014448 10.005154,15.896529 
	C9.925858,8.585203 8.618609,7.057172 1.375667,4.931892 
	C1.000000,3.685785 1.000000,2.371569 1.000000,1.000000 
	C9.687494,1.000000 18.375086,1.000000 27.531338,1.000000 
	C27.562120,2.263660 27.319530,3.645893 26.640995,4.763434 
	C25.600231,6.477567 23.203785,8.013041 23.209101,9.618287 
	C23.263008,25.894882 23.253033,42.195168 24.183084,58.436005 
	C24.688910,67.268867 29.503838,74.065147 38.728065,77.650307 
	C39.727390,78.094597 40.341976,78.112991 40.956562,78.131386 
z"/>
<path fill="#FDFDFA" opacity="1.000000" stroke="none" 
	d="
M146.000000,1.000000 
	C154.020905,1.000000 162.041809,1.000000 170.386993,1.306966 
	C170.786957,2.473469 170.613953,3.956564 170.975037,4.100581 
	C178.389130,7.057643 176.590332,12.680157 174.795425,17.932642 
	C170.438950,30.681055 165.788452,43.328999 161.118317,56.239075 
	C160.926773,56.800755 160.873337,57.140781 160.521347,57.653542 
	C160.009598,58.585308 159.796417,59.344341 159.161957,60.118027 
	C157.885895,58.900074 156.661667,57.783253 156.233475,56.416954 
	C151.934250,42.698303 147.669754,28.966885 143.617538,15.173822 
	C142.363190,10.904236 139.476746,6.044219 145.713394,2.859717 
	C146.040253,2.692820 145.914856,1.640246 146.000000,1.000000 
z"/>
<path fill="#948762" opacity="1.000000" stroke="none" 
	d="
M639.951233,54.558983 
	C626.828552,54.558983 613.705811,54.558983 600.754456,54.558983 
	C598.607788,64.156807 603.848633,73.958405 612.226257,76.993172 
	C621.645569,80.405289 629.487549,76.576103 637.675476,70.079811 
	C637.361694,72.418602 637.517151,73.436844 637.096680,74.076134 
	C625.894531,91.105095 606.576233,88.195908 597.399353,77.893761 
	C586.924622,66.134666 589.283325,43.118896 602.018616,33.937962 
	C616.593079,23.431149 633.724792,29.585924 640.665894,47.851234 
	C641.000000,48.000000 641.000000,48.500000 640.705566,48.970451 
	C640.257812,51.146927 640.104492,52.852955 639.951233,54.558983 
M628.155334,49.885723 
	C628.796997,48.522743 630.106934,47.088043 629.969604,45.808659 
	C629.198059,38.619049 622.363342,33.392593 615.138672,34.140297 
	C607.633118,34.917068 600.994141,42.357265 601.372864,49.907253 
	C609.975830,49.907253 618.598511,49.907253 628.155334,49.885723 
z"/>
<path fill="#FDFDF9" opacity="1.000000" stroke="none" 
	d="
M120.855614,58.977623 
	C120.434052,59.673061 120.012497,60.368500 119.315575,61.518196 
	C118.695648,60.416817 118.064880,59.577538 117.716019,58.634026 
	C112.838608,45.442581 107.862038,32.285084 103.215843,19.012119 
	C101.221512,13.314804 96.349861,7.253334 103.858704,1.357277 
	C108.689255,1.000000 113.378510,1.000000 118.610886,1.384991 
	C119.671944,2.799570 119.917175,4.319187 120.750122,4.782719 
	C128.813095,9.269785 134.519287,22.453449 131.650269,31.201927 
	C127.878067,40.614010 124.366837,49.795815 120.855614,58.977623 
z"/>
<path fill="#92855E" opacity="1.000000" stroke="none" 
	d="
M131.911255,30.971655 
	C134.519287,22.453449 128.813095,9.269785 120.750122,4.782719 
	C119.917175,4.319187 119.671944,2.799570 119.077011,1.384991 
	C127.687569,1.000000 136.375137,1.000000 145.531342,1.000000 
	C145.914856,1.640246 146.040253,2.692820 145.713394,2.859717 
	C139.476746,6.044219 142.363190,10.904236 143.617538,15.173822 
	C147.669754,28.966885 151.934250,42.698303 156.233475,56.416954 
	C156.661667,57.783253 157.885895,58.900074 159.440063,59.970993 
	C160.366257,59.033146 160.593079,58.256977 160.819901,57.480808 
	C160.873337,57.140781 160.926773,56.800755 161.473236,56.235565 
	C163.323685,56.344200 164.681122,56.677998 166.038559,57.011795 
	C164.834534,60.480679 163.630524,63.949558 161.953400,67.905350 
	C161.353653,69.010498 161.227036,69.628738 161.100403,70.246971 
	C160.896393,71.003578 160.692398,71.760193 160.123077,72.813461 
	C159.667831,73.197685 159.485779,73.322342 159.503555,73.366547 
	C159.590546,73.582581 159.730835,73.777145 159.852264,73.979309 
	C159.421036,75.499718 158.989807,77.020119 157.973358,78.777924 
	C155.720810,78.337402 154.053436,77.659500 152.386078,76.981590 
	C151.585449,74.578499 150.784836,72.175407 150.197479,69.237473 
	C149.984482,68.133171 149.558228,67.563698 149.131973,66.994232 
	C148.457489,65.228874 147.783005,63.463524 147.255524,61.224682 
	C147.208771,60.496387 147.015015,60.241585 146.821259,59.986778 
	C146.509888,59.279537 146.198502,58.572304 145.908737,57.240524 
	C145.618195,56.077049 145.306046,55.538116 144.993881,54.999184 
	C144.993881,54.999187 144.806915,54.774872 144.812561,54.341335 
	C144.590240,53.611855 144.362289,53.315910 144.134323,53.019962 
	C143.350616,50.783688 142.566910,48.547413 141.786987,45.643291 
	C141.541992,44.653278 141.293198,44.331108 141.044403,44.008942 
	C141.044403,44.008942 140.850250,43.741516 140.837845,43.300308 
	C140.601257,42.580517 140.377090,42.301929 140.152908,42.023338 
	C138.802200,38.836807 137.451492,35.650280 135.429840,32.267704 
	C133.809677,31.704988 132.860458,31.338322 131.911255,30.971655 
z"/>
<path fill="#948968" opacity="1.000000" stroke="none" 
	d="
M166.287476,56.765343 
	C164.681122,56.677998 163.323685,56.344200 161.611328,56.013916 
	C165.788452,43.328999 170.438950,30.681055 174.795425,17.932642 
	C176.590332,12.680157 178.389130,7.057643 170.975037,4.100581 
	C170.613953,3.956564 170.786957,2.473469 170.855621,1.306966 
	C178.020950,1.000000 185.041901,1.000000 192.531433,0.999999 
	C192.561691,2.109127 192.276978,4.084833 191.661423,4.193943 
	C185.184525,5.341972 183.769211,10.689596 181.902542,15.605321 
	C176.730896,29.224344 171.651962,42.878571 166.287476,56.765343 
z"/>
<path fill="#9C9373" opacity="1.000000" stroke="none" 
	d="
M640.212769,54.670769 
	C640.104492,52.852955 640.257812,51.146927 640.705566,49.220451 
	C641.000000,50.714359 641.000000,52.428715 641.000000,54.571537 
	C640.824829,54.927521 640.649597,54.855038 640.212769,54.670769 
z"/>
<path fill="#958C70" opacity="1.000000" stroke="none" 
	d="
M103.000000,111.933846 
	C279.957306,111.934639 456.414642,111.928276 632.871887,112.014565 
	C635.146606,112.015678 637.420715,113.196991 639.695129,113.827446 
	C637.440979,114.305054 635.186890,115.200233 632.932617,115.200935 
	C424.649658,115.265869 216.366699,115.266968 8.083753,115.196579 
	C6.061801,115.195900 4.040193,114.186333 2.018425,113.647766 
	C4.019893,113.077713 6.019716,112.017639 8.023076,112.010910 
	C39.515118,111.905167 71.007614,111.935059 103.000000,111.933846 
z"/>
<path fill="#938762" opacity="1.000000" stroke="none" 
	d="
M547.136230,75.361465 
	C548.788391,78.378174 550.413025,80.959290 552.085571,83.616623 
	C545.951843,83.616623 539.158691,83.616623 532.365601,83.616623 
	C538.855164,80.515060 537.359009,74.634109 537.403625,69.355499 
	C537.466980,61.858295 537.376343,54.359791 537.439575,46.862579 
	C537.475830,42.562622 537.190491,38.597309 530.885132,38.624542 
	C530.969604,38.223518 531.054077,37.822495 531.138611,37.421467 
	C536.142944,34.541359 541.147339,31.661247 546.713135,28.458025 
	C546.952698,31.254049 547.118591,33.190670 547.357727,35.981880 
	C548.941345,34.913597 550.196106,34.086605 551.430969,33.230896 
	C557.606445,28.951344 564.353943,28.101746 571.449768,30.163664 
	C578.352539,32.169491 582.636292,38.072998 582.844238,46.054661 
	C583.048157,53.880455 582.856140,61.715752 582.935120,69.545898 
	C582.988953,74.886154 581.530273,80.934860 588.731567,83.659531 
	C581.951172,83.659531 575.170837,83.659531 568.390442,83.659531 
	C574.660767,80.650475 573.739014,75.046928 573.761475,69.843643 
	C573.790283,63.179115 573.850281,56.513084 573.746948,49.850029 
	C573.609070,40.962170 568.902100,36.075058 560.759277,36.161167 
	C552.225891,36.251404 547.151245,41.318813 547.099121,49.933693 
	C547.048767,58.264095 547.101257,66.595123 547.136230,75.361465 
z"/>
<path fill="#948863" opacity="1.000000" stroke="none" 
	d="
M344.606750,78.050613 
	C350.177612,75.760155 355.316254,73.501862 360.390564,71.271843 
	C358.733734,78.737549 351.224121,85.006607 342.772339,85.879738 
	C326.339966,87.577316 315.138062,77.822845 313.573975,60.454178 
	C312.050659,43.538422 323.954834,29.325525 339.795807,29.146849 
	C354.104950,28.985449 364.061554,39.517403 363.331085,54.762398 
	C350.016693,54.762398 336.646454,54.762398 323.400299,54.762398 
	C321.252838,68.539612 330.291687,78.337616 344.606750,78.050613 
M340.276794,34.097115 
	C330.804260,34.591934 324.214569,40.957478 324.121216,49.633621 
	C333.687897,49.633621 343.253174,49.633621 352.797089,49.633621 
	C353.242157,41.261971 349.473694,36.369892 340.276794,34.097115 
z"/>
<path fill="#948863" opacity="1.000000" stroke="none" 
	d="
M467.359039,47.724472 
	C465.020020,55.702568 465.906311,62.981880 469.855530,69.773323 
	C475.097992,78.788765 485.969025,80.945625 494.413239,74.800255 
	C496.356689,73.385895 498.238403,71.886703 500.316254,70.298302 
	C500.740417,76.362274 494.231964,83.421638 486.771118,85.433624 
	C476.422089,88.224472 466.474670,84.112206 461.111725,74.826019 
	C454.761230,63.829842 456.307343,47.281940 464.574310,37.766705 
	C472.979248,28.092594 486.853363,26.175676 497.483002,33.392925 
	C498.612976,34.160141 499.736481,35.961407 499.685425,37.235779 
	C499.569885,40.120586 498.718658,42.975918 497.445343,46.399246 
	C493.655884,37.877815 488.033691,32.833714 478.642731,35.011166 
	C472.261902,36.490688 469.314362,41.513260 467.359039,47.724472 
z"/>
<path fill="#968C6C" opacity="1.000000" stroke="none" 
	d="
M465.088593,149.980545 
	C464.499725,147.688751 462.640625,145.531891 466.245270,144.504791 
	C469.579285,143.554794 469.782776,146.035416 470.416077,148.028946 
	C473.013977,156.206604 475.563110,164.399780 478.542908,173.903687 
	C481.390930,164.482147 483.760559,156.355743 486.359467,148.303299 
	C486.843323,146.804184 488.248444,145.602386 489.228424,144.263367 
	C490.339630,145.486023 492.005249,146.529785 492.467285,147.961868 
	C494.611572,154.607773 496.402283,161.367157 498.367188,168.071960 
	C498.820679,169.619354 499.461731,171.111786 500.451263,173.818985 
	C503.270935,165.128128 505.715210,157.596359 508.157715,150.063995 
	C508.619507,148.639755 508.796112,147.013809 509.626740,145.855591 
	C510.209595,145.042923 511.807587,144.350586 512.711121,144.575073 
	C513.388367,144.743301 514.312134,146.667068 514.051025,147.451202 
	C510.372864,158.496674 506.589630,169.509857 502.576050,180.436935 
	C502.149933,181.596954 500.173584,182.615753 498.793945,182.804413 
	C498.168335,182.889969 496.889313,180.891556 496.513123,179.654160 
	C494.578247,173.290024 492.861877,166.859772 491.014099,160.468552 
	C490.673035,159.288864 490.078674,158.182388 488.364563,156.924728 
	C486.617767,162.324265 484.846100,167.715973 483.136108,173.127167 
	C482.434601,175.347046 482.126801,177.732834 481.141510,179.806320 
	C480.528046,181.097382 479.042450,182.659134 477.834167,182.762177 
	C476.894867,182.842285 475.259491,181.033234 474.824707,179.759583 
	C471.493256,170.000214 468.380096,160.166336 465.088593,149.980545 
z"/>
<path fill="#968B6A" opacity="1.000000" stroke="none" 
	d="
M64.701279,243.256775 
	C66.853737,232.427170 68.852211,221.970474 71.053070,211.556534 
	C71.316864,210.308304 72.733475,208.341995 73.521156,208.386398 
	C74.774963,208.457092 76.559738,209.683167 77.056801,210.866989 
	C80.019005,217.921890 82.665199,225.109131 85.446243,232.240738 
	C85.906601,233.421265 86.508636,234.546555 87.341667,236.333237 
	C91.055534,227.575180 94.394287,219.451172 97.997322,211.446136 
	C98.613884,210.076279 100.359001,209.214371 101.582771,208.117813 
	C102.499298,209.435486 103.969978,210.647537 104.244446,212.087585 
	C106.386406,223.325836 108.298447,234.607895 110.281166,245.874588 
	C106.504372,247.764053 104.633194,246.983749 104.103462,243.051910 
	C103.203163,236.369583 102.174225,229.702896 101.065094,223.052032 
	C100.879135,221.936996 100.015953,220.934906 99.180687,219.334579 
	C95.361237,228.663406 91.908951,237.207565 88.288887,245.680054 
	C88.052528,246.233246 86.529770,246.236771 85.232712,246.600494 
	C81.853767,237.662125 78.546326,228.912903 75.238884,220.163666 
	C74.731560,220.220734 74.224243,220.277802 73.716919,220.334869 
	C73.153305,223.783340 72.599525,227.233475 72.023621,230.679901 
	C71.283455,235.109314 70.667847,239.568008 69.676842,243.941177 
	C69.423782,245.057892 67.957619,245.899719 67.048813,246.867859 
	C66.235329,245.792770 65.421844,244.717682 64.701279,243.256775 
z"/>
<path fill="#998E6E" opacity="1.000000" stroke="none" 
	d="
M430.033813,216.222443 
	C429.805023,213.474075 429.576782,211.197296 429.186493,207.304184 
	C431.934174,208.589127 434.681427,209.017212 435.956238,210.617950 
	C441.552887,217.645340 446.717499,225.016403 452.054291,232.251419 
	C453.103119,233.673218 454.220703,235.044281 456.059052,237.405029 
	C456.059052,228.183472 456.136810,220.123840 456.022095,212.066971 
	C455.973969,208.688797 457.219330,207.494339 460.967621,208.640945 
	C460.967621,220.408249 461.014893,232.201004 460.882202,243.991745 
	C460.871002,244.987305 459.579254,246.836731 459.012146,246.787766 
	C457.566833,246.662949 455.689453,246.069321 454.875092,244.991058 
	C449.256134,237.551102 443.865082,229.938980 438.400757,222.382263 
	C437.475372,221.102524 436.549744,219.822968 434.959656,217.624481 
	C434.959656,226.702667 434.913330,234.618179 434.982819,242.532684 
	C435.009949,245.621353 434.075714,247.376007 430.034363,246.483185 
	C430.034363,236.581497 430.034363,226.637756 430.033813,216.222443 
z"/>
<path fill="#968B6A" opacity="1.000000" stroke="none" 
	d="
M285.330994,157.527649 
	C288.740967,148.184189 295.123352,143.429062 304.061768,143.262405 
	C312.149933,143.111603 319.210358,147.678268 322.185455,154.984818 
	C325.619934,163.419556 323.656219,173.090485 317.335693,178.868805 
	C311.993652,183.752594 301.795807,184.940353 294.777466,181.496246 
	C288.090363,178.214691 284.037445,170.571213 284.671448,162.364655 
	C284.786530,160.874771 285.041412,159.395691 285.330994,157.527649 
M294.328461,151.913986 
	C290.045959,157.005753 289.948364,163.030548 291.350281,168.932373 
	C292.716156,174.682541 296.708923,178.345078 302.780975,179.346588 
	C307.672180,180.153305 311.789062,178.487061 314.586273,174.642548 
	C317.854156,170.151184 318.462433,164.921234 317.335144,159.431305 
	C314.947876,147.805618 303.877502,143.794022 294.328461,151.913986 
z"/>
<path fill="#998E6E" opacity="1.000000" stroke="none" 
	d="
M184.857635,215.282486 
	C192.149811,226.779602 188.632996,246.209244 168.198639,247.045029 
	C155.163681,247.578186 155.158875,247.520279 155.144958,234.423096 
	C155.137161,227.091949 155.039642,219.758224 155.228058,212.431992 
	C155.262115,211.107834 156.378204,208.751465 157.180740,208.668396 
	C166.999496,207.651886 176.972076,206.467133 184.857635,215.282486 
M160.904190,231.465515 
	C160.906631,233.796448 160.653015,236.166458 161.000900,238.444641 
	C161.235535,239.981201 162.486771,242.711349 162.996231,242.646683 
	C167.636658,242.057632 172.825455,242.022018 176.667206,239.785812 
	C182.511948,236.383728 183.965134,226.587357 180.907379,219.917267 
	C178.366638,214.374969 170.170425,210.579697 163.412933,212.159210 
	C162.379028,212.400864 161.097641,214.302124 161.032455,215.495956 
	C160.760559,220.476257 160.909424,225.479523 160.904190,231.465515 
z"/>
<path fill="#92855E" opacity="1.000000" stroke="none" 
	d="
M521.062073,45.003983 
	C521.062561,53.490475 521.027344,61.478310 521.074768,69.465652 
	C521.106567,74.818405 519.686035,80.823029 526.803589,83.638428 
	C520.016541,83.638428 513.229492,83.638428 506.442413,83.638428 
	C512.971802,80.125671 511.787903,74.016006 511.820953,68.372086 
	C511.861877,61.383156 511.687164,54.389854 511.879944,47.406013 
	C512.008301,42.756992 511.728790,38.648720 504.255981,37.813023 
	C510.450134,34.273491 515.238159,31.537466 521.061584,28.209764 
	C521.061584,34.380676 521.061584,39.442898 521.062073,45.003983 
z"/>
<path fill="#998E6E" opacity="1.000000" stroke="none" 
	d="
M561.407715,238.601868 
	C558.630920,235.553970 558.603027,229.818893 551.782349,231.090103 
	C551.782349,234.763062 551.630066,238.509125 551.824951,242.237030 
	C552.021545,245.999435 550.643860,247.580963 546.134216,246.458054 
	C546.134216,241.394409 546.133850,236.141617 546.134277,230.888824 
	C546.134766,224.726028 546.257446,218.559814 546.085022,212.401871 
	C546.000244,209.376312 547.212341,208.108109 550.116394,208.122696 
	C552.780151,208.136078 555.457214,207.912537 558.105225,208.107605 
	C562.541748,208.434433 566.203735,210.265335 567.886841,214.662277 
	C569.584900,219.097946 568.774475,223.194290 565.455322,226.663788 
	C564.658569,227.496674 563.640869,228.118149 562.251099,229.208450 
	C566.177979,235.060532 569.825989,240.497131 573.641235,246.182922 
	C569.947327,247.782654 567.176270,247.031006 565.021179,243.825424 
	C563.907532,242.168930 562.755676,240.538101 561.407715,238.601868 
M551.769287,222.356247 
	C551.882080,223.787170 551.994812,225.218109 552.105103,226.617569 
	C556.107605,227.276459 560.051331,227.565857 561.436768,223.565781 
	C562.345093,220.943405 562.409973,216.921921 560.951782,214.893707 
	C559.451050,212.806351 555.643005,212.377869 551.767639,210.779297 
	C551.767639,215.520844 551.767639,218.463013 551.769287,222.356247 
z"/>
<path fill="#92855E" opacity="1.000000" stroke="none" 
	d="
M449.784668,81.377663 
	C450.796722,81.983246 451.449188,82.409988 453.174805,83.538651 
	C445.192383,83.538651 438.403900,83.538651 430.340546,83.538651 
	C438.746857,79.592522 436.833710,72.713287 436.942169,66.531555 
	C437.056000,60.045982 436.830383,53.552959 437.014771,47.070633 
	C437.143341,42.551445 436.802460,38.600231 429.435699,37.860348 
	C435.616882,34.298466 440.371277,31.558783 445.919617,28.361578 
	C446.043579,30.983347 446.193024,32.708668 446.195953,34.434238 
	C446.217743,47.243000 446.023804,60.056686 446.358307,72.856789 
	C446.431610,75.662262 448.354156,78.419418 449.784668,81.377663 
z"/>
<path fill="#948968" opacity="1.000000" stroke="none" 
	d="
M124.374367,146.685959 
	C125.706100,145.576004 127.037102,144.896820 128.368103,144.217636 
	C128.899246,145.463303 129.775436,146.676285 129.897171,147.960754 
	C130.269470,151.888855 128.888229,157.842346 130.895813,159.312958 
	C133.781143,161.426544 139.050446,160.318405 143.305389,160.515091 
	C145.272446,160.606033 147.247177,160.530609 149.898865,160.530609 
	C149.898865,156.294556 150.057251,152.513412 149.854355,148.751755 
	C149.651260,144.986481 150.923065,143.379868 155.140869,144.643600 
	C155.140869,147.490112 155.111984,150.410202 155.146347,153.329575 
	C155.244095,161.634415 155.208054,169.945526 155.550964,178.240692 
	C155.712769,182.154602 154.319458,183.470947 150.005692,182.486176 
	C150.005692,176.902557 150.005692,171.172241 150.005692,165.128021 
	C143.177963,165.128021 136.957397,165.128021 129.964493,165.128021 
	C129.964493,169.670670 130.022186,174.092010 129.947952,178.511124 
	C129.876389,182.770645 129.692856,182.863205 124.373634,182.361954 
	C124.373634,170.644485 124.373634,158.880615 124.374367,146.685959 
z"/>
<path fill="#968C6C" opacity="1.000000" stroke="none" 
	d="
M228.600739,145.035889 
	C236.397400,148.978394 237.924744,157.160797 231.993973,163.143234 
	C229.807251,165.348999 229.947510,166.782104 231.556686,168.993454 
	C234.657547,173.254745 237.573654,177.650497 240.765503,182.279251 
	C237.000488,183.715530 234.183136,182.980423 232.058929,179.802277 
	C229.845703,176.490936 227.873932,172.991745 225.397522,169.893692 
	C224.122482,168.298599 221.979599,167.397247 220.228867,166.182404 
	C219.791763,166.562576 219.354660,166.942734 218.917557,167.322891 
	C218.917557,170.942139 218.762680,174.569794 218.958298,178.178436 
	C219.182693,182.317780 217.403076,183.570160 213.322083,182.492523 
	C213.322083,170.244659 213.322083,158.008987 213.322083,144.935196 
	C218.280319,144.935196 223.246048,144.935196 228.600739,145.035889 
M220.519577,162.986771 
	C224.047470,163.391251 227.706909,163.092392 228.753067,159.226715 
	C229.459641,156.615936 229.310425,153.137466 228.097321,150.796906 
	C226.407761,147.537109 222.790253,147.418030 218.617615,148.521057 
	C218.968445,153.340927 219.311264,158.051041 220.519577,162.986771 
z"/>
<path fill="#968B6A" opacity="1.000000" stroke="none" 
	d="
M336.082703,152.141388 
	C336.082520,149.678635 336.082520,147.696136 336.082520,145.850723 
	C343.312347,142.648819 352.937439,143.771515 356.338470,148.043152 
	C360.226044,152.925858 359.200470,158.288300 352.657318,166.079361 
	C356.215302,171.286499 359.846802,176.601242 363.749054,182.312225 
	C360.041351,183.666107 357.217865,183.012894 355.088074,179.840897 
	C352.862885,176.526703 350.921387,172.994705 348.437866,169.892548 
	C347.156311,168.291748 344.967560,167.417206 343.188690,166.214508 
	C342.770691,166.593979 342.352661,166.973450 341.934662,167.352921 
	C341.934662,170.984116 341.766693,174.625137 341.978485,178.243942 
	C342.226685,182.485199 340.307098,183.539902 336.082855,182.438492 
	C336.082855,172.531418 336.082855,162.576523 336.082703,152.141388 
M341.916992,153.600464 
	C341.916992,156.670868 341.916992,159.741272 341.916992,162.811676 
	C342.409271,163.217178 342.901550,163.622681 343.393829,164.028168 
	C346.114410,162.670364 349.886749,161.967667 351.256470,159.768494 
	C352.596405,157.617142 352.549744,153.240204 351.157928,151.127045 
	C349.726257,148.953400 345.933472,148.334946 342.317017,146.632614 
	C342.110168,149.755859 342.014130,151.205811 341.916992,153.600464 
z"/>
<path fill="#948968" opacity="1.000000" stroke="none" 
	d="
M258.984985,183.071136 
	C250.884216,182.704910 250.884201,182.704910 250.884201,175.245544 
	C250.884216,165.293533 250.884216,155.341537 250.884216,145.210602 
	C257.701935,143.597839 264.292450,142.427200 269.483185,147.642609 
	C273.559692,151.738480 272.010132,156.488312 268.458923,160.802307 
	C272.851746,163.929031 275.439850,167.789398 274.520081,173.163330 
	C273.378387,179.833908 268.812408,182.794479 258.984985,183.071136 
M261.996368,163.935593 
	C260.235260,163.935593 258.474121,163.935593 256.525116,163.935593 
	C256.525116,169.229462 256.525116,173.947006 256.525116,178.584854 
	C262.577423,180.107498 266.821838,178.390411 268.345306,174.004166 
	C269.878265,169.590591 268.076660,166.348846 261.996368,163.935593 
M262.829590,159.797409 
	C266.450348,157.559448 266.961670,154.263672 265.107117,150.888046 
	C263.239807,147.489182 259.963989,147.463348 256.473602,148.406616 
	C256.473602,152.278549 256.473602,155.830490 256.473602,159.927551 
	C258.482605,159.927551 260.239044,159.927551 262.829590,159.797409 
z"/>
<path fill="#968B6A" opacity="1.000000" stroke="none" 
	d="
M269.025513,223.931580 
	C270.973267,219.480255 272.703918,215.340820 274.668335,211.315475 
	C275.266541,210.089722 276.622925,208.241302 277.429932,208.339493 
	C278.684692,208.492172 280.281128,209.837128 280.834351,211.077438 
	C283.537354,217.137802 285.921234,223.339828 288.459442,229.474594 
	C290.666687,234.809402 292.929352,240.121292 295.247711,245.634079 
	C291.720062,247.714127 288.922241,247.346054 288.176422,243.535385 
	C286.629883,235.633591 281.864166,234.001022 274.612213,234.718948 
	C270.961487,235.080368 268.716614,235.845963 267.706635,239.466049 
	C267.266357,241.044067 266.256134,242.453995 265.687683,244.007217 
	C264.555756,247.100006 262.602478,247.587936 259.170013,245.756256 
	C262.410614,238.604706 265.654449,231.446014 269.025513,223.931580 
M278.931427,219.848984 
	C278.489288,219.071091 278.047119,218.293198 277.224670,216.846191 
	C275.170898,221.740341 273.404846,225.948837 271.442169,230.625946 
	C275.695618,230.625946 279.087585,230.625946 283.097687,230.625946 
	C281.681458,226.968170 280.433014,223.743805 278.931427,219.848984 
z"/>
<path fill="#948968" opacity="1.000000" stroke="none" 
	d="
M189.081360,149.902496 
	C193.507339,160.685944 197.811737,171.109756 202.197876,181.731537 
	C198.469513,183.808197 196.263626,183.169968 194.880981,179.147324 
	C193.934814,176.394516 192.863419,172.179337 190.933899,171.584839 
	C186.975189,170.365189 182.323959,170.659058 178.123413,171.344543 
	C176.589539,171.594879 175.406158,174.655960 174.283264,176.564407 
	C173.278397,178.272247 172.940582,180.526047 171.614929,181.838440 
	C170.710693,182.733627 168.613113,182.423462 165.829529,182.830612 
	C170.696884,172.001572 174.967529,162.496017 179.242661,152.992508 
	C179.992996,151.324524 180.632462,149.587997 181.561401,148.024704 
	C182.378235,146.650101 183.528748,145.473770 184.531876,144.209869 
	C185.728867,145.383850 186.972778,146.515182 188.098862,147.753632 
	C188.525604,148.222946 188.680801,148.939194 189.081360,149.902496 
M180.482376,161.876953 
	C179.835464,163.424454 179.188553,164.971954 178.514267,166.584930 
	C182.673523,166.584930 186.169052,166.584930 190.203934,166.584930 
	C188.294037,161.823776 186.598007,157.595749 184.491852,152.345291 
	C182.937485,156.066406 181.864639,158.634766 180.482376,161.876953 
z"/>
<path fill="#968C6C" opacity="1.000000" stroke="none" 
	d="
M364.141479,245.036133 
	C354.572998,239.039139 351.404785,226.775024 356.707001,217.406067 
	C361.631409,208.704681 374.895996,204.511887 383.795593,208.995163 
	C384.846375,209.524490 385.406433,211.027908 386.193970,212.079788 
	C384.923096,212.383255 383.633545,212.993103 382.385773,212.917114 
	C380.591583,212.807861 378.845459,211.991440 377.048065,211.838821 
	C367.561646,211.033356 361.067963,216.517975 360.536285,225.659378 
	C359.931335,236.061172 365.498322,242.733475 375.259399,242.959229 
	C378.670563,243.038147 382.097107,242.453812 385.646240,242.161697 
	C383.320557,248.037003 374.304810,249.216187 364.141479,245.036133 
z"/>
<path fill="#968C6C" opacity="1.000000" stroke="none" 
	d="
M128.749557,233.130219 
	C128.911499,243.658783 127.260033,242.334778 137.871445,242.458328 
	C139.798645,242.480774 141.726334,242.461533 143.653793,242.461533 
	C143.881195,242.949738 144.108612,243.437943 144.336029,243.926132 
	C142.931229,244.888016 141.553192,245.893555 140.103394,246.781998 
	C139.727325,247.012451 139.126892,246.878448 138.629349,246.908875 
	C122.949615,247.867752 122.939323,247.867676 122.956406,232.146393 
	C122.964348,224.833786 123.016808,217.521194 123.070518,210.208755 
	C123.072784,209.899872 123.291977,209.592575 123.626472,208.720322 
	C129.616089,208.720322 135.830215,208.720322 142.023560,208.720322 
	C141.438461,211.182343 141.438461,211.182343 129.108948,213.207031 
	C129.108948,216.847687 129.108948,220.550339 129.108948,224.860199 
	C133.426743,224.860199 137.493362,224.860199 141.894592,224.860199 
	C140.904800,230.668137 136.808182,228.618561 133.962509,228.970184 
	C131.464066,229.278885 128.220840,228.183304 128.749557,233.130219 
z"/>
<path fill="#968B6A" opacity="1.000000" stroke="none" 
	d="
M398.170959,159.205536 
	C395.358734,166.014832 392.841431,172.538010 389.919495,178.874619 
	C389.144684,180.554886 387.125793,181.661484 385.678101,183.031464 
	C384.530029,181.606537 382.949768,180.353500 382.303680,178.728912 
	C377.953156,167.790070 373.800842,156.772400 369.591217,145.798233 
	C373.248840,142.966461 375.230530,144.457748 376.591827,148.206329 
	C379.692383,156.744476 382.896423,165.245056 386.558685,175.108170 
	C390.068146,166.066147 393.062134,158.348816 396.059814,150.632904 
	C396.481354,149.548004 396.663391,148.220169 397.412781,147.447495 
	C398.547455,146.277542 400.082825,145.496231 401.447937,144.549774 
	C401.669556,146.241425 402.428284,148.085159 402.001373,149.593201 
	C401.101440,152.771820 399.580475,155.774628 398.170959,159.205536 
z"/>
<path fill="#968B6A" opacity="1.000000" stroke="none" 
	d="
M513.884583,227.999237 
	C513.884155,222.515015 514.084351,217.519241 513.811829,212.549377 
	C513.637329,209.367249 515.215881,208.319870 517.842102,208.259369 
	C522.787048,208.145493 527.736511,208.226532 532.756287,208.226532 
	C532.116150,211.695923 532.116150,211.695923 520.127686,213.020462 
	C520.127686,216.659836 520.127686,220.363953 520.127686,224.651871 
	C524.141968,224.651871 528.212097,224.651871 532.282288,224.651871 
	C532.440430,225.289413 532.598572,225.926956 532.756775,226.564499 
	C530.035095,231.451721 524.095764,227.463760 520.210999,229.645935 
	C520.087952,229.954315 519.782837,230.389618 519.752197,230.843399 
	C518.971069,242.428284 518.976135,242.429062 530.521729,242.470306 
	C531.828552,242.474976 533.135376,242.470947 534.442200,242.470947 
	C534.715088,242.914093 534.987976,243.357254 535.260864,243.800400 
	C533.796570,244.810349 532.393250,246.563614 530.856384,246.689651 
	C526.404968,247.054703 521.899414,246.797180 517.416138,246.722168 
	C514.642090,246.675751 513.786804,245.063431 513.852783,242.455261 
	C513.970459,237.805771 513.885315,233.151123 513.884583,227.999237 
z"/>
<path fill="#9A9071" opacity="1.000000" stroke="none" 
	d="
M448.737854,178.829330 
	C451.122528,178.829453 453.081757,178.829453 456.552124,178.829453 
	C454.625458,180.648605 453.602386,181.840988 452.349701,182.697662 
	C451.762299,183.099365 450.732269,182.854584 449.902740,182.901352 
	C434.181183,183.787735 434.184082,183.787704 434.193359,168.199722 
	C434.197113,161.876785 434.403351,155.543030 434.090332,149.235397 
	C433.929626,145.996811 435.050476,144.494141 438.092682,144.437637 
	C443.187134,144.343018 448.284637,144.411789 454.288696,144.411789 
	C450.741760,151.333176 444.476837,146.860077 440.197571,149.373001 
	C440.197571,152.929703 440.197571,156.647690 440.197571,160.913544 
	C444.580750,160.913544 448.669037,160.913544 453.644470,160.913544 
	C450.355621,167.781525 444.532959,163.338562 440.319336,165.704926 
	C440.319336,169.333069 440.319336,173.380463 440.319336,178.212234 
	C442.874359,178.409454 445.593384,178.619324 448.737854,178.829330 
z"/>
<path fill="#968B6A" opacity="1.000000" stroke="none" 
	d="
M243.151489,247.115417 
	C227.169891,248.683258 217.803421,240.140152 218.955521,225.369553 
	C220.168060,209.824112 236.537933,204.058945 248.429825,209.076309 
	C249.427933,209.497421 249.891296,211.185928 250.603088,212.285645 
	C249.455154,212.544083 248.283264,213.087463 247.164948,212.993454 
	C245.534119,212.856323 243.962845,212.080414 242.329697,211.890427 
	C232.355896,210.730255 225.480148,216.257355 224.881042,225.821762 
	C224.227646,236.252441 230.123077,242.913696 240.342285,243.011597 
	C243.444580,243.041321 246.552765,242.453934 249.941986,242.121338 
	C249.492584,246.356461 246.499557,246.681824 243.151489,247.115417 
z"/>
<path fill="#968B6A" opacity="1.000000" stroke="none" 
	d="
M405.201660,208.164703 
	C409.282928,208.165192 412.898773,208.165192 417.428619,208.165192 
	C414.057739,215.443756 407.804199,210.935593 403.070801,213.602112 
	C403.070801,216.114014 402.799896,219.248627 403.226044,222.285400 
	C403.364532,223.272202 405.261292,224.606903 406.465088,224.734711 
	C409.687134,225.076813 412.969452,224.851288 416.484253,224.851288 
	C415.465210,227.395676 415.465210,227.395676 403.613647,229.603912 
	C403.502808,229.726135 403.309845,229.837921 403.292755,229.972076 
	C401.704559,242.451859 401.705444,242.452194 414.017609,242.469681 
	C415.462585,242.471741 416.907562,242.469940 419.084747,242.469940 
	C418.201263,244.031357 417.712128,245.741425 417.145264,245.767609 
	C411.107880,246.046494 405.054657,246.158920 399.018829,245.945984 
	C398.553009,245.929565 397.843323,243.111374 397.828400,241.589737 
	C397.724213,230.961197 397.773285,220.331131 397.773285,208.921585 
	C399.964447,208.683243 402.350372,208.423721 405.201660,208.164703 
z"/>
<path fill="#948968" opacity="1.000000" stroke="none" 
	d="
M490.168762,236.957153 
	C490.167633,239.281586 490.038116,241.125122 490.192841,242.944504 
	C490.496460,246.514862 488.774811,247.374863 484.792328,246.389755 
	C484.792328,241.037872 484.792297,235.448776 484.792297,229.859680 
	C484.792297,224.389862 484.792328,218.920044 484.792328,213.013779 
	C480.389923,212.725143 476.383789,212.462479 472.377655,212.199814 
	C472.213409,211.801880 472.049133,211.403931 471.884888,211.005997 
	C472.938080,210.051483 473.972198,208.294006 475.047455,208.268494 
	C484.287720,208.049011 493.535461,208.142456 503.010406,208.142456 
	C502.015656,211.221313 502.015656,211.221313 490.168823,213.253754 
	C490.168823,220.899765 490.168823,228.682556 490.168762,236.957153 
z"/>
<path fill="#9A9071" opacity="1.000000" stroke="none" 
	d="
M326.629517,244.554535 
	C320.493011,248.989075 314.021332,246.510712 307.755890,246.262192 
	C307.159576,246.238525 306.151794,244.526550 306.142792,243.590607 
	C306.031372,232.010513 306.070099,220.428986 306.070099,208.435699 
	C307.978119,208.317062 309.523895,208.220932 311.746094,208.082748 
	C311.746094,216.356659 311.746094,224.115128 311.746094,231.873611 
	C311.746124,242.398193 311.747345,242.325592 322.161102,242.499161 
	C323.721375,242.525177 325.264160,243.598709 326.629517,244.554535 
z"/>
<path fill="#968C6C" opacity="1.000000" stroke="none" 
	d="
M419.989746,167.994339 
	C419.984222,172.155365 420.231232,175.845306 419.833527,179.464371 
	C419.698486,180.693130 417.936981,181.743134 416.918701,182.874817 
	C415.982513,181.701050 414.258087,180.543472 414.233582,179.350998 
	C414.018219,168.868179 414.192047,158.377884 414.042389,147.892792 
	C414.005219,145.287842 415.008118,143.794144 417.344788,144.345169 
	C418.450226,144.605850 419.808533,146.708038 419.861694,148.024002 
	C420.123535,154.505646 419.986328,161.003418 419.989746,167.994339 
z"/>
<path fill="#938762" opacity="1.000000" stroke="none" 
	d="
M200.860092,214.150696 
	C200.518372,210.238297 200.425537,207.031418 206.136978,208.713394 
	C206.136978,218.024460 206.132507,227.436554 206.140549,236.848663 
	C206.142258,238.839798 206.213974,240.830948 206.211044,242.822037 
	C206.205170,246.822235 206.193115,246.822220 200.863464,246.272476 
	C200.863464,235.774628 200.863464,225.201889 200.860092,214.150696 
z"/>
<path fill="#968C6C" opacity="1.000000" stroke="none" 
	d="
M131.650269,31.201927 
	C132.860458,31.338322 133.809677,31.704988 135.140518,32.144234 
	C131.980591,41.356712 128.439026,50.496609 124.683998,59.891983 
	C123.518997,59.783588 122.567451,59.419720 121.235764,59.016739 
	C124.366837,49.795815 127.878067,40.614010 131.650269,31.201927 
z"/>
<path fill="#948863" opacity="1.000000" stroke="none" 
	d="
M441.870605,2.187473 
	C445.627686,2.887797 448.071930,4.933529 447.233856,8.344649 
	C446.711670,10.470028 444.599640,13.011053 442.591919,13.784851 
	C439.192719,15.094918 436.207458,13.162935 435.528015,9.526749 
	C434.707794,5.137325 437.092255,2.669502 441.870605,2.187473 
z"/>
<path fill="#948863" opacity="1.000000" stroke="none" 
	d="
M511.509460,4.554845 
	C516.692383,1.543575 521.546814,2.588818 521.832397,6.753744 
	C521.975647,8.841781 520.845154,11.942870 519.251404,12.964372 
	C517.652527,13.989207 514.314819,13.759275 512.536499,12.717809 
	C509.576996,10.984571 509.573853,7.833130 511.509460,4.554845 
z"/>
<path fill="#968C6C" opacity="1.000000" stroke="none" 
	d="
M65.381821,79.033417 
	C64.569252,78.092102 64.102776,77.095451 63.280117,76.032349 
	C66.194641,71.837822 69.465355,67.709740 72.961319,63.317123 
	C74.249649,63.368435 75.312729,63.684277 76.716736,64.003006 
	C75.650497,70.789589 71.776016,75.706245 65.381821,79.033417 
z"/>
<path fill="#948968" opacity="1.000000" stroke="none" 
	d="
M152.380676,77.342995 
	C154.053436,77.659500 155.720810,78.337402 157.746338,79.028381 
	C157.431107,80.827881 156.757721,82.614304 156.084351,84.400734 
	C155.609940,84.358391 155.135529,84.316040 154.661102,84.273697 
	C153.899170,82.083931 153.137222,79.894165 152.380676,77.342995 
z"/>
<path fill="#948968" opacity="1.000000" stroke="none" 
	d="
M149.117767,67.282211 
	C149.558228,67.563698 149.984482,68.133171 150.178619,68.861542 
	C149.665512,68.537041 149.384537,68.053619 149.117767,67.282211 
z"/>
<path fill="#948968" opacity="1.000000" stroke="none" 
	d="
M161.333527,70.031860 
	C161.227036,69.628738 161.353653,69.010498 161.737610,68.196915 
	C161.852173,68.606621 161.709412,69.211685 161.333527,70.031860 
z"/>
<path fill="#948968" opacity="1.000000" stroke="none" 
	d="
M144.994659,55.318935 
	C145.306046,55.538116 145.618195,56.077049 145.908875,56.947365 
	C145.590073,56.732063 145.292755,56.185375 144.994659,55.318935 
z"/>
<path fill="#948968" opacity="1.000000" stroke="none" 
	d="
M146.821442,60.254898 
	C147.015015,60.241585 147.208771,60.496387 147.247253,60.868660 
	C147.001831,60.831760 146.911713,60.677387 146.821442,60.254898 
z"/>
<path fill="#968C6C" opacity="1.000000" stroke="none" 
	d="
M37.255692,82.876282 
	C37.288864,82.724998 37.558590,82.659378 37.909569,82.743896 
	C37.824635,82.916664 37.658443,82.939308 37.255692,82.876282 
z"/>
<path fill="#968C6C" opacity="1.000000" stroke="none" 
	d="
M25.838791,79.340942 
	C26.016207,79.229034 26.343519,79.340958 26.826752,79.666138 
	C26.651342,79.774529 26.320015,79.669647 25.838791,79.340942 
z"/>
<path fill="#948968" opacity="1.000000" stroke="none" 
	d="
M144.139374,53.310173 
	C144.362289,53.315910 144.590240,53.611855 144.837036,54.197392 
	C144.618729,54.191448 144.381592,53.895916 144.139374,53.310173 
z"/>
<path fill="#948968" opacity="1.000000" stroke="none" 
	d="
M141.060822,44.324310 
	C141.293198,44.331108 141.541992,44.653278 141.808823,45.291592 
	C141.576996,45.285053 141.327118,44.962368 141.060822,44.324310 
z"/>
<path fill="#948968" opacity="1.000000" stroke="none" 
	d="
M140.163376,42.299889 
	C140.377090,42.301929 140.601257,42.580517 140.846939,43.135326 
	C140.636902,43.133179 140.405380,42.854809 140.163376,42.299889 
z"/>
<path fill="#948968" opacity="1.000000" stroke="none" 
	d="
M159.984894,73.749161 
	C159.730835,73.777145 159.590546,73.582581 159.503555,73.366547 
	C159.485779,73.322342 159.667831,73.197685 159.939987,73.048950 
	C160.120667,73.164864 160.119095,73.341942 159.984894,73.749161 
z"/>
<path fill="#968C6C" opacity="1.000000" stroke="none" 
	d="
M73.524048,18.378124 
	C73.954933,20.144907 74.270309,22.306890 74.318642,24.724937 
	C73.837250,22.911776 73.622894,20.842552 73.524048,18.378124 
z"/>
<path fill="#968C6C" opacity="1.000000" stroke="none" 
	d="
M73.882568,57.309837 
	C74.095062,58.285244 74.115417,59.544750 73.851570,60.912716 
	C73.608391,59.878761 73.649414,58.736351 73.882568,57.309837 
z"/>
<path fill="#968C6C" opacity="1.000000" stroke="none" 
	d="
M49.808876,78.739380 
	C49.135475,79.068237 48.231808,79.247856 47.143864,79.159943 
	C47.832592,78.791649 48.705601,78.690895 49.808876,78.739380 
z"/>
<path fill="#968C6C" opacity="1.000000" stroke="none" 
	d="
M40.751350,77.946915 
	C40.341976,78.112991 39.727390,78.094597 39.042976,77.846321 
	C39.497475,77.665108 40.021809,77.713776 40.751350,77.946915 
z"/>
<path fill="#968C6C" opacity="1.000000" stroke="none" 
	d="
M72.695312,12.230523 
	C73.043427,12.545469 73.286728,13.112928 73.341354,13.812824 
	C72.965294,13.457852 72.777893,12.970444 72.695312,12.230523 
z"/>
<path fill="#FDFDFA" opacity="1.000000" stroke="none" 
	d="
M396.172363,78.965210 
	C384.301697,76.826744 377.462830,66.473289 379.273773,54.002270 
	C380.899445,42.806732 385.636139,36.520142 393.787933,34.738819 
	C402.888672,32.750134 410.925171,37.986881 411.724213,47.169178 
	C412.370087,54.591312 412.061218,62.106377 411.937012,69.576248 
	C411.915619,70.861786 411.018372,72.779922 409.978912,73.288643 
	C405.629730,75.417206 401.072296,77.120193 396.172363,78.965210 
z"/>
<path fill="#948968" opacity="1.000000" stroke="none" 
	d="
M160.521347,57.653542 
	C160.593079,58.256977 160.366257,59.033146 159.861328,59.956345 
	C159.796417,59.344341 160.009598,58.585308 160.521347,57.653542 
z"/>
<path fill="#FBFBF4" opacity="1.000000" stroke="none" 
	d="
M627.688232,49.896488 
	C618.598511,49.907253 609.975830,49.907253 601.372864,49.907253 
	C600.994141,42.357265 607.633118,34.917068 615.138672,34.140297 
	C622.363342,33.392593 629.198059,38.619049 629.969604,45.808659 
	C630.106934,47.088043 628.796997,48.522743 627.688232,49.896488 
z"/>
<path fill="#FBFBF4" opacity="1.000000" stroke="none" 
	d="
M340.681396,34.114258 
	C349.473694,36.369892 353.242157,41.261971 352.797089,49.633621 
	C343.253174,49.633621 333.687897,49.633621 324.121216,49.633621 
	C324.214569,40.957478 330.804260,34.591934 340.681396,34.114258 
z"/>
<path fill="#FDFDF9" opacity="1.000000" stroke="none" 
	d="
M294.587219,151.636749 
	C303.877502,143.794022 314.947876,147.805618 317.335144,159.431305 
	C318.462433,164.921234 317.854156,170.151184 314.586273,174.642548 
	C311.789062,178.487061 307.672180,180.153305 302.780975,179.346588 
	C296.708923,178.345078 292.716156,174.682541 291.350281,168.932373 
	C289.948364,163.030548 290.045959,157.005753 294.587219,151.636749 
z"/>
<path fill="#FDFDF9" opacity="1.000000" stroke="none" 
	d="
M160.904083,230.969940 
	C160.909424,225.479523 160.760559,220.476257 161.032455,215.495956 
	C161.097641,214.302124 162.379028,212.400864 163.412933,212.159210 
	C170.170425,210.579697 178.366638,214.374969 180.907379,219.917267 
	C183.965134,226.587357 182.511948,236.383728 176.667206,239.785812 
	C172.825455,242.022018 167.636658,242.057632 162.996231,242.646683 
	C162.486771,242.711349 161.235535,239.981201 161.000900,238.444641 
	C160.653015,236.166458 160.906631,233.796448 160.904083,230.969940 
z"/>
<path fill="#FBFBF4" opacity="1.000000" stroke="none" 
	d="
M551.768433,221.880707 
	C551.767639,218.463013 551.767639,215.520844 551.767639,210.779297 
	C555.643005,212.377869 559.451050,212.806351 560.951782,214.893707 
	C562.409973,216.921921 562.345093,220.943405 561.436768,223.565781 
	C560.051331,227.565857 556.107605,227.276459 552.105103,226.617569 
	C551.994812,225.218109 551.882080,223.787170 551.768433,221.880707 
z"/>
<path fill="#FBFBF4" opacity="1.000000" stroke="none" 
	d="
M220.086838,162.873962 
	C219.311264,158.051041 218.968445,153.340927 218.617615,148.521057 
	C222.790253,147.418030 226.407761,147.537109 228.097321,150.796906 
	C229.310425,153.137466 229.459641,156.615936 228.753067,159.226715 
	C227.706909,163.092392 224.047470,163.391251 220.086838,162.873962 
z"/>
<path fill="#FBFBF4" opacity="1.000000" stroke="none" 
	d="
M341.917542,153.128113 
	C342.014130,151.205811 342.110168,149.755859 342.317017,146.632614 
	C345.933472,148.334946 349.726257,148.953400 351.157928,151.127045 
	C352.549744,153.240204 352.596405,157.617142 351.256470,159.768494 
	C349.886749,161.967667 346.114410,162.670364 343.393829,164.028168 
	C342.901550,163.622681 342.409271,163.217178 341.916992,162.811676 
	C341.916992,159.741272 341.916992,156.670868 341.917542,153.128113 
z"/>
<path fill="#FBFBF4" opacity="1.000000" stroke="none" 
	d="
M262.411835,164.005493 
	C268.076660,166.348846 269.878265,169.590591 268.345306,174.004166 
	C266.821838,178.390411 262.577423,180.107498 256.525116,178.584854 
	C256.525116,173.947006 256.525116,169.229462 256.525116,163.935593 
	C258.474121,163.935593 260.235260,163.935593 262.411835,164.005493 
z"/>
<path fill="#FBFBF4" opacity="1.000000" stroke="none" 
	d="
M262.412537,159.862488 
	C260.239044,159.927551 258.482605,159.927551 256.473602,159.927551 
	C256.473602,155.830490 256.473602,152.278549 256.473602,148.406616 
	C259.963989,147.463348 263.239807,147.489182 265.107117,150.888046 
	C266.961670,154.263672 266.450348,157.559448 262.412537,159.862488 
z"/>
<path fill="#FBFBF4" opacity="1.000000" stroke="none" 
	d="
M279.057983,220.184204 
	C280.433014,223.743805 281.681458,226.968170 283.097687,230.625946 
	C279.087585,230.625946 275.695618,230.625946 271.442169,230.625946 
	C273.404846,225.948837 275.170898,221.740341 277.224670,216.846191 
	C278.047119,218.293198 278.489288,219.071091 279.057983,220.184204 
z"/>
<path fill="#FBFBF4" opacity="1.000000" stroke="none" 
	d="
M180.637085,161.540039 
	C181.864639,158.634766 182.937485,156.066406 184.491852,152.345291 
	C186.598007,157.595749 188.294037,161.823776 190.203934,166.584930 
	C186.169052,166.584930 182.673523,166.584930 178.514267,166.584930 
	C179.188553,164.971954 179.835464,163.424454 180.637085,161.540039 
z"/>
</svg>