<svg version="1.1" id="Layer_1" xmlns="http://www.w3.org/2000/svg" xmlns:xlink="http://www.w3.org/1999/xlink" x="0px" y="0px"
	 width="100%" viewBox="0 0 5000 3125" enable-background="new 0 0 5000 3125" xml:space="preserve">
<path fill="#47704C" opacity="1.000000" stroke="none" 
	d="
M3534.000000,3128.000000 
	C2356.000000,3128.000000 1179.000000,3128.000000 2.000000,3128.000000 
	C2.000000,2086.000000 2.000000,1044.000000 2.000000,2.000000 
	C1668.666626,2.000000 3335.333252,2.000000 5002.000000,2.000000 
	C5002.000000,1044.000000 5002.000000,2086.000000 5002.000000,3128.000000 
	C4513.000000,3128.000000 4024.000000,3128.000000 3534.000000,3128.000000 
M2848.999023,665.877502 
	C2833.024414,665.960022 2817.049805,666.079407 2801.075195,666.119385 
	C2642.434570,666.516418 2483.793701,666.936035 2325.153076,667.277710 
	C2171.504639,667.608582 2017.855957,667.823547 1864.207520,668.147888 
	C1684.587402,668.527039 1504.967407,668.990173 1325.347290,669.368408 
	C1285.382080,669.452576 1245.415527,669.479126 1205.451050,669.271301 
	C1160.811035,669.039185 1116.171631,668.607788 1071.534180,668.075134 
	C1042.240845,667.725586 1013.109253,665.199402 984.293762,659.836304 
	C954.318481,654.257385 925.666992,644.789856 899.522461,628.767822 
	C861.390015,605.399170 830.014099,574.225159 799.949097,541.625854 
	C789.218323,529.990479 778.987183,517.894409 767.967468,505.371735 
	C765.118652,510.280792 762.517334,514.446899 760.218445,518.773682 
	C736.807068,562.838440 713.514343,606.966309 690.051697,651.003601 
	C658.924927,709.425537 627.642395,767.764526 596.488953,826.172363 
	C561.427063,891.907898 526.436584,957.681519 491.410614,1023.436218 
	C461.544525,1079.504150 431.678192,1135.571777 401.800964,1191.633789 
	C372.384888,1246.830444 342.997864,1302.042480 313.519104,1357.205566 
	C283.114441,1414.101562 252.701874,1470.993530 222.130554,1527.799927 
	C194.379211,1579.366333 167.555756,1631.395996 144.149902,1685.099243 
	C121.661354,1736.697876 102.055962,1789.235596 92.919411,1845.172607 
	C87.189224,1880.254883 86.812759,1915.152832 93.225983,1950.178711 
	C100.915161,1992.173340 118.509140,2029.768311 142.532944,2064.720459 
	C171.535156,2106.915771 209.899399,2137.861816 255.935944,2159.549072 
	C292.001709,2176.538818 330.241241,2186.563965 369.371124,2193.277344 
	C420.977875,2202.131348 473.192291,2204.740479 525.365723,2205.088623 
	C647.020386,2205.900635 768.684204,2205.347412 890.344299,2205.347412 
	C1773.965820,2205.347412 2657.587158,2205.342529 3541.208740,2205.379395 
	C3561.858154,2205.380127 3582.509521,2205.750244 3603.156250,2206.147461 
	C3614.792725,2206.371582 3626.427979,2206.876221 3638.052246,2207.478516 
	C3661.268311,2208.681152 3684.477295,2210.014404 3707.686768,2211.338379 
	C3735.862305,2212.945312 3764.076416,2214.083740 3792.198975,2216.353760 
	C3831.955322,2219.562988 3871.695557,2223.136963 3911.345459,2227.450195 
	C3953.937500,2232.083252 3996.496582,2237.184814 4038.919678,2243.152100 
	C4072.134766,2247.824463 4105.078125,2254.395996 4138.222656,2259.615967 
	C4159.777832,2263.010498 4180.362305,2268.884277 4199.207520,2280.077393 
	C4216.833984,2290.546875 4230.690430,2304.435547 4238.321777,2323.880859 
	C4246.536621,2344.814209 4246.061523,2366.193115 4241.151367,2387.621338 
	C4234.051270,2418.605469 4221.387207,2447.530762 4207.171387,2475.784668 
	C4178.176758,2533.410156 4141.885254,2586.237793 4101.121094,2636.093018 
	C4098.713379,2639.037598 4096.338867,2642.009033 4093.948975,2644.968018 
	C4099.934570,2645.789062 4104.729492,2644.638184 4109.589355,2644.187744 
	C4145.283691,2640.880371 4179.444824,2631.124268 4213.043945,2619.288574 
	C4259.782715,2602.824463 4302.601562,2578.946289 4343.562988,2551.122314 
	C4387.152832,2521.513184 4428.149902,2488.783447 4466.806641,2453.136230 
	C4489.048828,2432.624756 4510.390625,2411.100098 4531.534668,2389.443115 
	C4549.418457,2371.124756 4566.866699,2352.338135 4583.745117,2333.090088 
	C4619.033691,2292.847656 4652.543945,2251.148438 4684.209473,2207.973145 
	C4732.465820,2142.176514 4777.794434,2074.523926 4816.791016,2002.724976 
	C4843.994629,1952.638672 4867.439453,1900.946777 4886.034180,1847.066162 
	C4899.383301,1808.383789 4909.788086,1768.947266 4916.638672,1728.574341 
	C4924.836426,1680.259033 4928.688965,1631.836182 4924.579102,1582.750488 
	C4920.869629,1538.447876 4912.607910,1495.311035 4897.761230,1453.417969 
	C4884.020508,1414.647095 4865.601562,1378.201294 4842.626465,1344.144287 
	C4820.816406,1311.813721 4795.590332,1282.358276 4767.343262,1255.350464 
	C4736.914551,1226.256714 4703.859863,1200.679688 4668.610352,1177.820557 
	C4626.049316,1150.220215 4580.598633,1128.236450 4534.222168,1107.892334 
	C4462.222168,1076.308228 4388.181152,1050.476440 4312.959473,1027.888794 
	C4246.689941,1007.989380 4179.689453,990.823669 4111.855957,977.234985 
	C4056.486328,966.142944 4000.937744,955.819824 3945.236572,946.548523 
	C3907.259033,940.227295 3868.872070,936.376953 3830.699951,931.188416 
	C3827.336426,930.731262 3823.485352,929.299194 3821.094482,927.023560 
	C3809.294678,915.792542 3797.996094,904.037170 3786.361816,892.628845 
	C3761.099365,867.857300 3733.172852,846.342407 3703.944092,826.552063 
	C3639.825195,783.137329 3570.032959,751.351135 3496.393311,728.175781 
	C3438.956543,710.099609 3380.264893,696.993591 3320.651123,688.051086 
	C3264.161377,679.577271 3207.375000,674.015869 3150.419678,670.280762 
	C3117.888916,668.147461 3085.270996,666.613831 3052.678223,666.301697 
	C2985.456787,665.657898 2918.226074,666.013794 2848.999023,665.877502 
z"/>
<path fill="#FDFEFE" opacity="1.000000" stroke="none" 
	d="
M2849.999023,665.917969 
	C2918.226074,666.013794 2985.456787,665.657898 3052.678223,666.301697 
	C3085.270996,666.613831 3117.888916,668.147461 3150.419678,670.280762 
	C3207.375000,674.015869 3264.161377,679.577271 3320.651123,688.051086 
	C3380.264893,696.993591 3438.956543,710.099609 3496.393311,728.175781 
	C3570.032959,751.351135 3639.825195,783.137329 3703.944092,826.552063 
	C3733.172852,846.342407 3761.099365,867.857300 3786.361816,892.628845 
	C3797.996094,904.037170 3809.294678,915.792542 3821.094482,927.023560 
	C3823.485352,929.299194 3827.336426,930.731262 3830.699951,931.188416 
	C3868.872070,936.376953 3907.259033,940.227295 3945.236572,946.548523 
	C4000.937744,955.819824 4056.486328,966.142944 4111.855957,977.234985 
	C4179.689453,990.823669 4246.689941,1007.989380 4312.959473,1027.888794 
	C4388.181152,1050.476440 4462.222168,1076.308228 4534.222168,1107.892334 
	C4580.598633,1128.236450 4626.049316,1150.220215 4668.610352,1177.820557 
	C4703.859863,1200.679688 4736.914551,1226.256714 4767.343262,1255.350464 
	C4795.590332,1282.358276 4820.816406,1311.813721 4842.626465,1344.144287 
	C4865.601562,1378.201294 4884.020508,1414.647095 4897.761230,1453.417969 
	C4912.607910,1495.311035 4920.869629,1538.447876 4924.579102,1582.750488 
	C4928.688965,1631.836182 4924.836426,1680.259033 4916.638672,1728.574341 
	C4909.788086,1768.947266 4899.383301,1808.383789 4886.034180,1847.066162 
	C4867.439453,1900.946777 4843.994629,1952.638672 4816.791016,2002.724976 
	C4777.794434,2074.523926 4732.465820,2142.176514 4684.209473,2207.973145 
	C4652.543945,2251.148438 4619.033691,2292.847656 4583.745117,2333.090088 
	C4566.866699,2352.338135 4549.418457,2371.124756 4531.534668,2389.443115 
	C4510.390625,2411.100098 4489.048828,2432.624756 4466.806641,2453.136230 
	C4428.149902,2488.783447 4387.152832,2521.513184 4343.562988,2551.122314 
	C4302.601562,2578.946289 4259.782715,2602.824463 4213.043945,2619.288574 
	C4179.444824,2631.124268 4145.283691,2640.880371 4109.589355,2644.187744 
	C4104.729492,2644.638184 4099.934570,2645.789062 4093.948975,2644.968018 
	C4096.338867,2642.009033 4098.713379,2639.037598 4101.121094,2636.093018 
	C4141.885254,2586.237793 4178.176758,2533.410156 4207.171387,2475.784668 
	C4221.387207,2447.530762 4234.051270,2418.605469 4241.151367,2387.621338 
	C4246.061523,2366.193115 4246.536621,2344.814209 4238.321777,2323.880859 
	C4230.690430,2304.435547 4216.833984,2290.546875 4199.207520,2280.077393 
	C4180.362305,2268.884277 4159.777832,2263.010498 4138.222656,2259.615967 
	C4105.078125,2254.395996 4072.134766,2247.824463 4038.919678,2243.152100 
	C3996.496582,2237.184814 3953.937500,2232.083252 3911.345459,2227.450195 
	C3871.695557,2223.136963 3831.955322,2219.562988 3792.198975,2216.353760 
	C3764.076416,2214.083740 3735.862305,2212.945312 3707.686768,2211.338379 
	C3684.477295,2210.014404 3661.268311,2208.681152 3638.052246,2207.478516 
	C3626.427979,2206.876221 3614.792725,2206.371582 3603.156250,2206.147461 
	C3582.509521,2205.750244 3561.858154,2205.380127 3541.208740,2205.379395 
	C2657.587158,2205.342529 1773.965820,2205.347412 890.344299,2205.347412 
	C768.684204,2205.347412 647.020386,2205.900635 525.365723,2205.088623 
	C473.192291,2204.740479 420.977875,2202.131348 369.371124,2193.277344 
	C330.241241,2186.563965 292.001709,2176.538818 255.935944,2159.549072 
	C209.899399,2137.861816 171.535156,2106.915771 142.532944,2064.720459 
	C118.509140,2029.768311 100.915161,1992.173340 93.225983,1950.178711 
	C86.812759,1915.152832 87.189224,1880.254883 92.919411,1845.172607 
	C102.055962,1789.235596 121.661354,1736.697876 144.149902,1685.099243 
	C167.555756,1631.395996 194.379211,1579.366333 222.130554,1527.799927 
	C252.701874,1470.993530 283.114441,1414.101562 313.519104,1357.205566 
	C342.997864,1302.042480 372.384888,1246.830444 401.800964,1191.633789 
	C431.678192,1135.571777 461.544525,1079.504150 491.410614,1023.436218 
	C526.436584,957.681519 561.427063,891.907898 596.488953,826.172363 
	C627.642395,767.764526 658.924927,709.425537 690.051697,651.003601 
	C713.514343,606.966309 736.807068,562.838440 760.218445,518.773682 
	C762.517334,514.446899 765.118652,510.280792 767.967468,505.371735 
	C778.987183,517.894409 789.218323,529.990479 799.949097,541.625854 
	C830.014099,574.225159 861.390015,605.399170 899.522461,628.767822 
	C925.666992,644.789856 954.318481,654.257385 984.293762,659.836304 
	C1013.109253,665.199402 1042.240845,667.725586 1071.534180,668.075134 
	C1116.171631,668.607788 1160.811035,669.039185 1205.451050,669.271301 
	C1245.415527,669.479126 1285.382080,669.452576 1325.347290,669.368408 
	C1504.967407,668.990173 1684.587402,668.527039 1864.207520,668.147888 
	C2017.855957,667.823547 2171.504639,667.608582 2325.153076,667.277710 
	C2483.793701,666.936035 2642.434570,666.516418 2801.075195,666.119385 
	C2817.049805,666.079407 2833.024414,665.960022 2849.999023,665.917969 
M3310.999756,2121.373291 
	C3383.668701,2121.279785 3456.340332,2120.770020 3529.005615,2121.252197 
	C3570.983643,2121.530762 3612.989990,2122.635498 3654.913818,2124.752686 
	C3715.798584,2127.827393 3776.641846,2131.845703 3837.460449,2136.072754 
	C3868.688721,2138.243164 3899.895996,2141.131348 3930.986084,2144.778320 
	C3975.966064,2150.054443 4020.961182,2155.471680 4065.705811,2162.405518 
	C4105.144043,2168.516846 4144.435547,2175.919678 4183.441895,2184.370117 
	C4217.823242,2191.818604 4250.235352,2204.942139 4278.938477,2225.927002 
	C4308.642578,2247.644043 4328.395996,2275.927979 4335.217285,2312.532471 
	C4340.199219,2339.267090 4337.649902,2365.616455 4330.826660,2391.709229 
	C4320.691406,2430.466553 4303.098633,2465.775391 4281.209961,2499.109375 
	C4279.415039,2501.843018 4276.730957,2504.285156 4276.343750,2509.211182 
	C4281.217285,2505.689453 4285.021484,2503.021973 4288.740234,2500.240723 
	C4341.970215,2460.424805 4391.062988,2415.912598 4437.641113,2368.588623 
	C4546.836914,2257.643799 4641.068848,2135.065918 4721.135254,2001.655029 
	C4763.958984,1930.299438 4798.863770,1855.293091 4820.940430,1774.730591 
	C4841.255859,1700.597412 4848.898926,1625.622314 4836.074219,1549.254517 
	C4827.423828,1497.746460 4809.607910,1449.666870 4782.326660,1405.133789 
	C4746.197266,1346.158813 4697.677246,1299.235840 4641.152832,1260.066772 
	C4591.053711,1225.350342 4536.367676,1199.415405 4480.392090,1176.006470 
	C4356.833496,1124.333862 4228.565430,1088.072144 4097.857910,1059.951538 
	C4036.327881,1046.713867 3974.448242,1035.265015 3912.092773,1026.676392 
	C3872.175781,1021.178406 3832.124756,1016.641174 3792.099121,1011.969421 
	C3786.717773,1011.341248 3782.963623,1009.513123 3779.423828,1005.376282 
	C3758.381104,980.783081 3735.837891,957.672119 3711.100342,936.712646 
	C3641.424805,877.679077 3561.601807,837.550903 3475.128662,809.835632 
	C3399.377930,785.556824 3321.540527,771.267761 3242.641357,762.519775 
	C3178.353760,755.391785 3113.800781,751.513184 3049.145264,750.593933 
	C2983.828125,749.665283 2918.491455,749.996155 2853.163330,749.960999 
	C2764.504639,749.913269 2675.845703,749.914917 2587.187256,750.131226 
	C2500.195557,750.343506 2413.204834,750.962769 2326.213135,751.201660 
	C2208.885986,751.523743 2091.558350,751.708801 1974.230835,751.852295 
	C1769.574097,752.102539 1564.917480,752.247437 1360.260742,752.495605 
	C1274.932739,752.599060 1189.604858,753.055908 1104.277344,752.964661 
	C1052.869385,752.909729 1001.751587,749.035645 951.409302,737.942383 
	C914.821655,729.880066 879.535767,718.255615 847.450745,698.317078 
	C824.420654,684.005371 804.791382,666.445984 793.066833,641.328918 
	C792.868408,640.903687 791.965332,640.807495 790.882751,640.336792 
	C662.788269,880.199890 534.673096,1120.100586 406.568451,1360.006958 
	C405.788391,1361.467773 405.129333,1362.995972 404.479340,1364.520752 
	C404.375854,1364.763550 404.582642,1365.171631 404.715759,1365.472412 
	C404.833374,1365.738159 405.048279,1365.960938 405.618652,1366.762817 
	C408.859039,1366.762817 412.500854,1366.762817 416.142670,1366.762817 
	C745.798340,1366.762695 1075.454102,1366.859741 1405.109741,1366.684814 
	C1475.076538,1366.647705 1545.079834,1366.508179 1614.708618,1357.914185 
	C1649.491699,1353.621094 1683.718994,1346.863281 1716.787231,1334.962280 
	C1758.482544,1319.956543 1796.426270,1297.888916 1832.266724,1272.237915 
	C1874.252563,1242.188354 1915.750366,1211.453491 1957.312256,1180.815674 
	C2020.679688,1134.103516 2086.407227,1091.178833 2156.624268,1055.350220 
	C2206.821777,1029.736572 2258.618164,1008.097229 2312.638672,991.898682 
	C2376.385742,972.783691 2441.451172,961.277222 2507.912354,957.425232 
	C2574.277344,953.578735 2640.500488,954.934814 2706.541016,962.469604 
	C2763.891846,969.013000 2820.161621,980.924744 2875.599609,997.074646 
	C2944.426514,1017.125000 3011.070312,1043.055542 3076.927246,1071.075562 
	C3149.796631,1102.079102 3222.235596,1134.096191 3295.177979,1164.924805 
	C3348.557373,1187.485107 3403.002441,1207.104492 3459.858887,1219.360718 
	C3525.961914,1233.610107 3590.839355,1231.323608 3654.164062,1205.908569 
	C3655.695557,1205.293823 3657.404785,1205.122681 3660.266113,1204.457642 
	C3658.021973,1207.036621 3656.813721,1208.634277 3655.398438,1210.020752 
	C3637.037109,1228.006592 3615.407959,1240.843872 3591.686279,1250.376709 
	C3538.041992,1271.934326 3482.285156,1274.887939 3425.583496,1269.052002 
	C3377.661133,1264.119873 3330.833496,1253.555664 3285.734619,1236.983765 
	C3236.104736,1218.746704 3187.208496,1198.484619 3138.188477,1178.621826 
	C3056.771973,1145.632568 2975.693359,1111.781494 2891.852539,1085.190674 
	C2846.730225,1070.879639 2800.951904,1059.252930 2754.122070,1052.147095 
	C2706.259277,1044.884644 2658.032471,1042.567993 2609.667725,1041.774414 
	C2543.243896,1040.684570 2478.067871,1048.700928 2414.166992,1066.876831 
	C2333.193359,1089.908813 2257.945068,1125.716553 2186.645996,1169.993652 
	C2073.352783,1240.349243 1972.768433,1326.418457 1878.783813,1420.546875 
	C1877.688721,1421.643799 1876.888306,1423.034790 1875.695068,1424.629761 
	C1989.588501,1516.227661 2103.019531,1607.453613 2216.772461,1698.938599 
	C2215.187256,1701.656738 2213.963379,1703.959717 2212.552246,1706.141602 
	C2204.050293,1719.286743 2195.547607,1732.431396 2186.967773,1745.525757 
	C2151.916504,1799.022095 2116.756104,1852.447266 2081.806885,1906.010132 
	C2066.985352,1928.725586 2055.240234,1952.842773 2048.970947,1979.482788 
	C2034.590210,2040.593018 2073.973389,2092.152100 2116.823730,2107.171875 
	C2131.166016,2112.199219 2146.316650,2115.344482 2161.344482,2117.902344 
	C2191.333740,2123.007324 2221.739014,2123.196533 2252.060303,2123.167725 
	C2393.383545,2123.034424 2534.707031,2122.633545 2676.030273,2122.388916 
	C2887.020020,2122.023926 3098.009766,2121.709229 3310.999756,2121.373291 
M223.945053,1713.004150 
	C220.911575,1720.038330 217.764572,1727.026001 214.862961,1734.114136 
	C195.396866,1781.666504 177.683304,1829.640869 173.086273,1881.509033 
	C171.567230,1898.648315 172.340271,1915.459961 175.076889,1932.198486 
	C179.153503,1957.133423 188.597015,1980.157227 201.736328,2001.740356 
	C214.843002,2023.269897 230.458771,2042.569702 250.284454,2058.302246 
	C278.249512,2080.493408 310.472778,2093.497803 344.717346,2102.166260 
	C393.426239,2114.496338 443.264526,2117.787842 493.149841,2119.725586 
	C533.750122,2121.302490 574.416809,2121.691650 615.054382,2121.703613 
	C1052.665649,2121.833984 1490.276855,2121.784912 1927.888062,2121.784424 
	C1931.554199,2121.784424 1935.226807,2121.904785 1938.884155,2121.722412 
	C1941.029907,2121.615479 1943.151245,2121.020996 1946.135254,2120.495361 
	C1944.496826,2118.023193 1943.472900,2116.395020 1942.367432,2114.823975 
	C1936.236450,2106.108887 1929.726562,2097.636963 1924.007690,2088.660156 
	C1905.727539,2059.966064 1900.378540,2029.129395 1909.036011,1995.946899 
	C1917.197754,1964.664795 1931.822876,1936.180420 1947.546387,1908.353516 
	C1973.597046,1862.250000 2000.700073,1816.741333 2027.336426,1770.968506 
	C2031.902100,1763.122437 2031.797119,1761.624146 2024.826782,1755.798584 
	C2004.388184,1738.716431 1983.969360,1721.604370 1963.253296,1704.862061 
	C1931.140625,1678.909058 1898.932251,1653.069580 1866.495117,1627.523926 
	C1837.203247,1604.455322 1808.376099,1580.742310 1776.674683,1560.895020 
	C1750.578125,1544.556885 1723.269897,1531.017822 1693.531128,1522.499268 
	C1665.859863,1514.572998 1637.514404,1510.481323 1608.997559,1508.441284 
	C1575.807739,1506.066895 1542.486084,1504.415405 1509.220459,1504.392334 
	C1121.269897,1504.122925 733.318848,1504.219849 345.367981,1504.219849 
	C343.034943,1504.219849 340.676514,1504.442017 338.373962,1504.177490 
	C333.033020,1503.563965 329.825043,1505.729370 327.270721,1510.523315 
	C318.813934,1526.394531 309.431366,1541.786621 301.322418,1557.826782 
	C275.471832,1608.961914 250.035355,1660.306641 223.945053,1713.004150 
z"/>
<path fill="#012A5E" opacity="1.000000" stroke="none" 
	d="
M3309.999512,2121.373047 
	C3098.009766,2121.709229 2887.020020,2122.023926 2676.030273,2122.388916 
	C2534.707031,2122.633545 2393.383545,2123.034424 2252.060303,2123.167725 
	C2221.739014,2123.196533 2191.333740,2123.007324 2161.344482,2117.902344 
	C2146.316650,2115.344482 2131.166016,2112.199219 2116.823730,2107.171875 
	C2073.973389,2092.152100 2034.590210,2040.593018 2048.970947,1979.482788 
	C2055.240234,1952.842773 2066.985352,1928.725586 2081.806885,1906.010132 
	C2116.756104,1852.447266 2151.916504,1799.022095 2186.967773,1745.525757 
	C2195.547607,1732.431396 2204.050293,1719.286743 2212.552246,1706.141602 
	C2213.963379,1703.959717 2215.187256,1701.656738 2216.772461,1698.938599 
	C2103.019531,1607.453613 1989.588501,1516.227661 1875.695068,1424.629761 
	C1876.888306,1423.034790 1877.688721,1421.643799 1878.783813,1420.546875 
	C1972.768433,1326.418457 2073.352783,1240.349243 2186.645996,1169.993652 
	C2257.945068,1125.716553 2333.193359,1089.908813 2414.166992,1066.876831 
	C2478.067871,1048.700928 2543.243896,1040.684570 2609.667725,1041.774414 
	C2658.032471,1042.567993 2706.259277,1044.884644 2754.122070,1052.147095 
	C2800.951904,1059.252930 2846.730225,1070.879639 2891.852539,1085.190674 
	C2975.693359,1111.781494 3056.771973,1145.632568 3138.188477,1178.621826 
	C3187.208496,1198.484619 3236.104736,1218.746704 3285.734619,1236.983765 
	C3330.833496,1253.555664 3377.661133,1264.119873 3425.583496,1269.052002 
	C3482.285156,1274.887939 3538.041992,1271.934326 3591.686279,1250.376709 
	C3615.407959,1240.843872 3637.037109,1228.006592 3655.398438,1210.020752 
	C3656.813721,1208.634277 3658.021973,1207.036621 3660.266113,1204.457642 
	C3657.404785,1205.122681 3655.695557,1205.293823 3654.164062,1205.908569 
	C3590.839355,1231.323608 3525.961914,1233.610107 3459.858887,1219.360718 
	C3403.002441,1207.104492 3348.557373,1187.485107 3295.177979,1164.924805 
	C3222.235596,1134.096191 3149.796631,1102.079102 3076.927246,1071.075562 
	C3011.070312,1043.055542 2944.426514,1017.125000 2875.599609,997.074646 
	C2820.161621,980.924744 2763.891846,969.013000 2706.541016,962.469604 
	C2640.500488,954.934814 2574.277344,953.578735 2507.912354,957.425232 
	C2441.451172,961.277222 2376.385742,972.783691 2312.638672,991.898682 
	C2258.618164,1008.097229 2206.821777,1029.736572 2156.624268,1055.350220 
	C2086.407227,1091.178833 2020.679688,1134.103516 1957.312256,1180.815674 
	C1915.750366,1211.453491 1874.252563,1242.188354 1832.266724,1272.237915 
	C1796.426270,1297.888916 1758.482544,1319.956543 1716.787231,1334.962280 
	C1683.718994,1346.863281 1649.491699,1353.621094 1614.708618,1357.914185 
	C1545.079834,1366.508179 1475.076538,1366.647705 1405.109741,1366.684814 
	C1075.454102,1366.859741 745.798340,1366.762695 416.142670,1366.762817 
	C412.500854,1366.762817 408.859039,1366.762817 405.618652,1366.762817 
	C405.048279,1365.960938 404.833374,1365.738159 404.715759,1365.472412 
	C404.582642,1365.171631 404.375854,1364.763550 404.479340,1364.520752 
	C405.129333,1362.995972 405.788391,1361.467773 406.568451,1360.006958 
	C534.673096,1120.100586 662.788269,880.199890 790.882751,640.336792 
	C791.965332,640.807495 792.868408,640.903687 793.066833,641.328918 
	C804.791382,666.445984 824.420654,684.005371 847.450745,698.317078 
	C879.535767,718.255615 914.821655,729.880066 951.409302,737.942383 
	C1001.751587,749.035645 1052.869385,752.909729 1104.277344,752.964661 
	C1189.604858,753.055908 1274.932739,752.599060 1360.260742,752.495605 
	C1564.917480,752.247437 1769.574097,752.102539 1974.230835,751.852295 
	C2091.558350,751.708801 2208.885986,751.523743 2326.213135,751.201660 
	C2413.204834,750.962769 2500.195557,750.343506 2587.187256,750.131226 
	C2675.845703,749.914917 2764.504639,749.913269 2853.163330,749.960999 
	C2918.491455,749.996155 2983.828125,749.665283 3049.145264,750.593933 
	C3113.800781,751.513184 3178.353760,755.391785 3242.641357,762.519775 
	C3321.540527,771.267761 3399.377930,785.556824 3475.128662,809.835632 
	C3561.601807,837.550903 3641.424805,877.679077 3711.100342,936.712646 
	C3735.837891,957.672119 3758.381104,980.783081 3779.423828,1005.376282 
	C3782.963623,1009.513123 3786.717773,1011.341248 3792.099121,1011.969421 
	C3832.124756,1016.641174 3872.175781,1021.178406 3912.092773,1026.676392 
	C3974.448242,1035.265015 4036.327881,1046.713867 4097.857910,1059.951538 
	C4228.565430,1088.072144 4356.833496,1124.333862 4480.392090,1176.006470 
	C4536.367676,1199.415405 4591.053711,1225.350342 4641.152832,1260.066772 
	C4697.677246,1299.235840 4746.197266,1346.158813 4782.326660,1405.133789 
	C4809.607910,1449.666870 4827.423828,1497.746460 4836.074219,1549.254517 
	C4848.898926,1625.622314 4841.255859,1700.597412 4820.940430,1774.730591 
	C4798.863770,1855.293091 4763.958984,1930.299438 4721.135254,2001.655029 
	C4641.068848,2135.065918 4546.836914,2257.643799 4437.641113,2368.588623 
	C4391.062988,2415.912598 4341.970215,2460.424805 4288.740234,2500.240723 
	C4285.021484,2503.021973 4281.217285,2505.689453 4276.343750,2509.211182 
	C4276.730957,2504.285156 4279.415039,2501.843018 4281.209961,2499.109375 
	C4303.098633,2465.775391 4320.691406,2430.466553 4330.826660,2391.709229 
	C4337.649902,2365.616455 4340.199219,2339.267090 4335.217285,2312.532471 
	C4328.395996,2275.927979 4308.642578,2247.644043 4278.938477,2225.927002 
	C4250.235352,2204.942139 4217.823242,2191.818604 4183.441895,2184.370117 
	C4144.435547,2175.919678 4105.144043,2168.516846 4065.705811,2162.405518 
	C4020.961182,2155.471680 3975.966064,2150.054443 3930.986084,2144.778320 
	C3899.895996,2141.131348 3868.688721,2138.243164 3837.460449,2136.072754 
	C3776.641846,2131.845703 3715.798584,2127.827393 3654.913818,2124.752686 
	C3612.989990,2122.635498 3570.983643,2121.530762 3529.005615,2121.252197 
	C3456.340332,2120.770020 3383.668701,2121.279785 3309.999512,2121.373047 
M4383.216797,2144.943359 
	C4376.805664,2141.403809 4370.428711,2137.801025 4363.978516,2134.333984 
	C4272.014160,2084.900391 4175.940430,2044.888672 4077.724365,2009.848389 
	C3979.264893,1974.721069 3879.119141,1945.165283 3777.672852,1920.005859 
	C3683.636719,1896.683960 3588.940430,1876.386719 3493.139404,1861.858643 
	C3430.276611,1852.325684 3367.212646,1843.889771 3304.043213,1836.676636 
	C3249.109131,1830.403931 3193.867676,1827.296753 3138.553223,1825.552124 
	C3071.187988,1823.427124 3003.970215,1824.170044 2936.946777,1831.936768 
	C2887.829590,1837.628296 2839.858154,1848.110962 2793.622803,1865.987183 
	C2711.866943,1897.596558 2648.256348,1951.003418 2601.973877,2025.261353 
	C2598.898682,2030.195190 2596.187744,2035.355957 2592.778809,2041.339111 
	C2635.695801,2041.339111 2676.849609,2041.339111 2717.854492,2041.339111 
	C2718.565674,2040.526367 2719.064697,2040.066406 2719.434326,2039.519165 
	C2750.271240,1993.875244 2792.551514,1962.725342 2842.983398,1941.860840 
	C2901.607910,1917.606934 2963.348145,1908.345703 3026.067383,1904.253296 
	C3073.658447,1901.147949 3121.341064,1900.990112 3168.927002,1904.064209 
	C3232.087891,1908.144409 3295.270508,1912.258179 3358.292725,1918.011108 
	C3421.281006,1923.761108 3484.181641,1930.764771 3546.941895,1938.644043 
	C3624.244141,1948.348877 3701.091064,1961.173950 3777.596436,1975.980225 
	C3857.343018,1991.413696 3936.520508,2009.358398 4015.004395,2030.260010 
	C4105.367676,2054.325195 4194.597656,2082.119873 4282.736328,2113.374268 
	C4316.555664,2125.366943 4350.247070,2137.722656 4385.212402,2150.541016 
	C4389.354004,2152.000977 4393.495605,2153.460938 4397.637207,2154.920898 
	C4397.928711,2154.232178 4398.220703,2153.543457 4398.512695,2152.854492 
	C4393.769043,2150.511230 4389.024902,2148.167725 4383.216797,2144.943359 
M2920.363525,1753.548584 
	C2942.966553,1752.276367 2965.561768,1750.096069 2988.173828,1749.905029 
	C3051.841064,1749.366943 3115.463379,1751.405640 3178.990479,1755.786865 
	C3218.212891,1758.491821 3257.460693,1761.005737 3296.609375,1764.567993 
	C3360.295654,1770.362915 3423.762939,1778.064575 3487.021973,1787.586304 
	C3557.819824,1798.243042 3628.262939,1810.734009 3698.290771,1825.623047 
	C3823.089111,1852.157227 3946.061279,1885.355591 4067.044434,1925.933960 
	C4184.564453,1965.350708 4299.359863,2011.415161 4410.738770,2065.886963 
	C4424.426270,2072.581055 4438.008301,2079.489502 4452.348633,2086.652832 
	C4457.400879,2077.693604 4462.085449,2069.335449 4466.816406,2061.003418 
	C4500.910645,2000.960327 4531.244629,1939.162476 4553.240234,1873.565186 
	C4575.865234,1806.091309 4589.991211,1737.309814 4584.201660,1665.547119 
	C4580.620605,1621.157227 4569.225098,1579.041016 4548.282715,1539.670654 
	C4518.766113,1484.179321 4475.352539,1441.671265 4423.565918,1407.117676 
	C4363.998535,1367.372314 4298.426270,1340.808105 4230.315430,1320.120117 
	C4144.080078,1293.927002 4055.676270,1278.017090 3966.540771,1265.766724 
	C3947.581787,1263.161011 3929.404785,1257.845947 3912.593750,1248.657471 
	C3906.234863,1245.181885 3900.132568,1240.858032 3894.804932,1235.952637 
	C3883.018311,1225.100342 3880.154785,1211.343872 3885.855713,1196.694458 
	C3889.061279,1188.458008 3893.622070,1180.289429 3899.332764,1173.591553 
	C3908.757080,1162.538574 3919.607178,1152.701782 3930.916748,1141.281616 
	C3918.856445,1144.341187 3907.631592,1146.759277 3896.664307,1150.037720 
	C3794.656006,1180.528931 3716.124023,1242.053955 3658.470703,1330.941406 
	C3641.574707,1356.990601 3629.064453,1385.242432 3616.192627,1413.456787 
	C3597.950195,1453.442261 3576.671875,1491.991089 3551.197998,1528.005615 
	C3530.503662,1557.262939 3507.090576,1583.994385 3478.493896,1605.901123 
	C3436.689453,1637.925171 3388.516357,1653.088501 3336.910156,1657.693359 
	C3305.428467,1660.502319 3273.722412,1661.872314 3242.111328,1661.971313 
	C3101.114746,1662.412476 2960.115967,1662.130981 2819.118164,1662.183350 
	C2778.732910,1662.198364 2738.547852,1665.063721 2698.740479,1672.059814 
	C2632.739746,1683.659424 2570.977783,1706.245239 2514.713623,1743.182983 
	C2461.756348,1777.949463 2417.448242,1821.889404 2378.284424,1871.265625 
	C2338.027100,1922.020386 2303.437744,1976.565552 2271.413330,2032.786377 
	C2269.493652,2036.156250 2267.808594,2039.659790 2265.637695,2043.823486 
	C2268.314941,2044.022095 2269.888916,2044.240356 2271.462891,2044.240967 
	C2320.795410,2044.260010 2370.128662,2044.158813 2419.459961,2044.396362 
	C2424.995117,2044.423096 2427.599854,2042.108643 2430.448486,2037.859253 
	C2463.532715,1988.506104 2499.332031,1941.330688 2541.622314,1899.328613 
	C2591.634521,1849.656860 2649.726562,1813.087036 2716.636475,1790.784302 
	C2782.169434,1768.940430 2849.986084,1759.293823 2920.363525,1753.548584 
M3441.293945,1474.306274 
	C3471.013916,1446.504028 3505.131592,1396.993652 3507.687256,1377.772705 
	C3491.740723,1378.958130 3475.853271,1380.397339 3459.934570,1381.265991 
	C3431.603516,1382.812012 3403.295654,1382.185791 3375.138916,1378.528442 
	C3367.923828,1377.591187 3363.148682,1378.737183 3358.416016,1385.259155 
	C3320.688232,1437.253662 3270.664795,1471.770752 3208.751953,1489.145874 
	C3169.098877,1500.274170 3128.552246,1505.457520 3087.589111,1507.805054 
	C3049.977051,1509.960693 3012.347412,1510.019165 2974.681885,1508.498047 
	C2924.744873,1506.481323 2874.807373,1504.710083 2825.212646,1497.995483 
	C2786.522949,1492.757568 2748.432861,1485.053711 2712.165771,1469.983032 
	C2694.807373,1462.770020 2678.700684,1453.507202 2664.716797,1440.871704 
	C2645.385498,1423.404419 2635.359375,1401.748291 2635.657959,1375.460449 
	C2635.842285,1359.242065 2638.755615,1343.425049 2645.382080,1328.820068 
	C2657.042480,1303.121094 2669.459717,1277.739380 2682.371094,1252.641968 
	C2693.942139,1230.150024 2706.617920,1208.226807 2718.763916,1186.029541 
	C2719.973877,1183.818726 2720.890625,1181.447266 2722.189209,1178.614136 
	C2720.080566,1178.341064 2718.839355,1178.083862 2717.589600,1178.032593 
	C2659.530029,1175.649658 2602.557373,1182.332031 2546.887207,1199.088867 
	C2449.250000,1228.477905 2363.725586,1279.197998 2287.907471,1346.864014 
	C2282.218750,1351.941040 2276.772461,1357.289673 2270.641113,1363.049805 
	C2276.183838,1368.408936 2281.171143,1373.268799 2286.198975,1378.086670 
	C2331.281250,1421.286255 2378.871826,1461.316406 2432.052734,1494.385620 
	C2482.532471,1525.775269 2536.467529,1548.704346 2594.643555,1561.250488 
	C2643.698975,1571.829956 2693.509766,1575.659546 2743.549805,1575.828735 
	C2858.173096,1576.216309 2972.798828,1576.129028 3087.423096,1575.976562 
	C3112.063232,1575.943848 3136.735107,1575.425537 3161.333984,1574.069214 
	C3207.342041,1571.531860 3252.719971,1564.597412 3297.053467,1551.722778 
	C3350.141602,1536.305664 3398.988525,1512.863770 3441.293945,1474.306274 
M3217.528564,1345.569824 
	C3214.128662,1344.202026 3210.494385,1343.230713 3207.375732,1341.387207 
	C3200.005859,1337.030396 3193.795898,1337.186523 3188.356689,1344.510986 
	C3186.813721,1346.589111 3184.405273,1348.059326 3182.289795,1349.671997 
	C3155.149658,1370.358276 3124.069824,1380.228394 3090.387939,1381.714966 
	C3062.896973,1382.928345 3036.690186,1377.323853 3012.931396,1362.707764 
	C2973.760986,1338.610352 2963.147949,1295.206421 2986.841064,1257.503052 
	C2987.804932,1255.969238 2988.499268,1254.265869 2989.757812,1251.772583 
	C2955.861572,1239.175659 2922.902832,1226.927124 2889.558350,1214.535156 
	C2876.058105,1236.350586 2862.589600,1256.992798 2852.501221,1279.492310 
	C2847.215088,1291.281738 2842.283691,1303.470215 2839.260254,1315.978271 
	C2834.695068,1334.865356 2836.683594,1353.260864 2850.544434,1368.449219 
	C2858.727783,1377.416260 2868.745850,1384.319824 2880.036377,1388.570557 
	C2895.259521,1394.301392 2910.620605,1400.137939 2926.417236,1403.785767 
	C2975.918701,1415.216675 3026.341797,1419.146118 3077.041992,1420.057617 
	C3102.075684,1420.507568 3126.972656,1419.175903 3151.505371,1413.884521 
	C3185.005615,1406.658936 3211.553467,1389.193604 3229.760254,1359.790161 
	C3231.239258,1357.401611 3232.236084,1354.714600 3233.794922,1351.461914 
	C3228.292480,1349.444580 3223.642578,1347.739746 3217.528564,1345.569824 
z"/>
<path fill="#B2B7BB" opacity="1.000000" stroke="none" 
	d="
M224.191956,1712.287231 
	C250.035355,1660.306641 275.471832,1608.961914 301.322418,1557.826782 
	C309.431366,1541.786621 318.813934,1526.394531 327.270721,1510.523315 
	C329.825043,1505.729370 333.033020,1503.563965 338.373962,1504.177490 
	C340.676514,1504.442017 343.034943,1504.219849 345.367981,1504.219849 
	C733.318848,1504.219849 1121.269897,1504.122925 1509.220459,1504.392334 
	C1542.486084,1504.415405 1575.807739,1506.066895 1608.997559,1508.441284 
	C1637.514404,1510.481323 1665.859863,1514.572998 1693.531128,1522.499268 
	C1723.269897,1531.017822 1750.578125,1544.556885 1776.674683,1560.895020 
	C1808.376099,1580.742310 1837.203247,1604.455322 1866.495117,1627.523926 
	C1898.932251,1653.069580 1931.140625,1678.909058 1963.253296,1704.862061 
	C1983.969360,1721.604370 2004.388184,1738.716431 2024.826782,1755.798584 
	C2031.797119,1761.624146 2031.902100,1763.122437 2027.336426,1770.968506 
	C2000.700073,1816.741333 1973.597046,1862.250000 1947.546387,1908.353516 
	C1931.822876,1936.180420 1917.197754,1964.664795 1909.036011,1995.946899 
	C1900.378540,2029.129395 1905.727539,2059.966064 1924.007690,2088.660156 
	C1929.726562,2097.636963 1936.236450,2106.108887 1942.367432,2114.823975 
	C1943.472900,2116.395020 1944.496826,2118.023193 1946.135254,2120.495361 
	C1943.151245,2121.020996 1941.029907,2121.615479 1938.884155,2121.722412 
	C1935.226807,2121.904785 1931.554199,2121.784424 1927.888062,2121.784424 
	C1490.276855,2121.784912 1052.665649,2121.833984 615.054382,2121.703613 
	C574.416809,2121.691650 533.750122,2121.302490 493.149841,2119.725586 
	C443.264526,2117.787842 393.426239,2114.496338 344.717346,2102.166260 
	C310.472778,2093.497803 278.249512,2080.493408 250.284454,2058.302246 
	C230.458771,2042.569702 214.843002,2023.269897 201.736328,2001.740356 
	C188.597015,1980.157227 179.153503,1957.133423 175.076889,1932.198486 
	C172.340271,1915.459961 171.567230,1898.648315 173.086273,1881.509033 
	C177.683304,1829.640869 195.396866,1781.666504 214.862961,1734.114136 
	C217.764572,1727.026001 220.911575,1720.038330 224.191956,1712.287231 
z"/>
<path fill="#FEFFFF" opacity="1.000000" stroke="none" 
	d="
M2919.438965,1753.580566 
	C2849.986084,1759.293823 2782.169434,1768.940430 2716.636475,1790.784302 
	C2649.726562,1813.087036 2591.634521,1849.656860 2541.622314,1899.328613 
	C2499.332031,1941.330688 2463.532715,1988.506104 2430.448486,2037.859253 
	C2427.599854,2042.108643 2424.995117,2044.423096 2419.459961,2044.396362 
	C2370.128662,2044.158813 2320.795410,2044.260010 2271.462891,2044.240967 
	C2269.888916,2044.240356 2268.314941,2044.022095 2265.637695,2043.823486 
	C2267.808594,2039.659790 2269.493652,2036.156250 2271.413330,2032.786377 
	C2303.437744,1976.565552 2338.027100,1922.020386 2378.284424,1871.265625 
	C2417.448242,1821.889404 2461.756348,1777.949463 2514.713623,1743.182983 
	C2570.977783,1706.245239 2632.739746,1683.659424 2698.740479,1672.059814 
	C2738.547852,1665.063721 2778.732910,1662.198364 2819.118164,1662.183350 
	C2960.115967,1662.130981 3101.114746,1662.412476 3242.111328,1661.971313 
	C3273.722412,1661.872314 3305.428467,1660.502319 3336.910156,1657.693359 
	C3388.516357,1653.088501 3436.689453,1637.925171 3478.493896,1605.901123 
	C3507.090576,1583.994385 3530.503662,1557.262939 3551.197998,1528.005615 
	C3576.671875,1491.991089 3597.950195,1453.442261 3616.192627,1413.456787 
	C3629.064453,1385.242432 3641.574707,1356.990601 3658.470703,1330.941406 
	C3716.124023,1242.053955 3794.656006,1180.528931 3896.664307,1150.037720 
	C3907.631592,1146.759277 3918.856445,1144.341187 3930.916748,1141.281616 
	C3919.607178,1152.701782 3908.757080,1162.538574 3899.332764,1173.591553 
	C3893.622070,1180.289429 3889.061279,1188.458008 3885.855713,1196.694458 
	C3880.154785,1211.343872 3883.018311,1225.100342 3894.804932,1235.952637 
	C3900.132568,1240.858032 3906.234863,1245.181885 3912.593750,1248.657471 
	C3929.404785,1257.845947 3947.581787,1263.161011 3966.540771,1265.766724 
	C4055.676270,1278.017090 4144.080078,1293.927002 4230.315430,1320.120117 
	C4298.426270,1340.808105 4363.998535,1367.372314 4423.565918,1407.117676 
	C4475.352539,1441.671265 4518.766113,1484.179321 4548.282715,1539.670654 
	C4569.225098,1579.041016 4580.620605,1621.157227 4584.201660,1665.547119 
	C4589.991211,1737.309814 4575.865234,1806.091309 4553.240234,1873.565186 
	C4531.244629,1939.162476 4500.910645,2000.960327 4466.816406,2061.003418 
	C4462.085449,2069.335449 4457.400879,2077.693604 4452.348633,2086.652832 
	C4438.008301,2079.489502 4424.426270,2072.581055 4410.738770,2065.886963 
	C4299.359863,2011.415161 4184.564453,1965.350708 4067.044434,1925.933960 
	C3946.061279,1885.355591 3823.089111,1852.157227 3698.290771,1825.623047 
	C3628.262939,1810.734009 3557.819824,1798.243042 3487.021973,1787.586304 
	C3423.762939,1778.064575 3360.295654,1770.362915 3296.609375,1764.567993 
	C3257.460693,1761.005737 3218.212891,1758.491821 3178.990479,1755.786865 
	C3115.463379,1751.405640 3051.841064,1749.366943 2988.173828,1749.905029 
	C2965.561768,1750.096069 2942.966553,1752.276367 2919.438965,1753.580566 
z"/>
<path fill="#FEFEFE" opacity="1.000000" stroke="none" 
	d="
M3440.782715,1474.797607 
	C3398.988525,1512.863770 3350.141602,1536.305664 3297.053467,1551.722778 
	C3252.719971,1564.597412 3207.342041,1571.531860 3161.333984,1574.069214 
	C3136.735107,1575.425537 3112.063232,1575.943848 3087.423096,1575.976562 
	C2972.798828,1576.129028 2858.173096,1576.216309 2743.549805,1575.828735 
	C2693.509766,1575.659546 2643.698975,1571.829956 2594.643555,1561.250488 
	C2536.467529,1548.704346 2482.532471,1525.775269 2432.052734,1494.385620 
	C2378.871826,1461.316406 2331.281250,1421.286255 2286.198975,1378.086670 
	C2281.171143,1373.268799 2276.183838,1368.408936 2270.641113,1363.049805 
	C2276.772461,1357.289673 2282.218750,1351.941040 2287.907471,1346.864014 
	C2363.725586,1279.197998 2449.250000,1228.477905 2546.887207,1199.088867 
	C2602.557373,1182.332031 2659.530029,1175.649658 2717.589600,1178.032593 
	C2718.839355,1178.083862 2720.080566,1178.341064 2722.189209,1178.614136 
	C2720.890625,1181.447266 2719.973877,1183.818726 2718.763916,1186.029541 
	C2706.617920,1208.226807 2693.942139,1230.150024 2682.371094,1252.641968 
	C2669.459717,1277.739380 2657.042480,1303.121094 2645.382080,1328.820068 
	C2638.755615,1343.425049 2635.842285,1359.242065 2635.657959,1375.460449 
	C2635.359375,1401.748291 2645.385498,1423.404419 2664.716797,1440.871704 
	C2678.700684,1453.507202 2694.807373,1462.770020 2712.165771,1469.983032 
	C2748.432861,1485.053711 2786.522949,1492.757568 2825.212646,1497.995483 
	C2874.807373,1504.710083 2924.744873,1506.481323 2974.681885,1508.498047 
	C3012.347412,1510.019165 3049.977051,1509.960693 3087.589111,1507.805054 
	C3128.552246,1505.457520 3169.098877,1500.274170 3208.751953,1489.145874 
	C3270.664795,1471.770752 3320.688232,1437.253662 3358.416016,1385.259155 
	C3363.148682,1378.737183 3367.923828,1377.591187 3375.138916,1378.528442 
	C3403.295654,1382.185791 3431.603516,1382.812012 3459.934570,1381.265991 
	C3475.853271,1380.397339 3491.740723,1378.958130 3507.687256,1377.772705 
	C3505.131592,1396.993652 3471.013916,1446.504028 3440.782715,1474.797607 
z"/>
<path fill="#FCFDFD" opacity="1.000000" stroke="none" 
	d="
M4383.996582,2149.912842 
	C4350.247070,2137.722656 4316.555664,2125.366943 4282.736328,2113.374268 
	C4194.597656,2082.119873 4105.367676,2054.325195 4015.004395,2030.260010 
	C3936.520508,2009.358398 3857.343018,1991.413696 3777.596436,1975.980225 
	C3701.091064,1961.173950 3624.244141,1948.348877 3546.941895,1938.644043 
	C3484.181641,1930.764771 3421.281006,1923.761108 3358.292725,1918.011108 
	C3295.270508,1912.258179 3232.087891,1908.144409 3168.927002,1904.064209 
	C3121.341064,1900.990112 3073.658447,1901.147949 3026.067383,1904.253296 
	C2963.348145,1908.345703 2901.607910,1917.606934 2842.983398,1941.860840 
	C2792.551514,1962.725342 2750.271240,1993.875244 2719.434326,2039.519165 
	C2719.064697,2040.066406 2718.565674,2040.526367 2717.854492,2041.339111 
	C2676.849609,2041.339111 2635.695801,2041.339111 2592.778809,2041.339111 
	C2596.187744,2035.355957 2598.898682,2030.195190 2601.973877,2025.261353 
	C2648.256348,1951.003418 2711.866943,1897.596558 2793.622803,1865.987183 
	C2839.858154,1848.110962 2887.829590,1837.628296 2936.946777,1831.936768 
	C3003.970215,1824.170044 3071.187988,1823.427124 3138.553223,1825.552124 
	C3193.867676,1827.296753 3249.109131,1830.403931 3304.043213,1836.676636 
	C3367.212646,1843.889771 3430.276611,1852.325684 3493.139404,1861.858643 
	C3588.940430,1876.386719 3683.636719,1896.683960 3777.672852,1920.005859 
	C3879.119141,1945.165283 3979.264893,1974.721069 4077.724365,2009.848389 
	C4175.940430,2044.888672 4272.014160,2084.900391 4363.978516,2134.333984 
	C4370.428711,2137.801025 4376.805664,2141.403809 4383.892578,2146.070068 
	C4384.377930,2148.102295 4384.187500,2149.007568 4383.996582,2149.912842 
z"/>
<path fill="#4CBC38" opacity="1.000000" stroke="none" 
	d="
M3218.260742,1345.802490 
	C3223.642578,1347.739746 3228.292480,1349.444580 3233.794922,1351.461914 
	C3232.236084,1354.714600 3231.239258,1357.401611 3229.760254,1359.790161 
	C3211.553467,1389.193604 3185.005615,1406.658936 3151.505371,1413.884521 
	C3126.972656,1419.175903 3102.075684,1420.507568 3077.041992,1420.057617 
	C3026.341797,1419.146118 2975.918701,1415.216675 2926.417236,1403.785767 
	C2910.620605,1400.137939 2895.259521,1394.301392 2880.036377,1388.570557 
	C2868.745850,1384.319824 2858.727783,1377.416260 2850.544434,1368.449219 
	C2836.683594,1353.260864 2834.695068,1334.865356 2839.260254,1315.978271 
	C2842.283691,1303.470215 2847.215088,1291.281738 2852.501221,1279.492310 
	C2862.589600,1256.992798 2876.058105,1236.350586 2889.558350,1214.535156 
	C2922.902832,1226.927124 2955.861572,1239.175659 2989.757812,1251.772583 
	C2988.499268,1254.265869 2987.804932,1255.969238 2986.841064,1257.503052 
	C2963.147949,1295.206421 2973.760986,1338.610352 3012.931396,1362.707764 
	C3036.690186,1377.323853 3062.896973,1382.928345 3090.387939,1381.714966 
	C3124.069824,1380.228394 3155.149658,1370.358276 3182.289795,1349.671997 
	C3184.405273,1348.059326 3186.813721,1346.589111 3188.356689,1344.510986 
	C3193.795898,1337.186523 3200.005859,1337.030396 3207.375732,1341.387207 
	C3210.494385,1343.230713 3214.128662,1344.202026 3218.260742,1345.802490 
z"/>
<path fill="#A1B0C1" opacity="1.000000" stroke="none" 
	d="
M4384.604492,2150.227051 
	C4384.187500,2149.007568 4384.377930,2148.102295 4384.424805,2146.510498 
	C4389.024902,2148.167725 4393.769043,2150.511230 4398.512695,2152.854492 
	C4398.220703,2153.543457 4397.928711,2154.232178 4397.637207,2154.920898 
	C4393.495605,2153.460938 4389.354004,2152.000977 4384.604492,2150.227051 
z"/>
</svg>